StartChar: custom_5_5_0_0_0
Encoding: 16756 -1 16511
Width: 70
Flags: H
LayerCount: 2
Fore
SplineSet
17 25 m 1
 15 25 l 1
 15 27 l 1
 17 27 l 1
 17 25 l 1
23 25 m 1
 21 25 l 1
 21 27 l 1
 23 27 l 1
 23 25 l 1
26 25 m 1
 24 25 l 1
 24 27 l 1
 25 27 l 1
 25 26 l 1
 26 26 l 1
 26 25 l 1
28 25 m 1
 27 25 l 1
 27 26 l 1
 26 26 l 1
 26 27 l 1
 28 27 l 1
 28 25 l 1
31 25 m 1
 29 25 l 1
 29 27 l 1
 31 27 l 1
 31 25 l 1
17 29 m 1
 15 29 l 1
 15 31 l 1
 17 31 l 1
 17 29 l 1
17 33 m 1
 15 33 l 1
 15 35 l 1
 17 35 l 1
 17 33 l 1
23 33 m 1
 21 33 l 1
 21 35 l 1
 23 35 l 1
 23 33 l 1
17 37 m 1
 15 37 l 1
 15 39 l 1
 17 39 l 1
 17 37 l 1
23 37 m 1
 21 37 l 1
 21 39 l 1
 23 39 l 1
 23 37 l 1
17 41 m 1
 15 41 l 1
 15 43 l 1
 17 43 l 1
 17 41 l 1
23 41 m 1
 21 41 l 1
 21 43 l 1
 23 43 l 1
 23 41 l 1
31 29 m 1
 29 29 l 1
 29 31 l 1
 31 31 l 1
 31 29 l 1
25 33 m 1
 24 33 l 1
 24 35 l 1
 26 35 l 1
 26 34 l 1
 25 34 l 1
 25 33 l 1
28 33 m 1
 26 33 l 1
 26 34 l 1
 27 34 l 1
 27 35 l 1
 28 35 l 1
 28 33 l 1
31 33 m 1
 29 33 l 1
 29 35 l 1
 31 35 l 1
 31 33 l 1
36 31 m 1
 34 31 l 1
 34 33 l 1
 36 33 l 1
 36 31 l 1
26 41 m 1
 24 41 l 1
 24 43 l 1
 25 43 l 1
 25 42 l 1
 26 42 l 1
 26 41 l 1
28 41 m 1
 27 41 l 1
 27 42 l 1
 26 42 l 1
 26 43 l 1
 28 43 l 1
 28 41 l 1
31 41 m 1
 29 41 l 1
 29 43 l 1
 31 43 l 1
 31 41 l 1
36 35 m 1
 34 35 l 1
 34 37 l 1
 36 37 l 1
 36 35 l 1
41 25 m 1
 39 25 l 1
 39 27 l 1
 41 27 l 1
 41 25 l 1
44 25 m 1
 42 25 l 1
 42 27 l 1
 43 27 l 1
 43 26 l 1
 44 26 l 1
 44 25 l 1
46 25 m 1
 45 25 l 1
 45 26 l 1
 44 26 l 1
 44 27 l 1
 46 27 l 1
 46 25 l 1
49 25 m 1
 47 25 l 1
 47 27 l 1
 49 27 l 1
 49 25 l 1
55 25 m 1
 53 25 l 1
 53 27 l 1
 55 27 l 1
 55 25 l 1
58 25 m 1
 56 25 l 1
 56 27 l 1
 57 27 l 1
 57 26 l 1
 58 26 l 1
 58 25 l 1
60 25 m 1
 59 25 l 1
 59 26 l 1
 58 26 l 1
 58 27 l 1
 60 27 l 1
 60 25 l 1
63 25 m 1
 61 25 l 1
 61 27 l 1
 63 27 l 1
 63 25 l 1
41 29 m 1
 39 29 l 1
 39 31 l 1
 41 31 l 1
 41 29 l 1
41 33 m 1
 39 33 l 1
 39 35 l 1
 41 35 l 1
 41 33 l 1
43 33 m 1
 42 33 l 1
 42 35 l 1
 44 35 l 1
 44 34 l 1
 43 34 l 1
 43 33 l 1
46 33 m 1
 44 33 l 1
 44 34 l 1
 45 34 l 1
 45 35 l 1
 46 35 l 1
 46 33 l 1
55 29 m 1
 53 29 l 1
 53 31 l 1
 55 31 l 1
 55 29 l 1
49 33 m 1
 47 33 l 1
 47 35 l 1
 49 35 l 1
 49 33 l 1
55 33 m 1
 53 33 l 1
 53 35 l 1
 55 35 l 1
 55 33 l 1
41 41 m 1
 39 41 l 1
 39 43 l 1
 41 43 l 1
 41 41 l 1
44 41 m 1
 42 41 l 1
 42 43 l 1
 43 43 l 1
 43 42 l 1
 44 42 l 1
 44 41 l 1
46 41 m 1
 45 41 l 1
 45 42 l 1
 44 42 l 1
 44 43 l 1
 46 43 l 1
 46 41 l 1
49 37 m 1
 47 37 l 1
 47 39 l 1
 49 39 l 1
 49 37 l 1
49 41 m 1
 47 41 l 1
 47 43 l 1
 49 43 l 1
 49 41 l 1
55 41 m 1
 53 41 l 1
 53 43 l 1
 55 43 l 1
 55 41 l 1
57 33 m 1
 56 33 l 1
 56 35 l 1
 58 35 l 1
 58 34 l 1
 57 34 l 1
 57 33 l 1
60 33 m 1
 58 33 l 1
 58 34 l 1
 59 34 l 1
 59 35 l 1
 60 35 l 1
 60 33 l 1
63 33 m 1
 61 33 l 1
 61 35 l 1
 63 35 l 1
 63 33 l 1
63 37 m 1
 61 37 l 1
 61 39 l 1
 63 39 l 1
 63 37 l 1
58 41 m 1
 56 41 l 1
 56 43 l 1
 57 43 l 1
 57 42 l 1
 58 42 l 1
 58 41 l 1
60 41 m 1
 59 41 l 1
 59 42 l 1
 58 42 l 1
 58 43 l 1
 60 43 l 1
 60 41 l 1
63 41 m 1
 61 41 l 1
 61 43 l 1
 63 43 l 1
 63 41 l 1
EndSplineSet
Ligature2: "'liga' Standard Ligatures in Latin lookup 0-1" five five zero zero zero
LCarets2: 1 0
EndChar

StartChar: custom_5_5_0_0_1
Encoding: 16757 -1 16512
Width: 70
Flags: H
LayerCount: 2
Fore
SplineSet
17 25 m 1
 15 25 l 1
 15 27 l 1
 17 27 l 1
 17 25 l 1
23 25 m 1
 21 25 l 1
 21 27 l 1
 23 27 l 1
 23 25 l 1
26 25 m 1
 24 25 l 1
 24 27 l 1
 25 27 l 1
 25 26 l 1
 26 26 l 1
 26 25 l 1
28 25 m 1
 27 25 l 1
 27 26 l 1
 26 26 l 1
 26 27 l 1
 28 27 l 1
 28 25 l 1
31 25 m 1
 29 25 l 1
 29 27 l 1
 31 27 l 1
 31 25 l 1
17 29 m 1
 15 29 l 1
 15 31 l 1
 17 31 l 1
 17 29 l 1
17 33 m 1
 15 33 l 1
 15 35 l 1
 17 35 l 1
 17 33 l 1
23 33 m 1
 21 33 l 1
 21 35 l 1
 23 35 l 1
 23 33 l 1
17 37 m 1
 15 37 l 1
 15 39 l 1
 17 39 l 1
 17 37 l 1
23 37 m 1
 21 37 l 1
 21 39 l 1
 23 39 l 1
 23 37 l 1
17 41 m 1
 15 41 l 1
 15 43 l 1
 17 43 l 1
 17 41 l 1
23 41 m 1
 21 41 l 1
 21 43 l 1
 23 43 l 1
 23 41 l 1
31 29 m 1
 29 29 l 1
 29 31 l 1
 31 31 l 1
 31 29 l 1
25 33 m 1
 24 33 l 1
 24 35 l 1
 26 35 l 1
 26 34 l 1
 25 34 l 1
 25 33 l 1
28 33 m 1
 26 33 l 1
 26 34 l 1
 27 34 l 1
 27 35 l 1
 28 35 l 1
 28 33 l 1
31 33 m 1
 29 33 l 1
 29 35 l 1
 31 35 l 1
 31 33 l 1
36 31 m 1
 34 31 l 1
 34 33 l 1
 36 33 l 1
 36 31 l 1
26 41 m 1
 24 41 l 1
 24 43 l 1
 25 43 l 1
 25 42 l 1
 26 42 l 1
 26 41 l 1
28 41 m 1
 27 41 l 1
 27 42 l 1
 26 42 l 1
 26 43 l 1
 28 43 l 1
 28 41 l 1
31 41 m 1
 29 41 l 1
 29 43 l 1
 31 43 l 1
 31 41 l 1
36 35 m 1
 34 35 l 1
 34 37 l 1
 36 37 l 1
 36 35 l 1
41 25 m 1
 39 25 l 1
 39 27 l 1
 41 27 l 1
 41 25 l 1
44 25 m 1
 42 25 l 1
 42 27 l 1
 43 27 l 1
 43 26 l 1
 44 26 l 1
 44 25 l 1
46 25 m 1
 45 25 l 1
 45 26 l 1
 44 26 l 1
 44 27 l 1
 46 27 l 1
 46 25 l 1
49 25 m 1
 47 25 l 1
 47 27 l 1
 49 27 l 1
 49 25 l 1
55 25 m 1
 53 25 l 1
 53 27 l 1
 55 27 l 1
 55 25 l 1
58 25 m 1
 56 25 l 1
 56 27 l 1
 57 27 l 1
 57 26 l 1
 58 26 l 1
 58 25 l 1
60 25 m 1
 59 25 l 1
 59 26 l 1
 58 26 l 1
 58 27 l 1
 60 27 l 1
 60 25 l 1
63 25 m 1
 61 25 l 1
 61 27 l 1
 63 27 l 1
 63 25 l 1
41 29 m 1
 39 29 l 1
 39 31 l 1
 41 31 l 1
 41 29 l 1
41 33 m 1
 39 33 l 1
 39 35 l 1
 41 35 l 1
 41 33 l 1
43 33 m 1
 42 33 l 1
 42 35 l 1
 44 35 l 1
 44 34 l 1
 43 34 l 1
 43 33 l 1
46 33 m 1
 44 33 l 1
 44 34 l 1
 45 34 l 1
 45 35 l 1
 46 35 l 1
 46 33 l 1
55 29 m 1
 53 29 l 1
 53 31 l 1
 55 31 l 1
 55 29 l 1
49 33 m 1
 47 33 l 1
 47 35 l 1
 49 35 l 1
 49 33 l 1
55 33 m 1
 53 33 l 1
 53 35 l 1
 55 35 l 1
 55 33 l 1
41 41 m 1
 39 41 l 1
 39 43 l 1
 41 43 l 1
 41 41 l 1
44 41 m 1
 42 41 l 1
 42 43 l 1
 43 43 l 1
 43 42 l 1
 44 42 l 1
 44 41 l 1
46 41 m 1
 45 41 l 1
 45 42 l 1
 44 42 l 1
 44 43 l 1
 46 43 l 1
 46 41 l 1
49 37 m 1
 47 37 l 1
 47 39 l 1
 49 39 l 1
 49 37 l 1
49 41 m 1
 47 41 l 1
 47 43 l 1
 49 43 l 1
 49 41 l 1
55 41 m 1
 53 41 l 1
 53 43 l 1
 55 43 l 1
 55 41 l 1
57 33 m 1
 56 33 l 1
 56 35 l 1
 58 35 l 1
 58 34 l 1
 57 34 l 1
 57 33 l 1
60 33 m 1
 58 33 l 1
 58 34 l 1
 59 34 l 1
 59 35 l 1
 60 35 l 1
 60 33 l 1
63 33 m 1
 61 33 l 1
 61 35 l 1
 63 35 l 1
 63 33 l 1
63 37 m 1
 61 37 l 1
 61 39 l 1
 63 39 l 1
 63 37 l 1
58 41 m 1
 56 41 l 1
 56 43 l 1
 57 43 l 1
 57 42 l 1
 58 42 l 1
 58 41 l 1
60 41 m 1
 59 41 l 1
 59 42 l 1
 58 42 l 1
 58 43 l 1
 60 43 l 1
 60 41 l 1
63 41 m 1
 61 41 l 1
 61 43 l 1
 63 43 l 1
 63 41 l 1
EndSplineSet
Ligature2: "'liga' Standard Ligatures in Latin lookup 0-1" five five zero zero one
LCarets2: 1 0
EndChar

StartChar: custom_5_5_0_0_2
Encoding: 16758 -1 16513
Width: 70
Flags: H
LayerCount: 2
Fore
SplineSet
17 25 m 1
 15 25 l 1
 15 27 l 1
 17 27 l 1
 17 25 l 1
23 25 m 1
 21 25 l 1
 21 27 l 1
 23 27 l 1
 23 25 l 1
26 25 m 1
 24 25 l 1
 24 27 l 1
 25 27 l 1
 25 26 l 1
 26 26 l 1
 26 25 l 1
28 25 m 1
 27 25 l 1
 27 26 l 1
 26 26 l 1
 26 27 l 1
 28 27 l 1
 28 25 l 1
31 25 m 1
 29 25 l 1
 29 27 l 1
 31 27 l 1
 31 25 l 1
17 29 m 1
 15 29 l 1
 15 31 l 1
 17 31 l 1
 17 29 l 1
17 33 m 1
 15 33 l 1
 15 35 l 1
 17 35 l 1
 17 33 l 1
23 33 m 1
 21 33 l 1
 21 35 l 1
 23 35 l 1
 23 33 l 1
17 37 m 1
 15 37 l 1
 15 39 l 1
 17 39 l 1
 17 37 l 1
23 37 m 1
 21 37 l 1
 21 39 l 1
 23 39 l 1
 23 37 l 1
17 41 m 1
 15 41 l 1
 15 43 l 1
 17 43 l 1
 17 41 l 1
23 41 m 1
 21 41 l 1
 21 43 l 1
 23 43 l 1
 23 41 l 1
31 29 m 1
 29 29 l 1
 29 31 l 1
 31 31 l 1
 31 29 l 1
25 33 m 1
 24 33 l 1
 24 35 l 1
 26 35 l 1
 26 34 l 1
 25 34 l 1
 25 33 l 1
28 33 m 1
 26 33 l 1
 26 34 l 1
 27 34 l 1
 27 35 l 1
 28 35 l 1
 28 33 l 1
31 33 m 1
 29 33 l 1
 29 35 l 1
 31 35 l 1
 31 33 l 1
36 31 m 1
 34 31 l 1
 34 33 l 1
 36 33 l 1
 36 31 l 1
26 41 m 1
 24 41 l 1
 24 43 l 1
 25 43 l 1
 25 42 l 1
 26 42 l 1
 26 41 l 1
28 41 m 1
 27 41 l 1
 27 42 l 1
 26 42 l 1
 26 43 l 1
 28 43 l 1
 28 41 l 1
31 41 m 1
 29 41 l 1
 29 43 l 1
 31 43 l 1
 31 41 l 1
36 35 m 1
 34 35 l 1
 34 37 l 1
 36 37 l 1
 36 35 l 1
41 25 m 1
 39 25 l 1
 39 27 l 1
 41 27 l 1
 41 25 l 1
44 25 m 1
 42 25 l 1
 42 27 l 1
 43 27 l 1
 43 26 l 1
 44 26 l 1
 44 25 l 1
46 25 m 1
 45 25 l 1
 45 26 l 1
 44 26 l 1
 44 27 l 1
 46 27 l 1
 46 25 l 1
49 25 m 1
 47 25 l 1
 47 27 l 1
 49 27 l 1
 49 25 l 1
55 25 m 1
 53 25 l 1
 53 27 l 1
 55 27 l 1
 55 25 l 1
58 25 m 1
 56 25 l 1
 56 27 l 1
 57 27 l 1
 57 26 l 1
 58 26 l 1
 58 25 l 1
60 25 m 1
 59 25 l 1
 59 26 l 1
 58 26 l 1
 58 27 l 1
 60 27 l 1
 60 25 l 1
63 25 m 1
 61 25 l 1
 61 27 l 1
 63 27 l 1
 63 25 l 1
41 29 m 1
 39 29 l 1
 39 31 l 1
 41 31 l 1
 41 29 l 1
41 33 m 1
 39 33 l 1
 39 35 l 1
 41 35 l 1
 41 33 l 1
43 33 m 1
 42 33 l 1
 42 35 l 1
 44 35 l 1
 44 34 l 1
 43 34 l 1
 43 33 l 1
46 33 m 1
 44 33 l 1
 44 34 l 1
 45 34 l 1
 45 35 l 1
 46 35 l 1
 46 33 l 1
55 29 m 1
 53 29 l 1
 53 31 l 1
 55 31 l 1
 55 29 l 1
49 33 m 1
 47 33 l 1
 47 35 l 1
 49 35 l 1
 49 33 l 1
55 33 m 1
 53 33 l 1
 53 35 l 1
 55 35 l 1
 55 33 l 1
41 41 m 1
 39 41 l 1
 39 43 l 1
 41 43 l 1
 41 41 l 1
44 41 m 1
 42 41 l 1
 42 43 l 1
 43 43 l 1
 43 42 l 1
 44 42 l 1
 44 41 l 1
46 41 m 1
 45 41 l 1
 45 42 l 1
 44 42 l 1
 44 43 l 1
 46 43 l 1
 46 41 l 1
49 37 m 1
 47 37 l 1
 47 39 l 1
 49 39 l 1
 49 37 l 1
49 41 m 1
 47 41 l 1
 47 43 l 1
 49 43 l 1
 49 41 l 1
55 41 m 1
 53 41 l 1
 53 43 l 1
 55 43 l 1
 55 41 l 1
57 33 m 1
 56 33 l 1
 56 35 l 1
 58 35 l 1
 58 34 l 1
 57 34 l 1
 57 33 l 1
60 33 m 1
 58 33 l 1
 58 34 l 1
 59 34 l 1
 59 35 l 1
 60 35 l 1
 60 33 l 1
63 33 m 1
 61 33 l 1
 61 35 l 1
 63 35 l 1
 63 33 l 1
63 37 m 1
 61 37 l 1
 61 39 l 1
 63 39 l 1
 63 37 l 1
58 41 m 1
 56 41 l 1
 56 43 l 1
 57 43 l 1
 57 42 l 1
 58 42 l 1
 58 41 l 1
60 41 m 1
 59 41 l 1
 59 42 l 1
 58 42 l 1
 58 43 l 1
 60 43 l 1
 60 41 l 1
63 41 m 1
 61 41 l 1
 61 43 l 1
 63 43 l 1
 63 41 l 1
EndSplineSet
Ligature2: "'liga' Standard Ligatures in Latin lookup 0-1" five five zero zero two
LCarets2: 1 0
EndChar

StartChar: custom_5_5_0_0_3
Encoding: 16759 -1 16514
Width: 70
Flags: H
LayerCount: 2
Fore
SplineSet
17 25 m 1
 15 25 l 1
 15 27 l 1
 17 27 l 1
 17 25 l 1
23 25 m 1
 21 25 l 1
 21 27 l 1
 23 27 l 1
 23 25 l 1
26 25 m 1
 24 25 l 1
 24 27 l 1
 25 27 l 1
 25 26 l 1
 26 26 l 1
 26 25 l 1
28 25 m 1
 27 25 l 1
 27 26 l 1
 26 26 l 1
 26 27 l 1
 28 27 l 1
 28 25 l 1
31 25 m 1
 29 25 l 1
 29 27 l 1
 31 27 l 1
 31 25 l 1
17 29 m 1
 15 29 l 1
 15 31 l 1
 17 31 l 1
 17 29 l 1
17 33 m 1
 15 33 l 1
 15 35 l 1
 17 35 l 1
 17 33 l 1
23 33 m 1
 21 33 l 1
 21 35 l 1
 23 35 l 1
 23 33 l 1
17 37 m 1
 15 37 l 1
 15 39 l 1
 17 39 l 1
 17 37 l 1
23 37 m 1
 21 37 l 1
 21 39 l 1
 23 39 l 1
 23 37 l 1
17 41 m 1
 15 41 l 1
 15 43 l 1
 17 43 l 1
 17 41 l 1
23 41 m 1
 21 41 l 1
 21 43 l 1
 23 43 l 1
 23 41 l 1
31 29 m 1
 29 29 l 1
 29 31 l 1
 31 31 l 1
 31 29 l 1
25 33 m 1
 24 33 l 1
 24 35 l 1
 26 35 l 1
 26 34 l 1
 25 34 l 1
 25 33 l 1
28 33 m 1
 26 33 l 1
 26 34 l 1
 27 34 l 1
 27 35 l 1
 28 35 l 1
 28 33 l 1
31 33 m 1
 29 33 l 1
 29 35 l 1
 31 35 l 1
 31 33 l 1
36 31 m 1
 34 31 l 1
 34 33 l 1
 36 33 l 1
 36 31 l 1
26 41 m 1
 24 41 l 1
 24 43 l 1
 25 43 l 1
 25 42 l 1
 26 42 l 1
 26 41 l 1
28 41 m 1
 27 41 l 1
 27 42 l 1
 26 42 l 1
 26 43 l 1
 28 43 l 1
 28 41 l 1
31 41 m 1
 29 41 l 1
 29 43 l 1
 31 43 l 1
 31 41 l 1
36 35 m 1
 34 35 l 1
 34 37 l 1
 36 37 l 1
 36 35 l 1
41 25 m 1
 39 25 l 1
 39 27 l 1
 41 27 l 1
 41 25 l 1
44 25 m 1
 42 25 l 1
 42 27 l 1
 43 27 l 1
 43 26 l 1
 44 26 l 1
 44 25 l 1
46 25 m 1
 45 25 l 1
 45 26 l 1
 44 26 l 1
 44 27 l 1
 46 27 l 1
 46 25 l 1
49 25 m 1
 47 25 l 1
 47 27 l 1
 49 27 l 1
 49 25 l 1
55 25 m 1
 53 25 l 1
 53 27 l 1
 55 27 l 1
 55 25 l 1
58 25 m 1
 56 25 l 1
 56 27 l 1
 57 27 l 1
 57 26 l 1
 58 26 l 1
 58 25 l 1
60 25 m 1
 59 25 l 1
 59 26 l 1
 58 26 l 1
 58 27 l 1
 60 27 l 1
 60 25 l 1
63 25 m 1
 61 25 l 1
 61 27 l 1
 63 27 l 1
 63 25 l 1
41 29 m 1
 39 29 l 1
 39 31 l 1
 41 31 l 1
 41 29 l 1
41 33 m 1
 39 33 l 1
 39 35 l 1
 41 35 l 1
 41 33 l 1
43 33 m 1
 42 33 l 1
 42 35 l 1
 44 35 l 1
 44 34 l 1
 43 34 l 1
 43 33 l 1
46 33 m 1
 44 33 l 1
 44 34 l 1
 45 34 l 1
 45 35 l 1
 46 35 l 1
 46 33 l 1
55 29 m 1
 53 29 l 1
 53 31 l 1
 55 31 l 1
 55 29 l 1
49 33 m 1
 47 33 l 1
 47 35 l 1
 49 35 l 1
 49 33 l 1
55 33 m 1
 53 33 l 1
 53 35 l 1
 55 35 l 1
 55 33 l 1
41 41 m 1
 39 41 l 1
 39 43 l 1
 41 43 l 1
 41 41 l 1
44 41 m 1
 42 41 l 1
 42 43 l 1
 43 43 l 1
 43 42 l 1
 44 42 l 1
 44 41 l 1
46 41 m 1
 45 41 l 1
 45 42 l 1
 44 42 l 1
 44 43 l 1
 46 43 l 1
 46 41 l 1
49 37 m 1
 47 37 l 1
 47 39 l 1
 49 39 l 1
 49 37 l 1
49 41 m 1
 47 41 l 1
 47 43 l 1
 49 43 l 1
 49 41 l 1
55 41 m 1
 53 41 l 1
 53 43 l 1
 55 43 l 1
 55 41 l 1
57 33 m 1
 56 33 l 1
 56 35 l 1
 58 35 l 1
 58 34 l 1
 57 34 l 1
 57 33 l 1
60 33 m 1
 58 33 l 1
 58 34 l 1
 59 34 l 1
 59 35 l 1
 60 35 l 1
 60 33 l 1
63 33 m 1
 61 33 l 1
 61 35 l 1
 63 35 l 1
 63 33 l 1
63 37 m 1
 61 37 l 1
 61 39 l 1
 63 39 l 1
 63 37 l 1
58 41 m 1
 56 41 l 1
 56 43 l 1
 57 43 l 1
 57 42 l 1
 58 42 l 1
 58 41 l 1
60 41 m 1
 59 41 l 1
 59 42 l 1
 58 42 l 1
 58 43 l 1
 60 43 l 1
 60 41 l 1
63 41 m 1
 61 41 l 1
 61 43 l 1
 63 43 l 1
 63 41 l 1
EndSplineSet
Ligature2: "'liga' Standard Ligatures in Latin lookup 0-1" five five zero zero three
LCarets2: 1 0
EndChar

StartChar: custom_5_5_0_0_4
Encoding: 16760 -1 16515
Width: 70
Flags: H
LayerCount: 2
Fore
SplineSet
17 25 m 1
 15 25 l 1
 15 27 l 1
 17 27 l 1
 17 25 l 1
23 25 m 1
 21 25 l 1
 21 27 l 1
 23 27 l 1
 23 25 l 1
26 25 m 1
 24 25 l 1
 24 27 l 1
 25 27 l 1
 25 26 l 1
 26 26 l 1
 26 25 l 1
28 25 m 1
 27 25 l 1
 27 26 l 1
 26 26 l 1
 26 27 l 1
 28 27 l 1
 28 25 l 1
31 25 m 1
 29 25 l 1
 29 27 l 1
 31 27 l 1
 31 25 l 1
17 29 m 1
 15 29 l 1
 15 31 l 1
 17 31 l 1
 17 29 l 1
17 33 m 1
 15 33 l 1
 15 35 l 1
 17 35 l 1
 17 33 l 1
23 33 m 1
 21 33 l 1
 21 35 l 1
 23 35 l 1
 23 33 l 1
17 37 m 1
 15 37 l 1
 15 39 l 1
 17 39 l 1
 17 37 l 1
23 37 m 1
 21 37 l 1
 21 39 l 1
 23 39 l 1
 23 37 l 1
17 41 m 1
 15 41 l 1
 15 43 l 1
 17 43 l 1
 17 41 l 1
23 41 m 1
 21 41 l 1
 21 43 l 1
 23 43 l 1
 23 41 l 1
31 29 m 1
 29 29 l 1
 29 31 l 1
 31 31 l 1
 31 29 l 1
25 33 m 1
 24 33 l 1
 24 35 l 1
 26 35 l 1
 26 34 l 1
 25 34 l 1
 25 33 l 1
28 33 m 1
 26 33 l 1
 26 34 l 1
 27 34 l 1
 27 35 l 1
 28 35 l 1
 28 33 l 1
31 33 m 1
 29 33 l 1
 29 35 l 1
 31 35 l 1
 31 33 l 1
36 31 m 1
 34 31 l 1
 34 33 l 1
 36 33 l 1
 36 31 l 1
26 41 m 1
 24 41 l 1
 24 43 l 1
 25 43 l 1
 25 42 l 1
 26 42 l 1
 26 41 l 1
28 41 m 1
 27 41 l 1
 27 42 l 1
 26 42 l 1
 26 43 l 1
 28 43 l 1
 28 41 l 1
31 41 m 1
 29 41 l 1
 29 43 l 1
 31 43 l 1
 31 41 l 1
36 35 m 1
 34 35 l 1
 34 37 l 1
 36 37 l 1
 36 35 l 1
41 25 m 1
 39 25 l 1
 39 27 l 1
 41 27 l 1
 41 25 l 1
44 25 m 1
 42 25 l 1
 42 27 l 1
 43 27 l 1
 43 26 l 1
 44 26 l 1
 44 25 l 1
46 25 m 1
 45 25 l 1
 45 26 l 1
 44 26 l 1
 44 27 l 1
 46 27 l 1
 46 25 l 1
49 25 m 1
 47 25 l 1
 47 27 l 1
 49 27 l 1
 49 25 l 1
55 25 m 1
 53 25 l 1
 53 27 l 1
 55 27 l 1
 55 25 l 1
58 25 m 1
 56 25 l 1
 56 27 l 1
 57 27 l 1
 57 26 l 1
 58 26 l 1
 58 25 l 1
60 25 m 1
 59 25 l 1
 59 26 l 1
 58 26 l 1
 58 27 l 1
 60 27 l 1
 60 25 l 1
63 25 m 1
 61 25 l 1
 61 27 l 1
 63 27 l 1
 63 25 l 1
41 29 m 1
 39 29 l 1
 39 31 l 1
 41 31 l 1
 41 29 l 1
41 33 m 1
 39 33 l 1
 39 35 l 1
 41 35 l 1
 41 33 l 1
43 33 m 1
 42 33 l 1
 42 35 l 1
 44 35 l 1
 44 34 l 1
 43 34 l 1
 43 33 l 1
46 33 m 1
 44 33 l 1
 44 34 l 1
 45 34 l 1
 45 35 l 1
 46 35 l 1
 46 33 l 1
55 29 m 1
 53 29 l 1
 53 31 l 1
 55 31 l 1
 55 29 l 1
49 33 m 1
 47 33 l 1
 47 35 l 1
 49 35 l 1
 49 33 l 1
55 33 m 1
 53 33 l 1
 53 35 l 1
 55 35 l 1
 55 33 l 1
41 41 m 1
 39 41 l 1
 39 43 l 1
 41 43 l 1
 41 41 l 1
44 41 m 1
 42 41 l 1
 42 43 l 1
 43 43 l 1
 43 42 l 1
 44 42 l 1
 44 41 l 1
46 41 m 1
 45 41 l 1
 45 42 l 1
 44 42 l 1
 44 43 l 1
 46 43 l 1
 46 41 l 1
49 37 m 1
 47 37 l 1
 47 39 l 1
 49 39 l 1
 49 37 l 1
49 41 m 1
 47 41 l 1
 47 43 l 1
 49 43 l 1
 49 41 l 1
55 41 m 1
 53 41 l 1
 53 43 l 1
 55 43 l 1
 55 41 l 1
57 33 m 1
 56 33 l 1
 56 35 l 1
 58 35 l 1
 58 34 l 1
 57 34 l 1
 57 33 l 1
60 33 m 1
 58 33 l 1
 58 34 l 1
 59 34 l 1
 59 35 l 1
 60 35 l 1
 60 33 l 1
63 33 m 1
 61 33 l 1
 61 35 l 1
 63 35 l 1
 63 33 l 1
63 37 m 1
 61 37 l 1
 61 39 l 1
 63 39 l 1
 63 37 l 1
58 41 m 1
 56 41 l 1
 56 43 l 1
 57 43 l 1
 57 42 l 1
 58 42 l 1
 58 41 l 1
60 41 m 1
 59 41 l 1
 59 42 l 1
 58 42 l 1
 58 43 l 1
 60 43 l 1
 60 41 l 1
63 41 m 1
 61 41 l 1
 61 43 l 1
 63 43 l 1
 63 41 l 1
EndSplineSet
Ligature2: "'liga' Standard Ligatures in Latin lookup 0-1" five five zero zero four
LCarets2: 1 0
EndChar

StartChar: custom_5_5_0_0_5
Encoding: 16761 -1 16516
Width: 70
Flags: H
LayerCount: 2
Fore
SplineSet
17 25 m 1
 15 25 l 1
 15 27 l 1
 17 27 l 1
 17 25 l 1
23 25 m 1
 21 25 l 1
 21 27 l 1
 23 27 l 1
 23 25 l 1
26 25 m 1
 24 25 l 1
 24 27 l 1
 25 27 l 1
 25 26 l 1
 26 26 l 1
 26 25 l 1
28 25 m 1
 27 25 l 1
 27 26 l 1
 26 26 l 1
 26 27 l 1
 28 27 l 1
 28 25 l 1
31 25 m 1
 29 25 l 1
 29 27 l 1
 31 27 l 1
 31 25 l 1
17 29 m 1
 15 29 l 1
 15 31 l 1
 17 31 l 1
 17 29 l 1
17 33 m 1
 15 33 l 1
 15 35 l 1
 17 35 l 1
 17 33 l 1
23 33 m 1
 21 33 l 1
 21 35 l 1
 23 35 l 1
 23 33 l 1
17 37 m 1
 15 37 l 1
 15 39 l 1
 17 39 l 1
 17 37 l 1
23 37 m 1
 21 37 l 1
 21 39 l 1
 23 39 l 1
 23 37 l 1
17 41 m 1
 15 41 l 1
 15 43 l 1
 17 43 l 1
 17 41 l 1
23 41 m 1
 21 41 l 1
 21 43 l 1
 23 43 l 1
 23 41 l 1
31 29 m 1
 29 29 l 1
 29 31 l 1
 31 31 l 1
 31 29 l 1
25 33 m 1
 24 33 l 1
 24 35 l 1
 26 35 l 1
 26 34 l 1
 25 34 l 1
 25 33 l 1
28 33 m 1
 26 33 l 1
 26 34 l 1
 27 34 l 1
 27 35 l 1
 28 35 l 1
 28 33 l 1
31 33 m 1
 29 33 l 1
 29 35 l 1
 31 35 l 1
 31 33 l 1
36 31 m 1
 34 31 l 1
 34 33 l 1
 36 33 l 1
 36 31 l 1
26 41 m 1
 24 41 l 1
 24 43 l 1
 25 43 l 1
 25 42 l 1
 26 42 l 1
 26 41 l 1
28 41 m 1
 27 41 l 1
 27 42 l 1
 26 42 l 1
 26 43 l 1
 28 43 l 1
 28 41 l 1
31 41 m 1
 29 41 l 1
 29 43 l 1
 31 43 l 1
 31 41 l 1
36 35 m 1
 34 35 l 1
 34 37 l 1
 36 37 l 1
 36 35 l 1
41 25 m 1
 39 25 l 1
 39 27 l 1
 41 27 l 1
 41 25 l 1
44 25 m 1
 42 25 l 1
 42 27 l 1
 43 27 l 1
 43 26 l 1
 44 26 l 1
 44 25 l 1
46 25 m 1
 45 25 l 1
 45 26 l 1
 44 26 l 1
 44 27 l 1
 46 27 l 1
 46 25 l 1
49 25 m 1
 47 25 l 1
 47 27 l 1
 49 27 l 1
 49 25 l 1
55 25 m 1
 53 25 l 1
 53 27 l 1
 55 27 l 1
 55 25 l 1
58 25 m 1
 56 25 l 1
 56 27 l 1
 57 27 l 1
 57 26 l 1
 58 26 l 1
 58 25 l 1
60 25 m 1
 59 25 l 1
 59 26 l 1
 58 26 l 1
 58 27 l 1
 60 27 l 1
 60 25 l 1
63 25 m 1
 61 25 l 1
 61 27 l 1
 63 27 l 1
 63 25 l 1
41 29 m 1
 39 29 l 1
 39 31 l 1
 41 31 l 1
 41 29 l 1
41 33 m 1
 39 33 l 1
 39 35 l 1
 41 35 l 1
 41 33 l 1
43 33 m 1
 42 33 l 1
 42 35 l 1
 44 35 l 1
 44 34 l 1
 43 34 l 1
 43 33 l 1
46 33 m 1
 44 33 l 1
 44 34 l 1
 45 34 l 1
 45 35 l 1
 46 35 l 1
 46 33 l 1
55 29 m 1
 53 29 l 1
 53 31 l 1
 55 31 l 1
 55 29 l 1
49 33 m 1
 47 33 l 1
 47 35 l 1
 49 35 l 1
 49 33 l 1
55 33 m 1
 53 33 l 1
 53 35 l 1
 55 35 l 1
 55 33 l 1
41 41 m 1
 39 41 l 1
 39 43 l 1
 41 43 l 1
 41 41 l 1
44 41 m 1
 42 41 l 1
 42 43 l 1
 43 43 l 1
 43 42 l 1
 44 42 l 1
 44 41 l 1
46 41 m 1
 45 41 l 1
 45 42 l 1
 44 42 l 1
 44 43 l 1
 46 43 l 1
 46 41 l 1
49 37 m 1
 47 37 l 1
 47 39 l 1
 49 39 l 1
 49 37 l 1
49 41 m 1
 47 41 l 1
 47 43 l 1
 49 43 l 1
 49 41 l 1
55 41 m 1
 53 41 l 1
 53 43 l 1
 55 43 l 1
 55 41 l 1
57 33 m 1
 56 33 l 1
 56 35 l 1
 58 35 l 1
 58 34 l 1
 57 34 l 1
 57 33 l 1
60 33 m 1
 58 33 l 1
 58 34 l 1
 59 34 l 1
 59 35 l 1
 60 35 l 1
 60 33 l 1
63 33 m 1
 61 33 l 1
 61 35 l 1
 63 35 l 1
 63 33 l 1
63 37 m 1
 61 37 l 1
 61 39 l 1
 63 39 l 1
 63 37 l 1
58 41 m 1
 56 41 l 1
 56 43 l 1
 57 43 l 1
 57 42 l 1
 58 42 l 1
 58 41 l 1
60 41 m 1
 59 41 l 1
 59 42 l 1
 58 42 l 1
 58 43 l 1
 60 43 l 1
 60 41 l 1
63 41 m 1
 61 41 l 1
 61 43 l 1
 63 43 l 1
 63 41 l 1
EndSplineSet
Ligature2: "'liga' Standard Ligatures in Latin lookup 0-1" five five zero zero five
LCarets2: 1 0
EndChar

StartChar: custom_5_5_0_0_6
Encoding: 16762 -1 16517
Width: 70
Flags: H
LayerCount: 2
Fore
SplineSet
17 25 m 1
 15 25 l 1
 15 27 l 1
 17 27 l 1
 17 25 l 1
23 25 m 1
 21 25 l 1
 21 27 l 1
 23 27 l 1
 23 25 l 1
26 25 m 1
 24 25 l 1
 24 27 l 1
 25 27 l 1
 25 26 l 1
 26 26 l 1
 26 25 l 1
28 25 m 1
 27 25 l 1
 27 26 l 1
 26 26 l 1
 26 27 l 1
 28 27 l 1
 28 25 l 1
31 25 m 1
 29 25 l 1
 29 27 l 1
 31 27 l 1
 31 25 l 1
17 29 m 1
 15 29 l 1
 15 31 l 1
 17 31 l 1
 17 29 l 1
17 33 m 1
 15 33 l 1
 15 35 l 1
 17 35 l 1
 17 33 l 1
23 33 m 1
 21 33 l 1
 21 35 l 1
 23 35 l 1
 23 33 l 1
17 37 m 1
 15 37 l 1
 15 39 l 1
 17 39 l 1
 17 37 l 1
23 37 m 1
 21 37 l 1
 21 39 l 1
 23 39 l 1
 23 37 l 1
17 41 m 1
 15 41 l 1
 15 43 l 1
 17 43 l 1
 17 41 l 1
23 41 m 1
 21 41 l 1
 21 43 l 1
 23 43 l 1
 23 41 l 1
31 29 m 1
 29 29 l 1
 29 31 l 1
 31 31 l 1
 31 29 l 1
25 33 m 1
 24 33 l 1
 24 35 l 1
 26 35 l 1
 26 34 l 1
 25 34 l 1
 25 33 l 1
28 33 m 1
 26 33 l 1
 26 34 l 1
 27 34 l 1
 27 35 l 1
 28 35 l 1
 28 33 l 1
31 33 m 1
 29 33 l 1
 29 35 l 1
 31 35 l 1
 31 33 l 1
36 31 m 1
 34 31 l 1
 34 33 l 1
 36 33 l 1
 36 31 l 1
26 41 m 1
 24 41 l 1
 24 43 l 1
 25 43 l 1
 25 42 l 1
 26 42 l 1
 26 41 l 1
28 41 m 1
 27 41 l 1
 27 42 l 1
 26 42 l 1
 26 43 l 1
 28 43 l 1
 28 41 l 1
31 41 m 1
 29 41 l 1
 29 43 l 1
 31 43 l 1
 31 41 l 1
36 35 m 1
 34 35 l 1
 34 37 l 1
 36 37 l 1
 36 35 l 1
41 25 m 1
 39 25 l 1
 39 27 l 1
 41 27 l 1
 41 25 l 1
44 25 m 1
 42 25 l 1
 42 27 l 1
 43 27 l 1
 43 26 l 1
 44 26 l 1
 44 25 l 1
46 25 m 1
 45 25 l 1
 45 26 l 1
 44 26 l 1
 44 27 l 1
 46 27 l 1
 46 25 l 1
49 25 m 1
 47 25 l 1
 47 27 l 1
 49 27 l 1
 49 25 l 1
55 25 m 1
 53 25 l 1
 53 27 l 1
 55 27 l 1
 55 25 l 1
58 25 m 1
 56 25 l 1
 56 27 l 1
 57 27 l 1
 57 26 l 1
 58 26 l 1
 58 25 l 1
60 25 m 1
 59 25 l 1
 59 26 l 1
 58 26 l 1
 58 27 l 1
 60 27 l 1
 60 25 l 1
63 25 m 1
 61 25 l 1
 61 27 l 1
 63 27 l 1
 63 25 l 1
41 29 m 1
 39 29 l 1
 39 31 l 1
 41 31 l 1
 41 29 l 1
41 33 m 1
 39 33 l 1
 39 35 l 1
 41 35 l 1
 41 33 l 1
43 33 m 1
 42 33 l 1
 42 35 l 1
 44 35 l 1
 44 34 l 1
 43 34 l 1
 43 33 l 1
46 33 m 1
 44 33 l 1
 44 34 l 1
 45 34 l 1
 45 35 l 1
 46 35 l 1
 46 33 l 1
55 29 m 1
 53 29 l 1
 53 31 l 1
 55 31 l 1
 55 29 l 1
49 33 m 1
 47 33 l 1
 47 35 l 1
 49 35 l 1
 49 33 l 1
55 33 m 1
 53 33 l 1
 53 35 l 1
 55 35 l 1
 55 33 l 1
41 41 m 1
 39 41 l 1
 39 43 l 1
 41 43 l 1
 41 41 l 1
44 41 m 1
 42 41 l 1
 42 43 l 1
 43 43 l 1
 43 42 l 1
 44 42 l 1
 44 41 l 1
46 41 m 1
 45 41 l 1
 45 42 l 1
 44 42 l 1
 44 43 l 1
 46 43 l 1
 46 41 l 1
49 37 m 1
 47 37 l 1
 47 39 l 1
 49 39 l 1
 49 37 l 1
49 41 m 1
 47 41 l 1
 47 43 l 1
 49 43 l 1
 49 41 l 1
55 41 m 1
 53 41 l 1
 53 43 l 1
 55 43 l 1
 55 41 l 1
57 33 m 1
 56 33 l 1
 56 35 l 1
 58 35 l 1
 58 34 l 1
 57 34 l 1
 57 33 l 1
60 33 m 1
 58 33 l 1
 58 34 l 1
 59 34 l 1
 59 35 l 1
 60 35 l 1
 60 33 l 1
63 33 m 1
 61 33 l 1
 61 35 l 1
 63 35 l 1
 63 33 l 1
63 37 m 1
 61 37 l 1
 61 39 l 1
 63 39 l 1
 63 37 l 1
58 41 m 1
 56 41 l 1
 56 43 l 1
 57 43 l 1
 57 42 l 1
 58 42 l 1
 58 41 l 1
60 41 m 1
 59 41 l 1
 59 42 l 1
 58 42 l 1
 58 43 l 1
 60 43 l 1
 60 41 l 1
63 41 m 1
 61 41 l 1
 61 43 l 1
 63 43 l 1
 63 41 l 1
EndSplineSet
Ligature2: "'liga' Standard Ligatures in Latin lookup 0-1" five five zero zero six
LCarets2: 1 0
EndChar

StartChar: custom_5_5_0_0_7
Encoding: 16763 -1 16518
Width: 70
Flags: H
LayerCount: 2
Fore
SplineSet
17 25 m 1
 15 25 l 1
 15 27 l 1
 17 27 l 1
 17 25 l 1
23 25 m 1
 21 25 l 1
 21 27 l 1
 23 27 l 1
 23 25 l 1
26 25 m 1
 24 25 l 1
 24 27 l 1
 25 27 l 1
 25 26 l 1
 26 26 l 1
 26 25 l 1
28 25 m 1
 27 25 l 1
 27 26 l 1
 26 26 l 1
 26 27 l 1
 28 27 l 1
 28 25 l 1
31 25 m 1
 29 25 l 1
 29 27 l 1
 31 27 l 1
 31 25 l 1
17 29 m 1
 15 29 l 1
 15 31 l 1
 17 31 l 1
 17 29 l 1
17 33 m 1
 15 33 l 1
 15 35 l 1
 17 35 l 1
 17 33 l 1
23 33 m 1
 21 33 l 1
 21 35 l 1
 23 35 l 1
 23 33 l 1
17 37 m 1
 15 37 l 1
 15 39 l 1
 17 39 l 1
 17 37 l 1
23 37 m 1
 21 37 l 1
 21 39 l 1
 23 39 l 1
 23 37 l 1
17 41 m 1
 15 41 l 1
 15 43 l 1
 17 43 l 1
 17 41 l 1
23 41 m 1
 21 41 l 1
 21 43 l 1
 23 43 l 1
 23 41 l 1
31 29 m 1
 29 29 l 1
 29 31 l 1
 31 31 l 1
 31 29 l 1
25 33 m 1
 24 33 l 1
 24 35 l 1
 26 35 l 1
 26 34 l 1
 25 34 l 1
 25 33 l 1
28 33 m 1
 26 33 l 1
 26 34 l 1
 27 34 l 1
 27 35 l 1
 28 35 l 1
 28 33 l 1
31 33 m 1
 29 33 l 1
 29 35 l 1
 31 35 l 1
 31 33 l 1
36 31 m 1
 34 31 l 1
 34 33 l 1
 36 33 l 1
 36 31 l 1
26 41 m 1
 24 41 l 1
 24 43 l 1
 25 43 l 1
 25 42 l 1
 26 42 l 1
 26 41 l 1
28 41 m 1
 27 41 l 1
 27 42 l 1
 26 42 l 1
 26 43 l 1
 28 43 l 1
 28 41 l 1
31 41 m 1
 29 41 l 1
 29 43 l 1
 31 43 l 1
 31 41 l 1
36 35 m 1
 34 35 l 1
 34 37 l 1
 36 37 l 1
 36 35 l 1
41 25 m 1
 39 25 l 1
 39 27 l 1
 41 27 l 1
 41 25 l 1
44 25 m 1
 42 25 l 1
 42 27 l 1
 43 27 l 1
 43 26 l 1
 44 26 l 1
 44 25 l 1
46 25 m 1
 45 25 l 1
 45 26 l 1
 44 26 l 1
 44 27 l 1
 46 27 l 1
 46 25 l 1
49 25 m 1
 47 25 l 1
 47 27 l 1
 49 27 l 1
 49 25 l 1
55 25 m 1
 53 25 l 1
 53 27 l 1
 55 27 l 1
 55 25 l 1
58 25 m 1
 56 25 l 1
 56 27 l 1
 57 27 l 1
 57 26 l 1
 58 26 l 1
 58 25 l 1
60 25 m 1
 59 25 l 1
 59 26 l 1
 58 26 l 1
 58 27 l 1
 60 27 l 1
 60 25 l 1
63 25 m 1
 61 25 l 1
 61 27 l 1
 63 27 l 1
 63 25 l 1
41 29 m 1
 39 29 l 1
 39 31 l 1
 41 31 l 1
 41 29 l 1
41 33 m 1
 39 33 l 1
 39 35 l 1
 41 35 l 1
 41 33 l 1
43 33 m 1
 42 33 l 1
 42 35 l 1
 44 35 l 1
 44 34 l 1
 43 34 l 1
 43 33 l 1
46 33 m 1
 44 33 l 1
 44 34 l 1
 45 34 l 1
 45 35 l 1
 46 35 l 1
 46 33 l 1
55 29 m 1
 53 29 l 1
 53 31 l 1
 55 31 l 1
 55 29 l 1
49 33 m 1
 47 33 l 1
 47 35 l 1
 49 35 l 1
 49 33 l 1
55 33 m 1
 53 33 l 1
 53 35 l 1
 55 35 l 1
 55 33 l 1
41 41 m 1
 39 41 l 1
 39 43 l 1
 41 43 l 1
 41 41 l 1
44 41 m 1
 42 41 l 1
 42 43 l 1
 43 43 l 1
 43 42 l 1
 44 42 l 1
 44 41 l 1
46 41 m 1
 45 41 l 1
 45 42 l 1
 44 42 l 1
 44 43 l 1
 46 43 l 1
 46 41 l 1
49 37 m 1
 47 37 l 1
 47 39 l 1
 49 39 l 1
 49 37 l 1
49 41 m 1
 47 41 l 1
 47 43 l 1
 49 43 l 1
 49 41 l 1
55 41 m 1
 53 41 l 1
 53 43 l 1
 55 43 l 1
 55 41 l 1
57 33 m 1
 56 33 l 1
 56 35 l 1
 58 35 l 1
 58 34 l 1
 57 34 l 1
 57 33 l 1
60 33 m 1
 58 33 l 1
 58 34 l 1
 59 34 l 1
 59 35 l 1
 60 35 l 1
 60 33 l 1
63 33 m 1
 61 33 l 1
 61 35 l 1
 63 35 l 1
 63 33 l 1
63 37 m 1
 61 37 l 1
 61 39 l 1
 63 39 l 1
 63 37 l 1
58 41 m 1
 56 41 l 1
 56 43 l 1
 57 43 l 1
 57 42 l 1
 58 42 l 1
 58 41 l 1
60 41 m 1
 59 41 l 1
 59 42 l 1
 58 42 l 1
 58 43 l 1
 60 43 l 1
 60 41 l 1
63 41 m 1
 61 41 l 1
 61 43 l 1
 63 43 l 1
 63 41 l 1
EndSplineSet
Ligature2: "'liga' Standard Ligatures in Latin lookup 0-1" five five zero zero seven
LCarets2: 1 0
EndChar

StartChar: custom_5_5_0_0_8
Encoding: 16764 -1 16519
Width: 70
Flags: H
LayerCount: 2
Fore
SplineSet
17 25 m 1
 15 25 l 1
 15 27 l 1
 17 27 l 1
 17 25 l 1
23 25 m 1
 21 25 l 1
 21 27 l 1
 23 27 l 1
 23 25 l 1
26 25 m 1
 24 25 l 1
 24 27 l 1
 25 27 l 1
 25 26 l 1
 26 26 l 1
 26 25 l 1
28 25 m 1
 27 25 l 1
 27 26 l 1
 26 26 l 1
 26 27 l 1
 28 27 l 1
 28 25 l 1
31 25 m 1
 29 25 l 1
 29 27 l 1
 31 27 l 1
 31 25 l 1
17 29 m 1
 15 29 l 1
 15 31 l 1
 17 31 l 1
 17 29 l 1
17 33 m 1
 15 33 l 1
 15 35 l 1
 17 35 l 1
 17 33 l 1
23 33 m 1
 21 33 l 1
 21 35 l 1
 23 35 l 1
 23 33 l 1
17 37 m 1
 15 37 l 1
 15 39 l 1
 17 39 l 1
 17 37 l 1
23 37 m 1
 21 37 l 1
 21 39 l 1
 23 39 l 1
 23 37 l 1
17 41 m 1
 15 41 l 1
 15 43 l 1
 17 43 l 1
 17 41 l 1
23 41 m 1
 21 41 l 1
 21 43 l 1
 23 43 l 1
 23 41 l 1
31 29 m 1
 29 29 l 1
 29 31 l 1
 31 31 l 1
 31 29 l 1
25 33 m 1
 24 33 l 1
 24 35 l 1
 26 35 l 1
 26 34 l 1
 25 34 l 1
 25 33 l 1
28 33 m 1
 26 33 l 1
 26 34 l 1
 27 34 l 1
 27 35 l 1
 28 35 l 1
 28 33 l 1
31 33 m 1
 29 33 l 1
 29 35 l 1
 31 35 l 1
 31 33 l 1
36 31 m 1
 34 31 l 1
 34 33 l 1
 36 33 l 1
 36 31 l 1
26 41 m 1
 24 41 l 1
 24 43 l 1
 25 43 l 1
 25 42 l 1
 26 42 l 1
 26 41 l 1
28 41 m 1
 27 41 l 1
 27 42 l 1
 26 42 l 1
 26 43 l 1
 28 43 l 1
 28 41 l 1
31 41 m 1
 29 41 l 1
 29 43 l 1
 31 43 l 1
 31 41 l 1
36 35 m 1
 34 35 l 1
 34 37 l 1
 36 37 l 1
 36 35 l 1
41 25 m 1
 39 25 l 1
 39 27 l 1
 41 27 l 1
 41 25 l 1
44 25 m 1
 42 25 l 1
 42 27 l 1
 43 27 l 1
 43 26 l 1
 44 26 l 1
 44 25 l 1
46 25 m 1
 45 25 l 1
 45 26 l 1
 44 26 l 1
 44 27 l 1
 46 27 l 1
 46 25 l 1
49 25 m 1
 47 25 l 1
 47 27 l 1
 49 27 l 1
 49 25 l 1
55 25 m 1
 53 25 l 1
 53 27 l 1
 55 27 l 1
 55 25 l 1
58 25 m 1
 56 25 l 1
 56 27 l 1
 57 27 l 1
 57 26 l 1
 58 26 l 1
 58 25 l 1
60 25 m 1
 59 25 l 1
 59 26 l 1
 58 26 l 1
 58 27 l 1
 60 27 l 1
 60 25 l 1
63 25 m 1
 61 25 l 1
 61 27 l 1
 63 27 l 1
 63 25 l 1
41 29 m 1
 39 29 l 1
 39 31 l 1
 41 31 l 1
 41 29 l 1
41 33 m 1
 39 33 l 1
 39 35 l 1
 41 35 l 1
 41 33 l 1
43 33 m 1
 42 33 l 1
 42 35 l 1
 44 35 l 1
 44 34 l 1
 43 34 l 1
 43 33 l 1
46 33 m 1
 44 33 l 1
 44 34 l 1
 45 34 l 1
 45 35 l 1
 46 35 l 1
 46 33 l 1
55 29 m 1
 53 29 l 1
 53 31 l 1
 55 31 l 1
 55 29 l 1
49 33 m 1
 47 33 l 1
 47 35 l 1
 49 35 l 1
 49 33 l 1
55 33 m 1
 53 33 l 1
 53 35 l 1
 55 35 l 1
 55 33 l 1
41 41 m 1
 39 41 l 1
 39 43 l 1
 41 43 l 1
 41 41 l 1
44 41 m 1
 42 41 l 1
 42 43 l 1
 43 43 l 1
 43 42 l 1
 44 42 l 1
 44 41 l 1
46 41 m 1
 45 41 l 1
 45 42 l 1
 44 42 l 1
 44 43 l 1
 46 43 l 1
 46 41 l 1
49 37 m 1
 47 37 l 1
 47 39 l 1
 49 39 l 1
 49 37 l 1
49 41 m 1
 47 41 l 1
 47 43 l 1
 49 43 l 1
 49 41 l 1
55 41 m 1
 53 41 l 1
 53 43 l 1
 55 43 l 1
 55 41 l 1
57 33 m 1
 56 33 l 1
 56 35 l 1
 58 35 l 1
 58 34 l 1
 57 34 l 1
 57 33 l 1
60 33 m 1
 58 33 l 1
 58 34 l 1
 59 34 l 1
 59 35 l 1
 60 35 l 1
 60 33 l 1
63 33 m 1
 61 33 l 1
 61 35 l 1
 63 35 l 1
 63 33 l 1
63 37 m 1
 61 37 l 1
 61 39 l 1
 63 39 l 1
 63 37 l 1
58 41 m 1
 56 41 l 1
 56 43 l 1
 57 43 l 1
 57 42 l 1
 58 42 l 1
 58 41 l 1
60 41 m 1
 59 41 l 1
 59 42 l 1
 58 42 l 1
 58 43 l 1
 60 43 l 1
 60 41 l 1
63 41 m 1
 61 41 l 1
 61 43 l 1
 63 43 l 1
 63 41 l 1
EndSplineSet
Ligature2: "'liga' Standard Ligatures in Latin lookup 0-1" five five zero zero eight
LCarets2: 1 0
EndChar

StartChar: custom_5_5_0_0_9
Encoding: 16765 -1 16520
Width: 70
Flags: H
LayerCount: 2
Fore
SplineSet
17 25 m 1
 15 25 l 1
 15 27 l 1
 17 27 l 1
 17 25 l 1
23 25 m 1
 21 25 l 1
 21 27 l 1
 23 27 l 1
 23 25 l 1
26 25 m 1
 24 25 l 1
 24 27 l 1
 25 27 l 1
 25 26 l 1
 26 26 l 1
 26 25 l 1
28 25 m 1
 27 25 l 1
 27 26 l 1
 26 26 l 1
 26 27 l 1
 28 27 l 1
 28 25 l 1
31 25 m 1
 29 25 l 1
 29 27 l 1
 31 27 l 1
 31 25 l 1
17 29 m 1
 15 29 l 1
 15 31 l 1
 17 31 l 1
 17 29 l 1
17 33 m 1
 15 33 l 1
 15 35 l 1
 17 35 l 1
 17 33 l 1
23 33 m 1
 21 33 l 1
 21 35 l 1
 23 35 l 1
 23 33 l 1
17 37 m 1
 15 37 l 1
 15 39 l 1
 17 39 l 1
 17 37 l 1
23 37 m 1
 21 37 l 1
 21 39 l 1
 23 39 l 1
 23 37 l 1
17 41 m 1
 15 41 l 1
 15 43 l 1
 17 43 l 1
 17 41 l 1
23 41 m 1
 21 41 l 1
 21 43 l 1
 23 43 l 1
 23 41 l 1
31 29 m 1
 29 29 l 1
 29 31 l 1
 31 31 l 1
 31 29 l 1
25 33 m 1
 24 33 l 1
 24 35 l 1
 26 35 l 1
 26 34 l 1
 25 34 l 1
 25 33 l 1
28 33 m 1
 26 33 l 1
 26 34 l 1
 27 34 l 1
 27 35 l 1
 28 35 l 1
 28 33 l 1
31 33 m 1
 29 33 l 1
 29 35 l 1
 31 35 l 1
 31 33 l 1
36 31 m 1
 34 31 l 1
 34 33 l 1
 36 33 l 1
 36 31 l 1
26 41 m 1
 24 41 l 1
 24 43 l 1
 25 43 l 1
 25 42 l 1
 26 42 l 1
 26 41 l 1
28 41 m 1
 27 41 l 1
 27 42 l 1
 26 42 l 1
 26 43 l 1
 28 43 l 1
 28 41 l 1
31 41 m 1
 29 41 l 1
 29 43 l 1
 31 43 l 1
 31 41 l 1
36 35 m 1
 34 35 l 1
 34 37 l 1
 36 37 l 1
 36 35 l 1
41 25 m 1
 39 25 l 1
 39 27 l 1
 41 27 l 1
 41 25 l 1
44 25 m 1
 42 25 l 1
 42 27 l 1
 43 27 l 1
 43 26 l 1
 44 26 l 1
 44 25 l 1
46 25 m 1
 45 25 l 1
 45 26 l 1
 44 26 l 1
 44 27 l 1
 46 27 l 1
 46 25 l 1
49 25 m 1
 47 25 l 1
 47 27 l 1
 49 27 l 1
 49 25 l 1
55 25 m 1
 53 25 l 1
 53 27 l 1
 55 27 l 1
 55 25 l 1
58 25 m 1
 56 25 l 1
 56 27 l 1
 57 27 l 1
 57 26 l 1
 58 26 l 1
 58 25 l 1
60 25 m 1
 59 25 l 1
 59 26 l 1
 58 26 l 1
 58 27 l 1
 60 27 l 1
 60 25 l 1
63 25 m 1
 61 25 l 1
 61 27 l 1
 63 27 l 1
 63 25 l 1
41 29 m 1
 39 29 l 1
 39 31 l 1
 41 31 l 1
 41 29 l 1
41 33 m 1
 39 33 l 1
 39 35 l 1
 41 35 l 1
 41 33 l 1
43 33 m 1
 42 33 l 1
 42 35 l 1
 44 35 l 1
 44 34 l 1
 43 34 l 1
 43 33 l 1
46 33 m 1
 44 33 l 1
 44 34 l 1
 45 34 l 1
 45 35 l 1
 46 35 l 1
 46 33 l 1
55 29 m 1
 53 29 l 1
 53 31 l 1
 55 31 l 1
 55 29 l 1
49 33 m 1
 47 33 l 1
 47 35 l 1
 49 35 l 1
 49 33 l 1
55 33 m 1
 53 33 l 1
 53 35 l 1
 55 35 l 1
 55 33 l 1
41 41 m 1
 39 41 l 1
 39 43 l 1
 41 43 l 1
 41 41 l 1
44 41 m 1
 42 41 l 1
 42 43 l 1
 43 43 l 1
 43 42 l 1
 44 42 l 1
 44 41 l 1
46 41 m 1
 45 41 l 1
 45 42 l 1
 44 42 l 1
 44 43 l 1
 46 43 l 1
 46 41 l 1
49 37 m 1
 47 37 l 1
 47 39 l 1
 49 39 l 1
 49 37 l 1
49 41 m 1
 47 41 l 1
 47 43 l 1
 49 43 l 1
 49 41 l 1
55 41 m 1
 53 41 l 1
 53 43 l 1
 55 43 l 1
 55 41 l 1
57 33 m 1
 56 33 l 1
 56 35 l 1
 58 35 l 1
 58 34 l 1
 57 34 l 1
 57 33 l 1
60 33 m 1
 58 33 l 1
 58 34 l 1
 59 34 l 1
 59 35 l 1
 60 35 l 1
 60 33 l 1
63 33 m 1
 61 33 l 1
 61 35 l 1
 63 35 l 1
 63 33 l 1
63 37 m 1
 61 37 l 1
 61 39 l 1
 63 39 l 1
 63 37 l 1
58 41 m 1
 56 41 l 1
 56 43 l 1
 57 43 l 1
 57 42 l 1
 58 42 l 1
 58 41 l 1
60 41 m 1
 59 41 l 1
 59 42 l 1
 58 42 l 1
 58 43 l 1
 60 43 l 1
 60 41 l 1
63 41 m 1
 61 41 l 1
 61 43 l 1
 63 43 l 1
 63 41 l 1
EndSplineSet
Ligature2: "'liga' Standard Ligatures in Latin lookup 0-1" five five zero zero nine
LCarets2: 1 0
EndChar

StartChar: custom_5_5_0_1_0
Encoding: 16766 -1 16521
Width: 70
Flags: H
LayerCount: 2
Fore
SplineSet
17 25 m 1
 15 25 l 1
 15 27 l 1
 17 27 l 1
 17 25 l 1
23 25 m 1
 21 25 l 1
 21 27 l 1
 23 27 l 1
 23 25 l 1
26 25 m 1
 24 25 l 1
 24 27 l 1
 25 27 l 1
 25 26 l 1
 26 26 l 1
 26 25 l 1
28 25 m 1
 27 25 l 1
 27 26 l 1
 26 26 l 1
 26 27 l 1
 28 27 l 1
 28 25 l 1
31 25 m 1
 29 25 l 1
 29 27 l 1
 31 27 l 1
 31 25 l 1
17 29 m 1
 15 29 l 1
 15 31 l 1
 17 31 l 1
 17 29 l 1
17 33 m 1
 15 33 l 1
 15 35 l 1
 17 35 l 1
 17 33 l 1
23 33 m 1
 21 33 l 1
 21 35 l 1
 23 35 l 1
 23 33 l 1
17 37 m 1
 15 37 l 1
 15 39 l 1
 17 39 l 1
 17 37 l 1
23 37 m 1
 21 37 l 1
 21 39 l 1
 23 39 l 1
 23 37 l 1
17 41 m 1
 15 41 l 1
 15 43 l 1
 17 43 l 1
 17 41 l 1
23 41 m 1
 21 41 l 1
 21 43 l 1
 23 43 l 1
 23 41 l 1
31 29 m 1
 29 29 l 1
 29 31 l 1
 31 31 l 1
 31 29 l 1
25 33 m 1
 24 33 l 1
 24 35 l 1
 26 35 l 1
 26 34 l 1
 25 34 l 1
 25 33 l 1
28 33 m 1
 26 33 l 1
 26 34 l 1
 27 34 l 1
 27 35 l 1
 28 35 l 1
 28 33 l 1
31 33 m 1
 29 33 l 1
 29 35 l 1
 31 35 l 1
 31 33 l 1
36 31 m 1
 34 31 l 1
 34 33 l 1
 36 33 l 1
 36 31 l 1
26 41 m 1
 24 41 l 1
 24 43 l 1
 25 43 l 1
 25 42 l 1
 26 42 l 1
 26 41 l 1
28 41 m 1
 27 41 l 1
 27 42 l 1
 26 42 l 1
 26 43 l 1
 28 43 l 1
 28 41 l 1
31 41 m 1
 29 41 l 1
 29 43 l 1
 31 43 l 1
 31 41 l 1
36 35 m 1
 34 35 l 1
 34 37 l 1
 36 37 l 1
 36 35 l 1
41 25 m 1
 39 25 l 1
 39 27 l 1
 41 27 l 1
 41 25 l 1
44 25 m 1
 42 25 l 1
 42 27 l 1
 43 27 l 1
 43 26 l 1
 44 26 l 1
 44 25 l 1
46 25 m 1
 45 25 l 1
 45 26 l 1
 44 26 l 1
 44 27 l 1
 46 27 l 1
 46 25 l 1
49 25 m 1
 47 25 l 1
 47 27 l 1
 49 27 l 1
 49 25 l 1
55 25 m 1
 53 25 l 1
 53 27 l 1
 55 27 l 1
 55 25 l 1
58 25 m 1
 56 25 l 1
 56 27 l 1
 57 27 l 1
 57 26 l 1
 58 26 l 1
 58 25 l 1
60 25 m 1
 59 25 l 1
 59 26 l 1
 58 26 l 1
 58 27 l 1
 60 27 l 1
 60 25 l 1
63 25 m 1
 61 25 l 1
 61 27 l 1
 63 27 l 1
 63 25 l 1
41 29 m 1
 39 29 l 1
 39 31 l 1
 41 31 l 1
 41 29 l 1
41 33 m 1
 39 33 l 1
 39 35 l 1
 41 35 l 1
 41 33 l 1
43 33 m 1
 42 33 l 1
 42 35 l 1
 44 35 l 1
 44 34 l 1
 43 34 l 1
 43 33 l 1
46 33 m 1
 44 33 l 1
 44 34 l 1
 45 34 l 1
 45 35 l 1
 46 35 l 1
 46 33 l 1
55 29 m 1
 53 29 l 1
 53 31 l 1
 55 31 l 1
 55 29 l 1
49 33 m 1
 47 33 l 1
 47 35 l 1
 49 35 l 1
 49 33 l 1
55 33 m 1
 53 33 l 1
 53 35 l 1
 55 35 l 1
 55 33 l 1
41 41 m 1
 39 41 l 1
 39 43 l 1
 41 43 l 1
 41 41 l 1
44 41 m 1
 42 41 l 1
 42 43 l 1
 43 43 l 1
 43 42 l 1
 44 42 l 1
 44 41 l 1
46 41 m 1
 45 41 l 1
 45 42 l 1
 44 42 l 1
 44 43 l 1
 46 43 l 1
 46 41 l 1
49 37 m 1
 47 37 l 1
 47 39 l 1
 49 39 l 1
 49 37 l 1
49 41 m 1
 47 41 l 1
 47 43 l 1
 49 43 l 1
 49 41 l 1
55 41 m 1
 53 41 l 1
 53 43 l 1
 55 43 l 1
 55 41 l 1
57 33 m 1
 56 33 l 1
 56 35 l 1
 58 35 l 1
 58 34 l 1
 57 34 l 1
 57 33 l 1
60 33 m 1
 58 33 l 1
 58 34 l 1
 59 34 l 1
 59 35 l 1
 60 35 l 1
 60 33 l 1
63 33 m 1
 61 33 l 1
 61 35 l 1
 63 35 l 1
 63 33 l 1
63 37 m 1
 61 37 l 1
 61 39 l 1
 63 39 l 1
 63 37 l 1
58 41 m 1
 56 41 l 1
 56 43 l 1
 57 43 l 1
 57 42 l 1
 58 42 l 1
 58 41 l 1
60 41 m 1
 59 41 l 1
 59 42 l 1
 58 42 l 1
 58 43 l 1
 60 43 l 1
 60 41 l 1
63 41 m 1
 61 41 l 1
 61 43 l 1
 63 43 l 1
 63 41 l 1
EndSplineSet
Ligature2: "'liga' Standard Ligatures in Latin lookup 0-1" five five zero one zero
LCarets2: 1 0
EndChar

StartChar: custom_5_5_0_1_1
Encoding: 16767 -1 16522
Width: 70
Flags: H
LayerCount: 2
Fore
SplineSet
17 25 m 1
 15 25 l 1
 15 27 l 1
 17 27 l 1
 17 25 l 1
23 25 m 1
 21 25 l 1
 21 27 l 1
 23 27 l 1
 23 25 l 1
26 25 m 1
 24 25 l 1
 24 27 l 1
 25 27 l 1
 25 26 l 1
 26 26 l 1
 26 25 l 1
28 25 m 1
 27 25 l 1
 27 26 l 1
 26 26 l 1
 26 27 l 1
 28 27 l 1
 28 25 l 1
31 25 m 1
 29 25 l 1
 29 27 l 1
 31 27 l 1
 31 25 l 1
17 29 m 1
 15 29 l 1
 15 31 l 1
 17 31 l 1
 17 29 l 1
17 33 m 1
 15 33 l 1
 15 35 l 1
 17 35 l 1
 17 33 l 1
23 33 m 1
 21 33 l 1
 21 35 l 1
 23 35 l 1
 23 33 l 1
17 37 m 1
 15 37 l 1
 15 39 l 1
 17 39 l 1
 17 37 l 1
23 37 m 1
 21 37 l 1
 21 39 l 1
 23 39 l 1
 23 37 l 1
17 41 m 1
 15 41 l 1
 15 43 l 1
 17 43 l 1
 17 41 l 1
23 41 m 1
 21 41 l 1
 21 43 l 1
 23 43 l 1
 23 41 l 1
31 29 m 1
 29 29 l 1
 29 31 l 1
 31 31 l 1
 31 29 l 1
25 33 m 1
 24 33 l 1
 24 35 l 1
 26 35 l 1
 26 34 l 1
 25 34 l 1
 25 33 l 1
28 33 m 1
 26 33 l 1
 26 34 l 1
 27 34 l 1
 27 35 l 1
 28 35 l 1
 28 33 l 1
31 33 m 1
 29 33 l 1
 29 35 l 1
 31 35 l 1
 31 33 l 1
36 31 m 1
 34 31 l 1
 34 33 l 1
 36 33 l 1
 36 31 l 1
26 41 m 1
 24 41 l 1
 24 43 l 1
 25 43 l 1
 25 42 l 1
 26 42 l 1
 26 41 l 1
28 41 m 1
 27 41 l 1
 27 42 l 1
 26 42 l 1
 26 43 l 1
 28 43 l 1
 28 41 l 1
31 41 m 1
 29 41 l 1
 29 43 l 1
 31 43 l 1
 31 41 l 1
36 35 m 1
 34 35 l 1
 34 37 l 1
 36 37 l 1
 36 35 l 1
41 25 m 1
 39 25 l 1
 39 27 l 1
 41 27 l 1
 41 25 l 1
44 25 m 1
 42 25 l 1
 42 27 l 1
 43 27 l 1
 43 26 l 1
 44 26 l 1
 44 25 l 1
46 25 m 1
 45 25 l 1
 45 26 l 1
 44 26 l 1
 44 27 l 1
 46 27 l 1
 46 25 l 1
49 25 m 1
 47 25 l 1
 47 27 l 1
 49 27 l 1
 49 25 l 1
55 25 m 1
 53 25 l 1
 53 27 l 1
 55 27 l 1
 55 25 l 1
58 25 m 1
 56 25 l 1
 56 27 l 1
 57 27 l 1
 57 26 l 1
 58 26 l 1
 58 25 l 1
60 25 m 1
 59 25 l 1
 59 26 l 1
 58 26 l 1
 58 27 l 1
 60 27 l 1
 60 25 l 1
63 25 m 1
 61 25 l 1
 61 27 l 1
 63 27 l 1
 63 25 l 1
41 29 m 1
 39 29 l 1
 39 31 l 1
 41 31 l 1
 41 29 l 1
41 33 m 1
 39 33 l 1
 39 35 l 1
 41 35 l 1
 41 33 l 1
43 33 m 1
 42 33 l 1
 42 35 l 1
 44 35 l 1
 44 34 l 1
 43 34 l 1
 43 33 l 1
46 33 m 1
 44 33 l 1
 44 34 l 1
 45 34 l 1
 45 35 l 1
 46 35 l 1
 46 33 l 1
55 29 m 1
 53 29 l 1
 53 31 l 1
 55 31 l 1
 55 29 l 1
49 33 m 1
 47 33 l 1
 47 35 l 1
 49 35 l 1
 49 33 l 1
55 33 m 1
 53 33 l 1
 53 35 l 1
 55 35 l 1
 55 33 l 1
41 41 m 1
 39 41 l 1
 39 43 l 1
 41 43 l 1
 41 41 l 1
44 41 m 1
 42 41 l 1
 42 43 l 1
 43 43 l 1
 43 42 l 1
 44 42 l 1
 44 41 l 1
46 41 m 1
 45 41 l 1
 45 42 l 1
 44 42 l 1
 44 43 l 1
 46 43 l 1
 46 41 l 1
49 37 m 1
 47 37 l 1
 47 39 l 1
 49 39 l 1
 49 37 l 1
49 41 m 1
 47 41 l 1
 47 43 l 1
 49 43 l 1
 49 41 l 1
55 41 m 1
 53 41 l 1
 53 43 l 1
 55 43 l 1
 55 41 l 1
57 33 m 1
 56 33 l 1
 56 35 l 1
 58 35 l 1
 58 34 l 1
 57 34 l 1
 57 33 l 1
60 33 m 1
 58 33 l 1
 58 34 l 1
 59 34 l 1
 59 35 l 1
 60 35 l 1
 60 33 l 1
63 33 m 1
 61 33 l 1
 61 35 l 1
 63 35 l 1
 63 33 l 1
63 37 m 1
 61 37 l 1
 61 39 l 1
 63 39 l 1
 63 37 l 1
58 41 m 1
 56 41 l 1
 56 43 l 1
 57 43 l 1
 57 42 l 1
 58 42 l 1
 58 41 l 1
60 41 m 1
 59 41 l 1
 59 42 l 1
 58 42 l 1
 58 43 l 1
 60 43 l 1
 60 41 l 1
63 41 m 1
 61 41 l 1
 61 43 l 1
 63 43 l 1
 63 41 l 1
EndSplineSet
Ligature2: "'liga' Standard Ligatures in Latin lookup 0-1" five five zero one one
LCarets2: 1 0
EndChar

StartChar: custom_5_5_0_1_2
Encoding: 16768 -1 16523
Width: 70
Flags: H
LayerCount: 2
Fore
SplineSet
17 25 m 1
 15 25 l 1
 15 27 l 1
 17 27 l 1
 17 25 l 1
23 25 m 1
 21 25 l 1
 21 27 l 1
 23 27 l 1
 23 25 l 1
26 25 m 1
 24 25 l 1
 24 27 l 1
 25 27 l 1
 25 26 l 1
 26 26 l 1
 26 25 l 1
28 25 m 1
 27 25 l 1
 27 26 l 1
 26 26 l 1
 26 27 l 1
 28 27 l 1
 28 25 l 1
31 25 m 1
 29 25 l 1
 29 27 l 1
 31 27 l 1
 31 25 l 1
17 29 m 1
 15 29 l 1
 15 31 l 1
 17 31 l 1
 17 29 l 1
17 33 m 1
 15 33 l 1
 15 35 l 1
 17 35 l 1
 17 33 l 1
23 33 m 1
 21 33 l 1
 21 35 l 1
 23 35 l 1
 23 33 l 1
17 37 m 1
 15 37 l 1
 15 39 l 1
 17 39 l 1
 17 37 l 1
23 37 m 1
 21 37 l 1
 21 39 l 1
 23 39 l 1
 23 37 l 1
17 41 m 1
 15 41 l 1
 15 43 l 1
 17 43 l 1
 17 41 l 1
23 41 m 1
 21 41 l 1
 21 43 l 1
 23 43 l 1
 23 41 l 1
31 29 m 1
 29 29 l 1
 29 31 l 1
 31 31 l 1
 31 29 l 1
25 33 m 1
 24 33 l 1
 24 35 l 1
 26 35 l 1
 26 34 l 1
 25 34 l 1
 25 33 l 1
28 33 m 1
 26 33 l 1
 26 34 l 1
 27 34 l 1
 27 35 l 1
 28 35 l 1
 28 33 l 1
31 33 m 1
 29 33 l 1
 29 35 l 1
 31 35 l 1
 31 33 l 1
36 31 m 1
 34 31 l 1
 34 33 l 1
 36 33 l 1
 36 31 l 1
26 41 m 1
 24 41 l 1
 24 43 l 1
 25 43 l 1
 25 42 l 1
 26 42 l 1
 26 41 l 1
28 41 m 1
 27 41 l 1
 27 42 l 1
 26 42 l 1
 26 43 l 1
 28 43 l 1
 28 41 l 1
31 41 m 1
 29 41 l 1
 29 43 l 1
 31 43 l 1
 31 41 l 1
36 35 m 1
 34 35 l 1
 34 37 l 1
 36 37 l 1
 36 35 l 1
41 25 m 1
 39 25 l 1
 39 27 l 1
 41 27 l 1
 41 25 l 1
44 25 m 1
 42 25 l 1
 42 27 l 1
 43 27 l 1
 43 26 l 1
 44 26 l 1
 44 25 l 1
46 25 m 1
 45 25 l 1
 45 26 l 1
 44 26 l 1
 44 27 l 1
 46 27 l 1
 46 25 l 1
49 25 m 1
 47 25 l 1
 47 27 l 1
 49 27 l 1
 49 25 l 1
55 25 m 1
 53 25 l 1
 53 27 l 1
 55 27 l 1
 55 25 l 1
58 25 m 1
 56 25 l 1
 56 27 l 1
 57 27 l 1
 57 26 l 1
 58 26 l 1
 58 25 l 1
60 25 m 1
 59 25 l 1
 59 26 l 1
 58 26 l 1
 58 27 l 1
 60 27 l 1
 60 25 l 1
63 25 m 1
 61 25 l 1
 61 27 l 1
 63 27 l 1
 63 25 l 1
41 29 m 1
 39 29 l 1
 39 31 l 1
 41 31 l 1
 41 29 l 1
41 33 m 1
 39 33 l 1
 39 35 l 1
 41 35 l 1
 41 33 l 1
43 33 m 1
 42 33 l 1
 42 35 l 1
 44 35 l 1
 44 34 l 1
 43 34 l 1
 43 33 l 1
46 33 m 1
 44 33 l 1
 44 34 l 1
 45 34 l 1
 45 35 l 1
 46 35 l 1
 46 33 l 1
55 29 m 1
 53 29 l 1
 53 31 l 1
 55 31 l 1
 55 29 l 1
49 33 m 1
 47 33 l 1
 47 35 l 1
 49 35 l 1
 49 33 l 1
55 33 m 1
 53 33 l 1
 53 35 l 1
 55 35 l 1
 55 33 l 1
41 41 m 1
 39 41 l 1
 39 43 l 1
 41 43 l 1
 41 41 l 1
44 41 m 1
 42 41 l 1
 42 43 l 1
 43 43 l 1
 43 42 l 1
 44 42 l 1
 44 41 l 1
46 41 m 1
 45 41 l 1
 45 42 l 1
 44 42 l 1
 44 43 l 1
 46 43 l 1
 46 41 l 1
49 37 m 1
 47 37 l 1
 47 39 l 1
 49 39 l 1
 49 37 l 1
49 41 m 1
 47 41 l 1
 47 43 l 1
 49 43 l 1
 49 41 l 1
55 41 m 1
 53 41 l 1
 53 43 l 1
 55 43 l 1
 55 41 l 1
57 33 m 1
 56 33 l 1
 56 35 l 1
 58 35 l 1
 58 34 l 1
 57 34 l 1
 57 33 l 1
60 33 m 1
 58 33 l 1
 58 34 l 1
 59 34 l 1
 59 35 l 1
 60 35 l 1
 60 33 l 1
63 33 m 1
 61 33 l 1
 61 35 l 1
 63 35 l 1
 63 33 l 1
63 37 m 1
 61 37 l 1
 61 39 l 1
 63 39 l 1
 63 37 l 1
58 41 m 1
 56 41 l 1
 56 43 l 1
 57 43 l 1
 57 42 l 1
 58 42 l 1
 58 41 l 1
60 41 m 1
 59 41 l 1
 59 42 l 1
 58 42 l 1
 58 43 l 1
 60 43 l 1
 60 41 l 1
63 41 m 1
 61 41 l 1
 61 43 l 1
 63 43 l 1
 63 41 l 1
EndSplineSet
Ligature2: "'liga' Standard Ligatures in Latin lookup 0-1" five five zero one two
LCarets2: 1 0
EndChar

StartChar: custom_5_5_0_1_3
Encoding: 16769 -1 16524
Width: 70
Flags: H
LayerCount: 2
Fore
SplineSet
17 25 m 1
 15 25 l 1
 15 27 l 1
 17 27 l 1
 17 25 l 1
23 25 m 1
 21 25 l 1
 21 27 l 1
 23 27 l 1
 23 25 l 1
26 25 m 1
 24 25 l 1
 24 27 l 1
 25 27 l 1
 25 26 l 1
 26 26 l 1
 26 25 l 1
28 25 m 1
 27 25 l 1
 27 26 l 1
 26 26 l 1
 26 27 l 1
 28 27 l 1
 28 25 l 1
31 25 m 1
 29 25 l 1
 29 27 l 1
 31 27 l 1
 31 25 l 1
17 29 m 1
 15 29 l 1
 15 31 l 1
 17 31 l 1
 17 29 l 1
17 33 m 1
 15 33 l 1
 15 35 l 1
 17 35 l 1
 17 33 l 1
23 33 m 1
 21 33 l 1
 21 35 l 1
 23 35 l 1
 23 33 l 1
17 37 m 1
 15 37 l 1
 15 39 l 1
 17 39 l 1
 17 37 l 1
23 37 m 1
 21 37 l 1
 21 39 l 1
 23 39 l 1
 23 37 l 1
17 41 m 1
 15 41 l 1
 15 43 l 1
 17 43 l 1
 17 41 l 1
23 41 m 1
 21 41 l 1
 21 43 l 1
 23 43 l 1
 23 41 l 1
31 29 m 1
 29 29 l 1
 29 31 l 1
 31 31 l 1
 31 29 l 1
25 33 m 1
 24 33 l 1
 24 35 l 1
 26 35 l 1
 26 34 l 1
 25 34 l 1
 25 33 l 1
28 33 m 1
 26 33 l 1
 26 34 l 1
 27 34 l 1
 27 35 l 1
 28 35 l 1
 28 33 l 1
31 33 m 1
 29 33 l 1
 29 35 l 1
 31 35 l 1
 31 33 l 1
36 31 m 1
 34 31 l 1
 34 33 l 1
 36 33 l 1
 36 31 l 1
26 41 m 1
 24 41 l 1
 24 43 l 1
 25 43 l 1
 25 42 l 1
 26 42 l 1
 26 41 l 1
28 41 m 1
 27 41 l 1
 27 42 l 1
 26 42 l 1
 26 43 l 1
 28 43 l 1
 28 41 l 1
31 41 m 1
 29 41 l 1
 29 43 l 1
 31 43 l 1
 31 41 l 1
36 35 m 1
 34 35 l 1
 34 37 l 1
 36 37 l 1
 36 35 l 1
41 25 m 1
 39 25 l 1
 39 27 l 1
 41 27 l 1
 41 25 l 1
44 25 m 1
 42 25 l 1
 42 27 l 1
 43 27 l 1
 43 26 l 1
 44 26 l 1
 44 25 l 1
46 25 m 1
 45 25 l 1
 45 26 l 1
 44 26 l 1
 44 27 l 1
 46 27 l 1
 46 25 l 1
49 25 m 1
 47 25 l 1
 47 27 l 1
 49 27 l 1
 49 25 l 1
55 25 m 1
 53 25 l 1
 53 27 l 1
 55 27 l 1
 55 25 l 1
58 25 m 1
 56 25 l 1
 56 27 l 1
 57 27 l 1
 57 26 l 1
 58 26 l 1
 58 25 l 1
60 25 m 1
 59 25 l 1
 59 26 l 1
 58 26 l 1
 58 27 l 1
 60 27 l 1
 60 25 l 1
63 25 m 1
 61 25 l 1
 61 27 l 1
 63 27 l 1
 63 25 l 1
41 29 m 1
 39 29 l 1
 39 31 l 1
 41 31 l 1
 41 29 l 1
41 33 m 1
 39 33 l 1
 39 35 l 1
 41 35 l 1
 41 33 l 1
43 33 m 1
 42 33 l 1
 42 35 l 1
 44 35 l 1
 44 34 l 1
 43 34 l 1
 43 33 l 1
46 33 m 1
 44 33 l 1
 44 34 l 1
 45 34 l 1
 45 35 l 1
 46 35 l 1
 46 33 l 1
55 29 m 1
 53 29 l 1
 53 31 l 1
 55 31 l 1
 55 29 l 1
49 33 m 1
 47 33 l 1
 47 35 l 1
 49 35 l 1
 49 33 l 1
55 33 m 1
 53 33 l 1
 53 35 l 1
 55 35 l 1
 55 33 l 1
41 41 m 1
 39 41 l 1
 39 43 l 1
 41 43 l 1
 41 41 l 1
44 41 m 1
 42 41 l 1
 42 43 l 1
 43 43 l 1
 43 42 l 1
 44 42 l 1
 44 41 l 1
46 41 m 1
 45 41 l 1
 45 42 l 1
 44 42 l 1
 44 43 l 1
 46 43 l 1
 46 41 l 1
49 37 m 1
 47 37 l 1
 47 39 l 1
 49 39 l 1
 49 37 l 1
49 41 m 1
 47 41 l 1
 47 43 l 1
 49 43 l 1
 49 41 l 1
55 41 m 1
 53 41 l 1
 53 43 l 1
 55 43 l 1
 55 41 l 1
57 33 m 1
 56 33 l 1
 56 35 l 1
 58 35 l 1
 58 34 l 1
 57 34 l 1
 57 33 l 1
60 33 m 1
 58 33 l 1
 58 34 l 1
 59 34 l 1
 59 35 l 1
 60 35 l 1
 60 33 l 1
63 33 m 1
 61 33 l 1
 61 35 l 1
 63 35 l 1
 63 33 l 1
63 37 m 1
 61 37 l 1
 61 39 l 1
 63 39 l 1
 63 37 l 1
58 41 m 1
 56 41 l 1
 56 43 l 1
 57 43 l 1
 57 42 l 1
 58 42 l 1
 58 41 l 1
60 41 m 1
 59 41 l 1
 59 42 l 1
 58 42 l 1
 58 43 l 1
 60 43 l 1
 60 41 l 1
63 41 m 1
 61 41 l 1
 61 43 l 1
 63 43 l 1
 63 41 l 1
EndSplineSet
Ligature2: "'liga' Standard Ligatures in Latin lookup 0-1" five five zero one three
LCarets2: 1 0
EndChar

StartChar: custom_5_5_0_1_4
Encoding: 16770 -1 16525
Width: 70
Flags: H
LayerCount: 2
Fore
SplineSet
17 25 m 1
 15 25 l 1
 15 27 l 1
 17 27 l 1
 17 25 l 1
23 25 m 1
 21 25 l 1
 21 27 l 1
 23 27 l 1
 23 25 l 1
26 25 m 1
 24 25 l 1
 24 27 l 1
 25 27 l 1
 25 26 l 1
 26 26 l 1
 26 25 l 1
28 25 m 1
 27 25 l 1
 27 26 l 1
 26 26 l 1
 26 27 l 1
 28 27 l 1
 28 25 l 1
31 25 m 1
 29 25 l 1
 29 27 l 1
 31 27 l 1
 31 25 l 1
17 29 m 1
 15 29 l 1
 15 31 l 1
 17 31 l 1
 17 29 l 1
17 33 m 1
 15 33 l 1
 15 35 l 1
 17 35 l 1
 17 33 l 1
23 33 m 1
 21 33 l 1
 21 35 l 1
 23 35 l 1
 23 33 l 1
17 37 m 1
 15 37 l 1
 15 39 l 1
 17 39 l 1
 17 37 l 1
23 37 m 1
 21 37 l 1
 21 39 l 1
 23 39 l 1
 23 37 l 1
17 41 m 1
 15 41 l 1
 15 43 l 1
 17 43 l 1
 17 41 l 1
23 41 m 1
 21 41 l 1
 21 43 l 1
 23 43 l 1
 23 41 l 1
31 29 m 1
 29 29 l 1
 29 31 l 1
 31 31 l 1
 31 29 l 1
25 33 m 1
 24 33 l 1
 24 35 l 1
 26 35 l 1
 26 34 l 1
 25 34 l 1
 25 33 l 1
28 33 m 1
 26 33 l 1
 26 34 l 1
 27 34 l 1
 27 35 l 1
 28 35 l 1
 28 33 l 1
31 33 m 1
 29 33 l 1
 29 35 l 1
 31 35 l 1
 31 33 l 1
36 31 m 1
 34 31 l 1
 34 33 l 1
 36 33 l 1
 36 31 l 1
26 41 m 1
 24 41 l 1
 24 43 l 1
 25 43 l 1
 25 42 l 1
 26 42 l 1
 26 41 l 1
28 41 m 1
 27 41 l 1
 27 42 l 1
 26 42 l 1
 26 43 l 1
 28 43 l 1
 28 41 l 1
31 41 m 1
 29 41 l 1
 29 43 l 1
 31 43 l 1
 31 41 l 1
36 35 m 1
 34 35 l 1
 34 37 l 1
 36 37 l 1
 36 35 l 1
41 25 m 1
 39 25 l 1
 39 27 l 1
 41 27 l 1
 41 25 l 1
44 25 m 1
 42 25 l 1
 42 27 l 1
 43 27 l 1
 43 26 l 1
 44 26 l 1
 44 25 l 1
46 25 m 1
 45 25 l 1
 45 26 l 1
 44 26 l 1
 44 27 l 1
 46 27 l 1
 46 25 l 1
49 25 m 1
 47 25 l 1
 47 27 l 1
 49 27 l 1
 49 25 l 1
55 25 m 1
 53 25 l 1
 53 27 l 1
 55 27 l 1
 55 25 l 1
58 25 m 1
 56 25 l 1
 56 27 l 1
 57 27 l 1
 57 26 l 1
 58 26 l 1
 58 25 l 1
60 25 m 1
 59 25 l 1
 59 26 l 1
 58 26 l 1
 58 27 l 1
 60 27 l 1
 60 25 l 1
63 25 m 1
 61 25 l 1
 61 27 l 1
 63 27 l 1
 63 25 l 1
41 29 m 1
 39 29 l 1
 39 31 l 1
 41 31 l 1
 41 29 l 1
41 33 m 1
 39 33 l 1
 39 35 l 1
 41 35 l 1
 41 33 l 1
43 33 m 1
 42 33 l 1
 42 35 l 1
 44 35 l 1
 44 34 l 1
 43 34 l 1
 43 33 l 1
46 33 m 1
 44 33 l 1
 44 34 l 1
 45 34 l 1
 45 35 l 1
 46 35 l 1
 46 33 l 1
55 29 m 1
 53 29 l 1
 53 31 l 1
 55 31 l 1
 55 29 l 1
49 33 m 1
 47 33 l 1
 47 35 l 1
 49 35 l 1
 49 33 l 1
55 33 m 1
 53 33 l 1
 53 35 l 1
 55 35 l 1
 55 33 l 1
41 41 m 1
 39 41 l 1
 39 43 l 1
 41 43 l 1
 41 41 l 1
44 41 m 1
 42 41 l 1
 42 43 l 1
 43 43 l 1
 43 42 l 1
 44 42 l 1
 44 41 l 1
46 41 m 1
 45 41 l 1
 45 42 l 1
 44 42 l 1
 44 43 l 1
 46 43 l 1
 46 41 l 1
49 37 m 1
 47 37 l 1
 47 39 l 1
 49 39 l 1
 49 37 l 1
49 41 m 1
 47 41 l 1
 47 43 l 1
 49 43 l 1
 49 41 l 1
55 41 m 1
 53 41 l 1
 53 43 l 1
 55 43 l 1
 55 41 l 1
57 33 m 1
 56 33 l 1
 56 35 l 1
 58 35 l 1
 58 34 l 1
 57 34 l 1
 57 33 l 1
60 33 m 1
 58 33 l 1
 58 34 l 1
 59 34 l 1
 59 35 l 1
 60 35 l 1
 60 33 l 1
63 33 m 1
 61 33 l 1
 61 35 l 1
 63 35 l 1
 63 33 l 1
63 37 m 1
 61 37 l 1
 61 39 l 1
 63 39 l 1
 63 37 l 1
58 41 m 1
 56 41 l 1
 56 43 l 1
 57 43 l 1
 57 42 l 1
 58 42 l 1
 58 41 l 1
60 41 m 1
 59 41 l 1
 59 42 l 1
 58 42 l 1
 58 43 l 1
 60 43 l 1
 60 41 l 1
63 41 m 1
 61 41 l 1
 61 43 l 1
 63 43 l 1
 63 41 l 1
EndSplineSet
Ligature2: "'liga' Standard Ligatures in Latin lookup 0-1" five five zero one four
LCarets2: 1 0
EndChar

StartChar: custom_5_5_0_1_5
Encoding: 16771 -1 16526
Width: 70
Flags: H
LayerCount: 2
Fore
SplineSet
17 25 m 1
 15 25 l 1
 15 27 l 1
 17 27 l 1
 17 25 l 1
23 25 m 1
 21 25 l 1
 21 27 l 1
 23 27 l 1
 23 25 l 1
26 25 m 1
 24 25 l 1
 24 27 l 1
 25 27 l 1
 25 26 l 1
 26 26 l 1
 26 25 l 1
28 25 m 1
 27 25 l 1
 27 26 l 1
 26 26 l 1
 26 27 l 1
 28 27 l 1
 28 25 l 1
31 25 m 1
 29 25 l 1
 29 27 l 1
 31 27 l 1
 31 25 l 1
17 29 m 1
 15 29 l 1
 15 31 l 1
 17 31 l 1
 17 29 l 1
17 33 m 1
 15 33 l 1
 15 35 l 1
 17 35 l 1
 17 33 l 1
23 33 m 1
 21 33 l 1
 21 35 l 1
 23 35 l 1
 23 33 l 1
17 37 m 1
 15 37 l 1
 15 39 l 1
 17 39 l 1
 17 37 l 1
23 37 m 1
 21 37 l 1
 21 39 l 1
 23 39 l 1
 23 37 l 1
17 41 m 1
 15 41 l 1
 15 43 l 1
 17 43 l 1
 17 41 l 1
23 41 m 1
 21 41 l 1
 21 43 l 1
 23 43 l 1
 23 41 l 1
31 29 m 1
 29 29 l 1
 29 31 l 1
 31 31 l 1
 31 29 l 1
25 33 m 1
 24 33 l 1
 24 35 l 1
 26 35 l 1
 26 34 l 1
 25 34 l 1
 25 33 l 1
28 33 m 1
 26 33 l 1
 26 34 l 1
 27 34 l 1
 27 35 l 1
 28 35 l 1
 28 33 l 1
31 33 m 1
 29 33 l 1
 29 35 l 1
 31 35 l 1
 31 33 l 1
36 31 m 1
 34 31 l 1
 34 33 l 1
 36 33 l 1
 36 31 l 1
26 41 m 1
 24 41 l 1
 24 43 l 1
 25 43 l 1
 25 42 l 1
 26 42 l 1
 26 41 l 1
28 41 m 1
 27 41 l 1
 27 42 l 1
 26 42 l 1
 26 43 l 1
 28 43 l 1
 28 41 l 1
31 41 m 1
 29 41 l 1
 29 43 l 1
 31 43 l 1
 31 41 l 1
36 35 m 1
 34 35 l 1
 34 37 l 1
 36 37 l 1
 36 35 l 1
41 25 m 1
 39 25 l 1
 39 27 l 1
 41 27 l 1
 41 25 l 1
44 25 m 1
 42 25 l 1
 42 27 l 1
 43 27 l 1
 43 26 l 1
 44 26 l 1
 44 25 l 1
46 25 m 1
 45 25 l 1
 45 26 l 1
 44 26 l 1
 44 27 l 1
 46 27 l 1
 46 25 l 1
49 25 m 1
 47 25 l 1
 47 27 l 1
 49 27 l 1
 49 25 l 1
55 25 m 1
 53 25 l 1
 53 27 l 1
 55 27 l 1
 55 25 l 1
58 25 m 1
 56 25 l 1
 56 27 l 1
 57 27 l 1
 57 26 l 1
 58 26 l 1
 58 25 l 1
60 25 m 1
 59 25 l 1
 59 26 l 1
 58 26 l 1
 58 27 l 1
 60 27 l 1
 60 25 l 1
63 25 m 1
 61 25 l 1
 61 27 l 1
 63 27 l 1
 63 25 l 1
41 29 m 1
 39 29 l 1
 39 31 l 1
 41 31 l 1
 41 29 l 1
41 33 m 1
 39 33 l 1
 39 35 l 1
 41 35 l 1
 41 33 l 1
43 33 m 1
 42 33 l 1
 42 35 l 1
 44 35 l 1
 44 34 l 1
 43 34 l 1
 43 33 l 1
46 33 m 1
 44 33 l 1
 44 34 l 1
 45 34 l 1
 45 35 l 1
 46 35 l 1
 46 33 l 1
55 29 m 1
 53 29 l 1
 53 31 l 1
 55 31 l 1
 55 29 l 1
49 33 m 1
 47 33 l 1
 47 35 l 1
 49 35 l 1
 49 33 l 1
55 33 m 1
 53 33 l 1
 53 35 l 1
 55 35 l 1
 55 33 l 1
41 41 m 1
 39 41 l 1
 39 43 l 1
 41 43 l 1
 41 41 l 1
44 41 m 1
 42 41 l 1
 42 43 l 1
 43 43 l 1
 43 42 l 1
 44 42 l 1
 44 41 l 1
46 41 m 1
 45 41 l 1
 45 42 l 1
 44 42 l 1
 44 43 l 1
 46 43 l 1
 46 41 l 1
49 37 m 1
 47 37 l 1
 47 39 l 1
 49 39 l 1
 49 37 l 1
49 41 m 1
 47 41 l 1
 47 43 l 1
 49 43 l 1
 49 41 l 1
55 41 m 1
 53 41 l 1
 53 43 l 1
 55 43 l 1
 55 41 l 1
57 33 m 1
 56 33 l 1
 56 35 l 1
 58 35 l 1
 58 34 l 1
 57 34 l 1
 57 33 l 1
60 33 m 1
 58 33 l 1
 58 34 l 1
 59 34 l 1
 59 35 l 1
 60 35 l 1
 60 33 l 1
63 33 m 1
 61 33 l 1
 61 35 l 1
 63 35 l 1
 63 33 l 1
63 37 m 1
 61 37 l 1
 61 39 l 1
 63 39 l 1
 63 37 l 1
58 41 m 1
 56 41 l 1
 56 43 l 1
 57 43 l 1
 57 42 l 1
 58 42 l 1
 58 41 l 1
60 41 m 1
 59 41 l 1
 59 42 l 1
 58 42 l 1
 58 43 l 1
 60 43 l 1
 60 41 l 1
63 41 m 1
 61 41 l 1
 61 43 l 1
 63 43 l 1
 63 41 l 1
EndSplineSet
Ligature2: "'liga' Standard Ligatures in Latin lookup 0-1" five five zero one five
LCarets2: 1 0
EndChar

StartChar: custom_5_5_0_1_6
Encoding: 16772 -1 16527
Width: 70
Flags: H
LayerCount: 2
Fore
SplineSet
17 25 m 1
 15 25 l 1
 15 27 l 1
 17 27 l 1
 17 25 l 1
23 25 m 1
 21 25 l 1
 21 27 l 1
 23 27 l 1
 23 25 l 1
26 25 m 1
 24 25 l 1
 24 27 l 1
 25 27 l 1
 25 26 l 1
 26 26 l 1
 26 25 l 1
28 25 m 1
 27 25 l 1
 27 26 l 1
 26 26 l 1
 26 27 l 1
 28 27 l 1
 28 25 l 1
31 25 m 1
 29 25 l 1
 29 27 l 1
 31 27 l 1
 31 25 l 1
17 29 m 1
 15 29 l 1
 15 31 l 1
 17 31 l 1
 17 29 l 1
17 33 m 1
 15 33 l 1
 15 35 l 1
 17 35 l 1
 17 33 l 1
23 33 m 1
 21 33 l 1
 21 35 l 1
 23 35 l 1
 23 33 l 1
17 37 m 1
 15 37 l 1
 15 39 l 1
 17 39 l 1
 17 37 l 1
23 37 m 1
 21 37 l 1
 21 39 l 1
 23 39 l 1
 23 37 l 1
17 41 m 1
 15 41 l 1
 15 43 l 1
 17 43 l 1
 17 41 l 1
23 41 m 1
 21 41 l 1
 21 43 l 1
 23 43 l 1
 23 41 l 1
31 29 m 1
 29 29 l 1
 29 31 l 1
 31 31 l 1
 31 29 l 1
25 33 m 1
 24 33 l 1
 24 35 l 1
 26 35 l 1
 26 34 l 1
 25 34 l 1
 25 33 l 1
28 33 m 1
 26 33 l 1
 26 34 l 1
 27 34 l 1
 27 35 l 1
 28 35 l 1
 28 33 l 1
31 33 m 1
 29 33 l 1
 29 35 l 1
 31 35 l 1
 31 33 l 1
36 31 m 1
 34 31 l 1
 34 33 l 1
 36 33 l 1
 36 31 l 1
26 41 m 1
 24 41 l 1
 24 43 l 1
 25 43 l 1
 25 42 l 1
 26 42 l 1
 26 41 l 1
28 41 m 1
 27 41 l 1
 27 42 l 1
 26 42 l 1
 26 43 l 1
 28 43 l 1
 28 41 l 1
31 41 m 1
 29 41 l 1
 29 43 l 1
 31 43 l 1
 31 41 l 1
36 35 m 1
 34 35 l 1
 34 37 l 1
 36 37 l 1
 36 35 l 1
41 25 m 1
 39 25 l 1
 39 27 l 1
 41 27 l 1
 41 25 l 1
44 25 m 1
 42 25 l 1
 42 27 l 1
 43 27 l 1
 43 26 l 1
 44 26 l 1
 44 25 l 1
46 25 m 1
 45 25 l 1
 45 26 l 1
 44 26 l 1
 44 27 l 1
 46 27 l 1
 46 25 l 1
49 25 m 1
 47 25 l 1
 47 27 l 1
 49 27 l 1
 49 25 l 1
55 25 m 1
 53 25 l 1
 53 27 l 1
 55 27 l 1
 55 25 l 1
58 25 m 1
 56 25 l 1
 56 27 l 1
 57 27 l 1
 57 26 l 1
 58 26 l 1
 58 25 l 1
60 25 m 1
 59 25 l 1
 59 26 l 1
 58 26 l 1
 58 27 l 1
 60 27 l 1
 60 25 l 1
63 25 m 1
 61 25 l 1
 61 27 l 1
 63 27 l 1
 63 25 l 1
41 29 m 1
 39 29 l 1
 39 31 l 1
 41 31 l 1
 41 29 l 1
41 33 m 1
 39 33 l 1
 39 35 l 1
 41 35 l 1
 41 33 l 1
43 33 m 1
 42 33 l 1
 42 35 l 1
 44 35 l 1
 44 34 l 1
 43 34 l 1
 43 33 l 1
46 33 m 1
 44 33 l 1
 44 34 l 1
 45 34 l 1
 45 35 l 1
 46 35 l 1
 46 33 l 1
55 29 m 1
 53 29 l 1
 53 31 l 1
 55 31 l 1
 55 29 l 1
49 33 m 1
 47 33 l 1
 47 35 l 1
 49 35 l 1
 49 33 l 1
55 33 m 1
 53 33 l 1
 53 35 l 1
 55 35 l 1
 55 33 l 1
41 41 m 1
 39 41 l 1
 39 43 l 1
 41 43 l 1
 41 41 l 1
44 41 m 1
 42 41 l 1
 42 43 l 1
 43 43 l 1
 43 42 l 1
 44 42 l 1
 44 41 l 1
46 41 m 1
 45 41 l 1
 45 42 l 1
 44 42 l 1
 44 43 l 1
 46 43 l 1
 46 41 l 1
49 37 m 1
 47 37 l 1
 47 39 l 1
 49 39 l 1
 49 37 l 1
49 41 m 1
 47 41 l 1
 47 43 l 1
 49 43 l 1
 49 41 l 1
55 41 m 1
 53 41 l 1
 53 43 l 1
 55 43 l 1
 55 41 l 1
57 33 m 1
 56 33 l 1
 56 35 l 1
 58 35 l 1
 58 34 l 1
 57 34 l 1
 57 33 l 1
60 33 m 1
 58 33 l 1
 58 34 l 1
 59 34 l 1
 59 35 l 1
 60 35 l 1
 60 33 l 1
63 33 m 1
 61 33 l 1
 61 35 l 1
 63 35 l 1
 63 33 l 1
63 37 m 1
 61 37 l 1
 61 39 l 1
 63 39 l 1
 63 37 l 1
58 41 m 1
 56 41 l 1
 56 43 l 1
 57 43 l 1
 57 42 l 1
 58 42 l 1
 58 41 l 1
60 41 m 1
 59 41 l 1
 59 42 l 1
 58 42 l 1
 58 43 l 1
 60 43 l 1
 60 41 l 1
63 41 m 1
 61 41 l 1
 61 43 l 1
 63 43 l 1
 63 41 l 1
EndSplineSet
Ligature2: "'liga' Standard Ligatures in Latin lookup 0-1" five five zero one six
LCarets2: 1 0
EndChar

StartChar: custom_5_5_0_1_7
Encoding: 16773 -1 16528
Width: 70
Flags: H
LayerCount: 2
Fore
SplineSet
17 25 m 1
 15 25 l 1
 15 27 l 1
 17 27 l 1
 17 25 l 1
23 25 m 1
 21 25 l 1
 21 27 l 1
 23 27 l 1
 23 25 l 1
26 25 m 1
 24 25 l 1
 24 27 l 1
 25 27 l 1
 25 26 l 1
 26 26 l 1
 26 25 l 1
28 25 m 1
 27 25 l 1
 27 26 l 1
 26 26 l 1
 26 27 l 1
 28 27 l 1
 28 25 l 1
31 25 m 1
 29 25 l 1
 29 27 l 1
 31 27 l 1
 31 25 l 1
17 29 m 1
 15 29 l 1
 15 31 l 1
 17 31 l 1
 17 29 l 1
17 33 m 1
 15 33 l 1
 15 35 l 1
 17 35 l 1
 17 33 l 1
23 33 m 1
 21 33 l 1
 21 35 l 1
 23 35 l 1
 23 33 l 1
17 37 m 1
 15 37 l 1
 15 39 l 1
 17 39 l 1
 17 37 l 1
23 37 m 1
 21 37 l 1
 21 39 l 1
 23 39 l 1
 23 37 l 1
17 41 m 1
 15 41 l 1
 15 43 l 1
 17 43 l 1
 17 41 l 1
23 41 m 1
 21 41 l 1
 21 43 l 1
 23 43 l 1
 23 41 l 1
31 29 m 1
 29 29 l 1
 29 31 l 1
 31 31 l 1
 31 29 l 1
25 33 m 1
 24 33 l 1
 24 35 l 1
 26 35 l 1
 26 34 l 1
 25 34 l 1
 25 33 l 1
28 33 m 1
 26 33 l 1
 26 34 l 1
 27 34 l 1
 27 35 l 1
 28 35 l 1
 28 33 l 1
31 33 m 1
 29 33 l 1
 29 35 l 1
 31 35 l 1
 31 33 l 1
36 31 m 1
 34 31 l 1
 34 33 l 1
 36 33 l 1
 36 31 l 1
26 41 m 1
 24 41 l 1
 24 43 l 1
 25 43 l 1
 25 42 l 1
 26 42 l 1
 26 41 l 1
28 41 m 1
 27 41 l 1
 27 42 l 1
 26 42 l 1
 26 43 l 1
 28 43 l 1
 28 41 l 1
31 41 m 1
 29 41 l 1
 29 43 l 1
 31 43 l 1
 31 41 l 1
36 35 m 1
 34 35 l 1
 34 37 l 1
 36 37 l 1
 36 35 l 1
41 25 m 1
 39 25 l 1
 39 27 l 1
 41 27 l 1
 41 25 l 1
44 25 m 1
 42 25 l 1
 42 27 l 1
 43 27 l 1
 43 26 l 1
 44 26 l 1
 44 25 l 1
46 25 m 1
 45 25 l 1
 45 26 l 1
 44 26 l 1
 44 27 l 1
 46 27 l 1
 46 25 l 1
49 25 m 1
 47 25 l 1
 47 27 l 1
 49 27 l 1
 49 25 l 1
55 25 m 1
 53 25 l 1
 53 27 l 1
 55 27 l 1
 55 25 l 1
58 25 m 1
 56 25 l 1
 56 27 l 1
 57 27 l 1
 57 26 l 1
 58 26 l 1
 58 25 l 1
60 25 m 1
 59 25 l 1
 59 26 l 1
 58 26 l 1
 58 27 l 1
 60 27 l 1
 60 25 l 1
63 25 m 1
 61 25 l 1
 61 27 l 1
 63 27 l 1
 63 25 l 1
41 29 m 1
 39 29 l 1
 39 31 l 1
 41 31 l 1
 41 29 l 1
41 33 m 1
 39 33 l 1
 39 35 l 1
 41 35 l 1
 41 33 l 1
43 33 m 1
 42 33 l 1
 42 35 l 1
 44 35 l 1
 44 34 l 1
 43 34 l 1
 43 33 l 1
46 33 m 1
 44 33 l 1
 44 34 l 1
 45 34 l 1
 45 35 l 1
 46 35 l 1
 46 33 l 1
55 29 m 1
 53 29 l 1
 53 31 l 1
 55 31 l 1
 55 29 l 1
49 33 m 1
 47 33 l 1
 47 35 l 1
 49 35 l 1
 49 33 l 1
55 33 m 1
 53 33 l 1
 53 35 l 1
 55 35 l 1
 55 33 l 1
41 41 m 1
 39 41 l 1
 39 43 l 1
 41 43 l 1
 41 41 l 1
44 41 m 1
 42 41 l 1
 42 43 l 1
 43 43 l 1
 43 42 l 1
 44 42 l 1
 44 41 l 1
46 41 m 1
 45 41 l 1
 45 42 l 1
 44 42 l 1
 44 43 l 1
 46 43 l 1
 46 41 l 1
49 37 m 1
 47 37 l 1
 47 39 l 1
 49 39 l 1
 49 37 l 1
49 41 m 1
 47 41 l 1
 47 43 l 1
 49 43 l 1
 49 41 l 1
55 41 m 1
 53 41 l 1
 53 43 l 1
 55 43 l 1
 55 41 l 1
57 33 m 1
 56 33 l 1
 56 35 l 1
 58 35 l 1
 58 34 l 1
 57 34 l 1
 57 33 l 1
60 33 m 1
 58 33 l 1
 58 34 l 1
 59 34 l 1
 59 35 l 1
 60 35 l 1
 60 33 l 1
63 33 m 1
 61 33 l 1
 61 35 l 1
 63 35 l 1
 63 33 l 1
63 37 m 1
 61 37 l 1
 61 39 l 1
 63 39 l 1
 63 37 l 1
58 41 m 1
 56 41 l 1
 56 43 l 1
 57 43 l 1
 57 42 l 1
 58 42 l 1
 58 41 l 1
60 41 m 1
 59 41 l 1
 59 42 l 1
 58 42 l 1
 58 43 l 1
 60 43 l 1
 60 41 l 1
63 41 m 1
 61 41 l 1
 61 43 l 1
 63 43 l 1
 63 41 l 1
EndSplineSet
Ligature2: "'liga' Standard Ligatures in Latin lookup 0-1" five five zero one seven
LCarets2: 1 0
EndChar

StartChar: custom_5_5_0_1_8
Encoding: 16774 -1 16529
Width: 70
Flags: H
LayerCount: 2
Fore
SplineSet
17 25 m 1
 15 25 l 1
 15 27 l 1
 17 27 l 1
 17 25 l 1
23 25 m 1
 21 25 l 1
 21 27 l 1
 23 27 l 1
 23 25 l 1
26 25 m 1
 24 25 l 1
 24 27 l 1
 25 27 l 1
 25 26 l 1
 26 26 l 1
 26 25 l 1
28 25 m 1
 27 25 l 1
 27 26 l 1
 26 26 l 1
 26 27 l 1
 28 27 l 1
 28 25 l 1
31 25 m 1
 29 25 l 1
 29 27 l 1
 31 27 l 1
 31 25 l 1
17 29 m 1
 15 29 l 1
 15 31 l 1
 17 31 l 1
 17 29 l 1
17 33 m 1
 15 33 l 1
 15 35 l 1
 17 35 l 1
 17 33 l 1
23 33 m 1
 21 33 l 1
 21 35 l 1
 23 35 l 1
 23 33 l 1
17 37 m 1
 15 37 l 1
 15 39 l 1
 17 39 l 1
 17 37 l 1
23 37 m 1
 21 37 l 1
 21 39 l 1
 23 39 l 1
 23 37 l 1
17 41 m 1
 15 41 l 1
 15 43 l 1
 17 43 l 1
 17 41 l 1
23 41 m 1
 21 41 l 1
 21 43 l 1
 23 43 l 1
 23 41 l 1
31 29 m 1
 29 29 l 1
 29 31 l 1
 31 31 l 1
 31 29 l 1
25 33 m 1
 24 33 l 1
 24 35 l 1
 26 35 l 1
 26 34 l 1
 25 34 l 1
 25 33 l 1
28 33 m 1
 26 33 l 1
 26 34 l 1
 27 34 l 1
 27 35 l 1
 28 35 l 1
 28 33 l 1
31 33 m 1
 29 33 l 1
 29 35 l 1
 31 35 l 1
 31 33 l 1
36 31 m 1
 34 31 l 1
 34 33 l 1
 36 33 l 1
 36 31 l 1
26 41 m 1
 24 41 l 1
 24 43 l 1
 25 43 l 1
 25 42 l 1
 26 42 l 1
 26 41 l 1
28 41 m 1
 27 41 l 1
 27 42 l 1
 26 42 l 1
 26 43 l 1
 28 43 l 1
 28 41 l 1
31 41 m 1
 29 41 l 1
 29 43 l 1
 31 43 l 1
 31 41 l 1
36 35 m 1
 34 35 l 1
 34 37 l 1
 36 37 l 1
 36 35 l 1
41 25 m 1
 39 25 l 1
 39 27 l 1
 41 27 l 1
 41 25 l 1
44 25 m 1
 42 25 l 1
 42 27 l 1
 43 27 l 1
 43 26 l 1
 44 26 l 1
 44 25 l 1
46 25 m 1
 45 25 l 1
 45 26 l 1
 44 26 l 1
 44 27 l 1
 46 27 l 1
 46 25 l 1
49 25 m 1
 47 25 l 1
 47 27 l 1
 49 27 l 1
 49 25 l 1
55 25 m 1
 53 25 l 1
 53 27 l 1
 55 27 l 1
 55 25 l 1
58 25 m 1
 56 25 l 1
 56 27 l 1
 57 27 l 1
 57 26 l 1
 58 26 l 1
 58 25 l 1
60 25 m 1
 59 25 l 1
 59 26 l 1
 58 26 l 1
 58 27 l 1
 60 27 l 1
 60 25 l 1
63 25 m 1
 61 25 l 1
 61 27 l 1
 63 27 l 1
 63 25 l 1
41 29 m 1
 39 29 l 1
 39 31 l 1
 41 31 l 1
 41 29 l 1
41 33 m 1
 39 33 l 1
 39 35 l 1
 41 35 l 1
 41 33 l 1
43 33 m 1
 42 33 l 1
 42 35 l 1
 44 35 l 1
 44 34 l 1
 43 34 l 1
 43 33 l 1
46 33 m 1
 44 33 l 1
 44 34 l 1
 45 34 l 1
 45 35 l 1
 46 35 l 1
 46 33 l 1
55 29 m 1
 53 29 l 1
 53 31 l 1
 55 31 l 1
 55 29 l 1
49 33 m 1
 47 33 l 1
 47 35 l 1
 49 35 l 1
 49 33 l 1
55 33 m 1
 53 33 l 1
 53 35 l 1
 55 35 l 1
 55 33 l 1
41 41 m 1
 39 41 l 1
 39 43 l 1
 41 43 l 1
 41 41 l 1
44 41 m 1
 42 41 l 1
 42 43 l 1
 43 43 l 1
 43 42 l 1
 44 42 l 1
 44 41 l 1
46 41 m 1
 45 41 l 1
 45 42 l 1
 44 42 l 1
 44 43 l 1
 46 43 l 1
 46 41 l 1
49 37 m 1
 47 37 l 1
 47 39 l 1
 49 39 l 1
 49 37 l 1
49 41 m 1
 47 41 l 1
 47 43 l 1
 49 43 l 1
 49 41 l 1
55 41 m 1
 53 41 l 1
 53 43 l 1
 55 43 l 1
 55 41 l 1
57 33 m 1
 56 33 l 1
 56 35 l 1
 58 35 l 1
 58 34 l 1
 57 34 l 1
 57 33 l 1
60 33 m 1
 58 33 l 1
 58 34 l 1
 59 34 l 1
 59 35 l 1
 60 35 l 1
 60 33 l 1
63 33 m 1
 61 33 l 1
 61 35 l 1
 63 35 l 1
 63 33 l 1
63 37 m 1
 61 37 l 1
 61 39 l 1
 63 39 l 1
 63 37 l 1
58 41 m 1
 56 41 l 1
 56 43 l 1
 57 43 l 1
 57 42 l 1
 58 42 l 1
 58 41 l 1
60 41 m 1
 59 41 l 1
 59 42 l 1
 58 42 l 1
 58 43 l 1
 60 43 l 1
 60 41 l 1
63 41 m 1
 61 41 l 1
 61 43 l 1
 63 43 l 1
 63 41 l 1
EndSplineSet
Ligature2: "'liga' Standard Ligatures in Latin lookup 0-1" five five zero one eight
LCarets2: 1 0
EndChar

StartChar: custom_5_5_0_1_9
Encoding: 16775 -1 16530
Width: 70
Flags: H
LayerCount: 2
Fore
SplineSet
17 25 m 1
 15 25 l 1
 15 27 l 1
 17 27 l 1
 17 25 l 1
23 25 m 1
 21 25 l 1
 21 27 l 1
 23 27 l 1
 23 25 l 1
26 25 m 1
 24 25 l 1
 24 27 l 1
 25 27 l 1
 25 26 l 1
 26 26 l 1
 26 25 l 1
28 25 m 1
 27 25 l 1
 27 26 l 1
 26 26 l 1
 26 27 l 1
 28 27 l 1
 28 25 l 1
31 25 m 1
 29 25 l 1
 29 27 l 1
 31 27 l 1
 31 25 l 1
17 29 m 1
 15 29 l 1
 15 31 l 1
 17 31 l 1
 17 29 l 1
17 33 m 1
 15 33 l 1
 15 35 l 1
 17 35 l 1
 17 33 l 1
23 33 m 1
 21 33 l 1
 21 35 l 1
 23 35 l 1
 23 33 l 1
17 37 m 1
 15 37 l 1
 15 39 l 1
 17 39 l 1
 17 37 l 1
23 37 m 1
 21 37 l 1
 21 39 l 1
 23 39 l 1
 23 37 l 1
17 41 m 1
 15 41 l 1
 15 43 l 1
 17 43 l 1
 17 41 l 1
23 41 m 1
 21 41 l 1
 21 43 l 1
 23 43 l 1
 23 41 l 1
31 29 m 1
 29 29 l 1
 29 31 l 1
 31 31 l 1
 31 29 l 1
25 33 m 1
 24 33 l 1
 24 35 l 1
 26 35 l 1
 26 34 l 1
 25 34 l 1
 25 33 l 1
28 33 m 1
 26 33 l 1
 26 34 l 1
 27 34 l 1
 27 35 l 1
 28 35 l 1
 28 33 l 1
31 33 m 1
 29 33 l 1
 29 35 l 1
 31 35 l 1
 31 33 l 1
36 31 m 1
 34 31 l 1
 34 33 l 1
 36 33 l 1
 36 31 l 1
26 41 m 1
 24 41 l 1
 24 43 l 1
 25 43 l 1
 25 42 l 1
 26 42 l 1
 26 41 l 1
28 41 m 1
 27 41 l 1
 27 42 l 1
 26 42 l 1
 26 43 l 1
 28 43 l 1
 28 41 l 1
31 41 m 1
 29 41 l 1
 29 43 l 1
 31 43 l 1
 31 41 l 1
36 35 m 1
 34 35 l 1
 34 37 l 1
 36 37 l 1
 36 35 l 1
41 25 m 1
 39 25 l 1
 39 27 l 1
 41 27 l 1
 41 25 l 1
44 25 m 1
 42 25 l 1
 42 27 l 1
 43 27 l 1
 43 26 l 1
 44 26 l 1
 44 25 l 1
46 25 m 1
 45 25 l 1
 45 26 l 1
 44 26 l 1
 44 27 l 1
 46 27 l 1
 46 25 l 1
49 25 m 1
 47 25 l 1
 47 27 l 1
 49 27 l 1
 49 25 l 1
55 25 m 1
 53 25 l 1
 53 27 l 1
 55 27 l 1
 55 25 l 1
58 25 m 1
 56 25 l 1
 56 27 l 1
 57 27 l 1
 57 26 l 1
 58 26 l 1
 58 25 l 1
60 25 m 1
 59 25 l 1
 59 26 l 1
 58 26 l 1
 58 27 l 1
 60 27 l 1
 60 25 l 1
63 25 m 1
 61 25 l 1
 61 27 l 1
 63 27 l 1
 63 25 l 1
41 29 m 1
 39 29 l 1
 39 31 l 1
 41 31 l 1
 41 29 l 1
41 33 m 1
 39 33 l 1
 39 35 l 1
 41 35 l 1
 41 33 l 1
43 33 m 1
 42 33 l 1
 42 35 l 1
 44 35 l 1
 44 34 l 1
 43 34 l 1
 43 33 l 1
46 33 m 1
 44 33 l 1
 44 34 l 1
 45 34 l 1
 45 35 l 1
 46 35 l 1
 46 33 l 1
55 29 m 1
 53 29 l 1
 53 31 l 1
 55 31 l 1
 55 29 l 1
49 33 m 1
 47 33 l 1
 47 35 l 1
 49 35 l 1
 49 33 l 1
55 33 m 1
 53 33 l 1
 53 35 l 1
 55 35 l 1
 55 33 l 1
41 41 m 1
 39 41 l 1
 39 43 l 1
 41 43 l 1
 41 41 l 1
44 41 m 1
 42 41 l 1
 42 43 l 1
 43 43 l 1
 43 42 l 1
 44 42 l 1
 44 41 l 1
46 41 m 1
 45 41 l 1
 45 42 l 1
 44 42 l 1
 44 43 l 1
 46 43 l 1
 46 41 l 1
49 37 m 1
 47 37 l 1
 47 39 l 1
 49 39 l 1
 49 37 l 1
49 41 m 1
 47 41 l 1
 47 43 l 1
 49 43 l 1
 49 41 l 1
55 41 m 1
 53 41 l 1
 53 43 l 1
 55 43 l 1
 55 41 l 1
57 33 m 1
 56 33 l 1
 56 35 l 1
 58 35 l 1
 58 34 l 1
 57 34 l 1
 57 33 l 1
60 33 m 1
 58 33 l 1
 58 34 l 1
 59 34 l 1
 59 35 l 1
 60 35 l 1
 60 33 l 1
63 33 m 1
 61 33 l 1
 61 35 l 1
 63 35 l 1
 63 33 l 1
63 37 m 1
 61 37 l 1
 61 39 l 1
 63 39 l 1
 63 37 l 1
58 41 m 1
 56 41 l 1
 56 43 l 1
 57 43 l 1
 57 42 l 1
 58 42 l 1
 58 41 l 1
60 41 m 1
 59 41 l 1
 59 42 l 1
 58 42 l 1
 58 43 l 1
 60 43 l 1
 60 41 l 1
63 41 m 1
 61 41 l 1
 61 43 l 1
 63 43 l 1
 63 41 l 1
EndSplineSet
Ligature2: "'liga' Standard Ligatures in Latin lookup 0-1" five five zero one nine
LCarets2: 1 0
EndChar

StartChar: custom_5_5_0_2_0
Encoding: 16776 -1 16531
Width: 70
Flags: H
LayerCount: 2
Fore
SplineSet
17 25 m 1
 15 25 l 1
 15 27 l 1
 17 27 l 1
 17 25 l 1
23 25 m 1
 21 25 l 1
 21 27 l 1
 23 27 l 1
 23 25 l 1
26 25 m 1
 24 25 l 1
 24 27 l 1
 25 27 l 1
 25 26 l 1
 26 26 l 1
 26 25 l 1
28 25 m 1
 27 25 l 1
 27 26 l 1
 26 26 l 1
 26 27 l 1
 28 27 l 1
 28 25 l 1
31 25 m 1
 29 25 l 1
 29 27 l 1
 31 27 l 1
 31 25 l 1
17 29 m 1
 15 29 l 1
 15 31 l 1
 17 31 l 1
 17 29 l 1
17 33 m 1
 15 33 l 1
 15 35 l 1
 17 35 l 1
 17 33 l 1
23 33 m 1
 21 33 l 1
 21 35 l 1
 23 35 l 1
 23 33 l 1
17 37 m 1
 15 37 l 1
 15 39 l 1
 17 39 l 1
 17 37 l 1
23 37 m 1
 21 37 l 1
 21 39 l 1
 23 39 l 1
 23 37 l 1
17 41 m 1
 15 41 l 1
 15 43 l 1
 17 43 l 1
 17 41 l 1
23 41 m 1
 21 41 l 1
 21 43 l 1
 23 43 l 1
 23 41 l 1
31 29 m 1
 29 29 l 1
 29 31 l 1
 31 31 l 1
 31 29 l 1
25 33 m 1
 24 33 l 1
 24 35 l 1
 26 35 l 1
 26 34 l 1
 25 34 l 1
 25 33 l 1
28 33 m 1
 26 33 l 1
 26 34 l 1
 27 34 l 1
 27 35 l 1
 28 35 l 1
 28 33 l 1
31 33 m 1
 29 33 l 1
 29 35 l 1
 31 35 l 1
 31 33 l 1
36 31 m 1
 34 31 l 1
 34 33 l 1
 36 33 l 1
 36 31 l 1
26 41 m 1
 24 41 l 1
 24 43 l 1
 25 43 l 1
 25 42 l 1
 26 42 l 1
 26 41 l 1
28 41 m 1
 27 41 l 1
 27 42 l 1
 26 42 l 1
 26 43 l 1
 28 43 l 1
 28 41 l 1
31 41 m 1
 29 41 l 1
 29 43 l 1
 31 43 l 1
 31 41 l 1
36 35 m 1
 34 35 l 1
 34 37 l 1
 36 37 l 1
 36 35 l 1
41 25 m 1
 39 25 l 1
 39 27 l 1
 41 27 l 1
 41 25 l 1
44 25 m 1
 42 25 l 1
 42 27 l 1
 43 27 l 1
 43 26 l 1
 44 26 l 1
 44 25 l 1
46 25 m 1
 45 25 l 1
 45 26 l 1
 44 26 l 1
 44 27 l 1
 46 27 l 1
 46 25 l 1
49 25 m 1
 47 25 l 1
 47 27 l 1
 49 27 l 1
 49 25 l 1
55 25 m 1
 53 25 l 1
 53 27 l 1
 55 27 l 1
 55 25 l 1
58 25 m 1
 56 25 l 1
 56 27 l 1
 57 27 l 1
 57 26 l 1
 58 26 l 1
 58 25 l 1
60 25 m 1
 59 25 l 1
 59 26 l 1
 58 26 l 1
 58 27 l 1
 60 27 l 1
 60 25 l 1
63 25 m 1
 61 25 l 1
 61 27 l 1
 63 27 l 1
 63 25 l 1
41 29 m 1
 39 29 l 1
 39 31 l 1
 41 31 l 1
 41 29 l 1
41 33 m 1
 39 33 l 1
 39 35 l 1
 41 35 l 1
 41 33 l 1
43 33 m 1
 42 33 l 1
 42 35 l 1
 44 35 l 1
 44 34 l 1
 43 34 l 1
 43 33 l 1
46 33 m 1
 44 33 l 1
 44 34 l 1
 45 34 l 1
 45 35 l 1
 46 35 l 1
 46 33 l 1
55 29 m 1
 53 29 l 1
 53 31 l 1
 55 31 l 1
 55 29 l 1
49 33 m 1
 47 33 l 1
 47 35 l 1
 49 35 l 1
 49 33 l 1
55 33 m 1
 53 33 l 1
 53 35 l 1
 55 35 l 1
 55 33 l 1
41 41 m 1
 39 41 l 1
 39 43 l 1
 41 43 l 1
 41 41 l 1
44 41 m 1
 42 41 l 1
 42 43 l 1
 43 43 l 1
 43 42 l 1
 44 42 l 1
 44 41 l 1
46 41 m 1
 45 41 l 1
 45 42 l 1
 44 42 l 1
 44 43 l 1
 46 43 l 1
 46 41 l 1
49 37 m 1
 47 37 l 1
 47 39 l 1
 49 39 l 1
 49 37 l 1
49 41 m 1
 47 41 l 1
 47 43 l 1
 49 43 l 1
 49 41 l 1
55 41 m 1
 53 41 l 1
 53 43 l 1
 55 43 l 1
 55 41 l 1
57 33 m 1
 56 33 l 1
 56 35 l 1
 58 35 l 1
 58 34 l 1
 57 34 l 1
 57 33 l 1
60 33 m 1
 58 33 l 1
 58 34 l 1
 59 34 l 1
 59 35 l 1
 60 35 l 1
 60 33 l 1
63 33 m 1
 61 33 l 1
 61 35 l 1
 63 35 l 1
 63 33 l 1
63 37 m 1
 61 37 l 1
 61 39 l 1
 63 39 l 1
 63 37 l 1
58 41 m 1
 56 41 l 1
 56 43 l 1
 57 43 l 1
 57 42 l 1
 58 42 l 1
 58 41 l 1
60 41 m 1
 59 41 l 1
 59 42 l 1
 58 42 l 1
 58 43 l 1
 60 43 l 1
 60 41 l 1
63 41 m 1
 61 41 l 1
 61 43 l 1
 63 43 l 1
 63 41 l 1
EndSplineSet
Ligature2: "'liga' Standard Ligatures in Latin lookup 0-1" five five zero two zero
LCarets2: 1 0
EndChar

StartChar: custom_5_5_0_2_1
Encoding: 16777 -1 16532
Width: 70
Flags: H
LayerCount: 2
Fore
SplineSet
17 25 m 1
 15 25 l 1
 15 27 l 1
 17 27 l 1
 17 25 l 1
23 25 m 1
 21 25 l 1
 21 27 l 1
 23 27 l 1
 23 25 l 1
26 25 m 1
 24 25 l 1
 24 27 l 1
 25 27 l 1
 25 26 l 1
 26 26 l 1
 26 25 l 1
28 25 m 1
 27 25 l 1
 27 26 l 1
 26 26 l 1
 26 27 l 1
 28 27 l 1
 28 25 l 1
31 25 m 1
 29 25 l 1
 29 27 l 1
 31 27 l 1
 31 25 l 1
17 29 m 1
 15 29 l 1
 15 31 l 1
 17 31 l 1
 17 29 l 1
17 33 m 1
 15 33 l 1
 15 35 l 1
 17 35 l 1
 17 33 l 1
23 33 m 1
 21 33 l 1
 21 35 l 1
 23 35 l 1
 23 33 l 1
17 37 m 1
 15 37 l 1
 15 39 l 1
 17 39 l 1
 17 37 l 1
23 37 m 1
 21 37 l 1
 21 39 l 1
 23 39 l 1
 23 37 l 1
17 41 m 1
 15 41 l 1
 15 43 l 1
 17 43 l 1
 17 41 l 1
23 41 m 1
 21 41 l 1
 21 43 l 1
 23 43 l 1
 23 41 l 1
31 29 m 1
 29 29 l 1
 29 31 l 1
 31 31 l 1
 31 29 l 1
25 33 m 1
 24 33 l 1
 24 35 l 1
 26 35 l 1
 26 34 l 1
 25 34 l 1
 25 33 l 1
28 33 m 1
 26 33 l 1
 26 34 l 1
 27 34 l 1
 27 35 l 1
 28 35 l 1
 28 33 l 1
31 33 m 1
 29 33 l 1
 29 35 l 1
 31 35 l 1
 31 33 l 1
36 31 m 1
 34 31 l 1
 34 33 l 1
 36 33 l 1
 36 31 l 1
26 41 m 1
 24 41 l 1
 24 43 l 1
 25 43 l 1
 25 42 l 1
 26 42 l 1
 26 41 l 1
28 41 m 1
 27 41 l 1
 27 42 l 1
 26 42 l 1
 26 43 l 1
 28 43 l 1
 28 41 l 1
31 41 m 1
 29 41 l 1
 29 43 l 1
 31 43 l 1
 31 41 l 1
36 35 m 1
 34 35 l 1
 34 37 l 1
 36 37 l 1
 36 35 l 1
41 25 m 1
 39 25 l 1
 39 27 l 1
 41 27 l 1
 41 25 l 1
44 25 m 1
 42 25 l 1
 42 27 l 1
 43 27 l 1
 43 26 l 1
 44 26 l 1
 44 25 l 1
46 25 m 1
 45 25 l 1
 45 26 l 1
 44 26 l 1
 44 27 l 1
 46 27 l 1
 46 25 l 1
49 25 m 1
 47 25 l 1
 47 27 l 1
 49 27 l 1
 49 25 l 1
55 25 m 1
 53 25 l 1
 53 27 l 1
 55 27 l 1
 55 25 l 1
58 25 m 1
 56 25 l 1
 56 27 l 1
 57 27 l 1
 57 26 l 1
 58 26 l 1
 58 25 l 1
60 25 m 1
 59 25 l 1
 59 26 l 1
 58 26 l 1
 58 27 l 1
 60 27 l 1
 60 25 l 1
63 25 m 1
 61 25 l 1
 61 27 l 1
 63 27 l 1
 63 25 l 1
41 29 m 1
 39 29 l 1
 39 31 l 1
 41 31 l 1
 41 29 l 1
41 33 m 1
 39 33 l 1
 39 35 l 1
 41 35 l 1
 41 33 l 1
43 33 m 1
 42 33 l 1
 42 35 l 1
 44 35 l 1
 44 34 l 1
 43 34 l 1
 43 33 l 1
46 33 m 1
 44 33 l 1
 44 34 l 1
 45 34 l 1
 45 35 l 1
 46 35 l 1
 46 33 l 1
55 29 m 1
 53 29 l 1
 53 31 l 1
 55 31 l 1
 55 29 l 1
49 33 m 1
 47 33 l 1
 47 35 l 1
 49 35 l 1
 49 33 l 1
55 33 m 1
 53 33 l 1
 53 35 l 1
 55 35 l 1
 55 33 l 1
41 41 m 1
 39 41 l 1
 39 43 l 1
 41 43 l 1
 41 41 l 1
44 41 m 1
 42 41 l 1
 42 43 l 1
 43 43 l 1
 43 42 l 1
 44 42 l 1
 44 41 l 1
46 41 m 1
 45 41 l 1
 45 42 l 1
 44 42 l 1
 44 43 l 1
 46 43 l 1
 46 41 l 1
49 37 m 1
 47 37 l 1
 47 39 l 1
 49 39 l 1
 49 37 l 1
49 41 m 1
 47 41 l 1
 47 43 l 1
 49 43 l 1
 49 41 l 1
55 41 m 1
 53 41 l 1
 53 43 l 1
 55 43 l 1
 55 41 l 1
57 33 m 1
 56 33 l 1
 56 35 l 1
 58 35 l 1
 58 34 l 1
 57 34 l 1
 57 33 l 1
60 33 m 1
 58 33 l 1
 58 34 l 1
 59 34 l 1
 59 35 l 1
 60 35 l 1
 60 33 l 1
63 33 m 1
 61 33 l 1
 61 35 l 1
 63 35 l 1
 63 33 l 1
63 37 m 1
 61 37 l 1
 61 39 l 1
 63 39 l 1
 63 37 l 1
58 41 m 1
 56 41 l 1
 56 43 l 1
 57 43 l 1
 57 42 l 1
 58 42 l 1
 58 41 l 1
60 41 m 1
 59 41 l 1
 59 42 l 1
 58 42 l 1
 58 43 l 1
 60 43 l 1
 60 41 l 1
63 41 m 1
 61 41 l 1
 61 43 l 1
 63 43 l 1
 63 41 l 1
EndSplineSet
Ligature2: "'liga' Standard Ligatures in Latin lookup 0-1" five five zero two one
LCarets2: 1 0
EndChar

StartChar: custom_5_5_0_2_2
Encoding: 16778 -1 16533
Width: 70
Flags: H
LayerCount: 2
Fore
SplineSet
17 25 m 1
 15 25 l 1
 15 27 l 1
 17 27 l 1
 17 25 l 1
23 25 m 1
 21 25 l 1
 21 27 l 1
 23 27 l 1
 23 25 l 1
26 25 m 1
 24 25 l 1
 24 27 l 1
 25 27 l 1
 25 26 l 1
 26 26 l 1
 26 25 l 1
28 25 m 1
 27 25 l 1
 27 26 l 1
 26 26 l 1
 26 27 l 1
 28 27 l 1
 28 25 l 1
31 25 m 1
 29 25 l 1
 29 27 l 1
 31 27 l 1
 31 25 l 1
17 29 m 1
 15 29 l 1
 15 31 l 1
 17 31 l 1
 17 29 l 1
17 33 m 1
 15 33 l 1
 15 35 l 1
 17 35 l 1
 17 33 l 1
23 33 m 1
 21 33 l 1
 21 35 l 1
 23 35 l 1
 23 33 l 1
17 37 m 1
 15 37 l 1
 15 39 l 1
 17 39 l 1
 17 37 l 1
23 37 m 1
 21 37 l 1
 21 39 l 1
 23 39 l 1
 23 37 l 1
17 41 m 1
 15 41 l 1
 15 43 l 1
 17 43 l 1
 17 41 l 1
23 41 m 1
 21 41 l 1
 21 43 l 1
 23 43 l 1
 23 41 l 1
31 29 m 1
 29 29 l 1
 29 31 l 1
 31 31 l 1
 31 29 l 1
25 33 m 1
 24 33 l 1
 24 35 l 1
 26 35 l 1
 26 34 l 1
 25 34 l 1
 25 33 l 1
28 33 m 1
 26 33 l 1
 26 34 l 1
 27 34 l 1
 27 35 l 1
 28 35 l 1
 28 33 l 1
31 33 m 1
 29 33 l 1
 29 35 l 1
 31 35 l 1
 31 33 l 1
36 31 m 1
 34 31 l 1
 34 33 l 1
 36 33 l 1
 36 31 l 1
26 41 m 1
 24 41 l 1
 24 43 l 1
 25 43 l 1
 25 42 l 1
 26 42 l 1
 26 41 l 1
28 41 m 1
 27 41 l 1
 27 42 l 1
 26 42 l 1
 26 43 l 1
 28 43 l 1
 28 41 l 1
31 41 m 1
 29 41 l 1
 29 43 l 1
 31 43 l 1
 31 41 l 1
36 35 m 1
 34 35 l 1
 34 37 l 1
 36 37 l 1
 36 35 l 1
41 25 m 1
 39 25 l 1
 39 27 l 1
 41 27 l 1
 41 25 l 1
44 25 m 1
 42 25 l 1
 42 27 l 1
 43 27 l 1
 43 26 l 1
 44 26 l 1
 44 25 l 1
46 25 m 1
 45 25 l 1
 45 26 l 1
 44 26 l 1
 44 27 l 1
 46 27 l 1
 46 25 l 1
49 25 m 1
 47 25 l 1
 47 27 l 1
 49 27 l 1
 49 25 l 1
55 25 m 1
 53 25 l 1
 53 27 l 1
 55 27 l 1
 55 25 l 1
58 25 m 1
 56 25 l 1
 56 27 l 1
 57 27 l 1
 57 26 l 1
 58 26 l 1
 58 25 l 1
60 25 m 1
 59 25 l 1
 59 26 l 1
 58 26 l 1
 58 27 l 1
 60 27 l 1
 60 25 l 1
63 25 m 1
 61 25 l 1
 61 27 l 1
 63 27 l 1
 63 25 l 1
41 29 m 1
 39 29 l 1
 39 31 l 1
 41 31 l 1
 41 29 l 1
41 33 m 1
 39 33 l 1
 39 35 l 1
 41 35 l 1
 41 33 l 1
43 33 m 1
 42 33 l 1
 42 35 l 1
 44 35 l 1
 44 34 l 1
 43 34 l 1
 43 33 l 1
46 33 m 1
 44 33 l 1
 44 34 l 1
 45 34 l 1
 45 35 l 1
 46 35 l 1
 46 33 l 1
55 29 m 1
 53 29 l 1
 53 31 l 1
 55 31 l 1
 55 29 l 1
49 33 m 1
 47 33 l 1
 47 35 l 1
 49 35 l 1
 49 33 l 1
55 33 m 1
 53 33 l 1
 53 35 l 1
 55 35 l 1
 55 33 l 1
41 41 m 1
 39 41 l 1
 39 43 l 1
 41 43 l 1
 41 41 l 1
44 41 m 1
 42 41 l 1
 42 43 l 1
 43 43 l 1
 43 42 l 1
 44 42 l 1
 44 41 l 1
46 41 m 1
 45 41 l 1
 45 42 l 1
 44 42 l 1
 44 43 l 1
 46 43 l 1
 46 41 l 1
49 37 m 1
 47 37 l 1
 47 39 l 1
 49 39 l 1
 49 37 l 1
49 41 m 1
 47 41 l 1
 47 43 l 1
 49 43 l 1
 49 41 l 1
55 41 m 1
 53 41 l 1
 53 43 l 1
 55 43 l 1
 55 41 l 1
57 33 m 1
 56 33 l 1
 56 35 l 1
 58 35 l 1
 58 34 l 1
 57 34 l 1
 57 33 l 1
60 33 m 1
 58 33 l 1
 58 34 l 1
 59 34 l 1
 59 35 l 1
 60 35 l 1
 60 33 l 1
63 33 m 1
 61 33 l 1
 61 35 l 1
 63 35 l 1
 63 33 l 1
63 37 m 1
 61 37 l 1
 61 39 l 1
 63 39 l 1
 63 37 l 1
58 41 m 1
 56 41 l 1
 56 43 l 1
 57 43 l 1
 57 42 l 1
 58 42 l 1
 58 41 l 1
60 41 m 1
 59 41 l 1
 59 42 l 1
 58 42 l 1
 58 43 l 1
 60 43 l 1
 60 41 l 1
63 41 m 1
 61 41 l 1
 61 43 l 1
 63 43 l 1
 63 41 l 1
EndSplineSet
Ligature2: "'liga' Standard Ligatures in Latin lookup 0-1" five five zero two two
LCarets2: 1 0
EndChar

StartChar: custom_5_5_0_2_3
Encoding: 16779 -1 16534
Width: 70
Flags: H
LayerCount: 2
Fore
SplineSet
17 25 m 1
 15 25 l 1
 15 27 l 1
 17 27 l 1
 17 25 l 1
23 25 m 1
 21 25 l 1
 21 27 l 1
 23 27 l 1
 23 25 l 1
26 25 m 1
 24 25 l 1
 24 27 l 1
 25 27 l 1
 25 26 l 1
 26 26 l 1
 26 25 l 1
28 25 m 1
 27 25 l 1
 27 26 l 1
 26 26 l 1
 26 27 l 1
 28 27 l 1
 28 25 l 1
31 25 m 1
 29 25 l 1
 29 27 l 1
 31 27 l 1
 31 25 l 1
17 29 m 1
 15 29 l 1
 15 31 l 1
 17 31 l 1
 17 29 l 1
17 33 m 1
 15 33 l 1
 15 35 l 1
 17 35 l 1
 17 33 l 1
23 33 m 1
 21 33 l 1
 21 35 l 1
 23 35 l 1
 23 33 l 1
17 37 m 1
 15 37 l 1
 15 39 l 1
 17 39 l 1
 17 37 l 1
23 37 m 1
 21 37 l 1
 21 39 l 1
 23 39 l 1
 23 37 l 1
17 41 m 1
 15 41 l 1
 15 43 l 1
 17 43 l 1
 17 41 l 1
23 41 m 1
 21 41 l 1
 21 43 l 1
 23 43 l 1
 23 41 l 1
31 29 m 1
 29 29 l 1
 29 31 l 1
 31 31 l 1
 31 29 l 1
25 33 m 1
 24 33 l 1
 24 35 l 1
 26 35 l 1
 26 34 l 1
 25 34 l 1
 25 33 l 1
28 33 m 1
 26 33 l 1
 26 34 l 1
 27 34 l 1
 27 35 l 1
 28 35 l 1
 28 33 l 1
31 33 m 1
 29 33 l 1
 29 35 l 1
 31 35 l 1
 31 33 l 1
36 31 m 1
 34 31 l 1
 34 33 l 1
 36 33 l 1
 36 31 l 1
26 41 m 1
 24 41 l 1
 24 43 l 1
 25 43 l 1
 25 42 l 1
 26 42 l 1
 26 41 l 1
28 41 m 1
 27 41 l 1
 27 42 l 1
 26 42 l 1
 26 43 l 1
 28 43 l 1
 28 41 l 1
31 41 m 1
 29 41 l 1
 29 43 l 1
 31 43 l 1
 31 41 l 1
36 35 m 1
 34 35 l 1
 34 37 l 1
 36 37 l 1
 36 35 l 1
41 25 m 1
 39 25 l 1
 39 27 l 1
 41 27 l 1
 41 25 l 1
44 25 m 1
 42 25 l 1
 42 27 l 1
 43 27 l 1
 43 26 l 1
 44 26 l 1
 44 25 l 1
46 25 m 1
 45 25 l 1
 45 26 l 1
 44 26 l 1
 44 27 l 1
 46 27 l 1
 46 25 l 1
49 25 m 1
 47 25 l 1
 47 27 l 1
 49 27 l 1
 49 25 l 1
55 25 m 1
 53 25 l 1
 53 27 l 1
 55 27 l 1
 55 25 l 1
58 25 m 1
 56 25 l 1
 56 27 l 1
 57 27 l 1
 57 26 l 1
 58 26 l 1
 58 25 l 1
60 25 m 1
 59 25 l 1
 59 26 l 1
 58 26 l 1
 58 27 l 1
 60 27 l 1
 60 25 l 1
63 25 m 1
 61 25 l 1
 61 27 l 1
 63 27 l 1
 63 25 l 1
41 29 m 1
 39 29 l 1
 39 31 l 1
 41 31 l 1
 41 29 l 1
41 33 m 1
 39 33 l 1
 39 35 l 1
 41 35 l 1
 41 33 l 1
43 33 m 1
 42 33 l 1
 42 35 l 1
 44 35 l 1
 44 34 l 1
 43 34 l 1
 43 33 l 1
46 33 m 1
 44 33 l 1
 44 34 l 1
 45 34 l 1
 45 35 l 1
 46 35 l 1
 46 33 l 1
55 29 m 1
 53 29 l 1
 53 31 l 1
 55 31 l 1
 55 29 l 1
49 33 m 1
 47 33 l 1
 47 35 l 1
 49 35 l 1
 49 33 l 1
55 33 m 1
 53 33 l 1
 53 35 l 1
 55 35 l 1
 55 33 l 1
41 41 m 1
 39 41 l 1
 39 43 l 1
 41 43 l 1
 41 41 l 1
44 41 m 1
 42 41 l 1
 42 43 l 1
 43 43 l 1
 43 42 l 1
 44 42 l 1
 44 41 l 1
46 41 m 1
 45 41 l 1
 45 42 l 1
 44 42 l 1
 44 43 l 1
 46 43 l 1
 46 41 l 1
49 37 m 1
 47 37 l 1
 47 39 l 1
 49 39 l 1
 49 37 l 1
49 41 m 1
 47 41 l 1
 47 43 l 1
 49 43 l 1
 49 41 l 1
55 41 m 1
 53 41 l 1
 53 43 l 1
 55 43 l 1
 55 41 l 1
57 33 m 1
 56 33 l 1
 56 35 l 1
 58 35 l 1
 58 34 l 1
 57 34 l 1
 57 33 l 1
60 33 m 1
 58 33 l 1
 58 34 l 1
 59 34 l 1
 59 35 l 1
 60 35 l 1
 60 33 l 1
63 33 m 1
 61 33 l 1
 61 35 l 1
 63 35 l 1
 63 33 l 1
63 37 m 1
 61 37 l 1
 61 39 l 1
 63 39 l 1
 63 37 l 1
58 41 m 1
 56 41 l 1
 56 43 l 1
 57 43 l 1
 57 42 l 1
 58 42 l 1
 58 41 l 1
60 41 m 1
 59 41 l 1
 59 42 l 1
 58 42 l 1
 58 43 l 1
 60 43 l 1
 60 41 l 1
63 41 m 1
 61 41 l 1
 61 43 l 1
 63 43 l 1
 63 41 l 1
EndSplineSet
Ligature2: "'liga' Standard Ligatures in Latin lookup 0-1" five five zero two three
LCarets2: 1 0
EndChar

StartChar: custom_5_5_0_2_4
Encoding: 16780 -1 16535
Width: 70
Flags: H
LayerCount: 2
Fore
SplineSet
17 25 m 1
 15 25 l 1
 15 27 l 1
 17 27 l 1
 17 25 l 1
23 25 m 1
 21 25 l 1
 21 27 l 1
 23 27 l 1
 23 25 l 1
26 25 m 1
 24 25 l 1
 24 27 l 1
 25 27 l 1
 25 26 l 1
 26 26 l 1
 26 25 l 1
28 25 m 1
 27 25 l 1
 27 26 l 1
 26 26 l 1
 26 27 l 1
 28 27 l 1
 28 25 l 1
31 25 m 1
 29 25 l 1
 29 27 l 1
 31 27 l 1
 31 25 l 1
17 29 m 1
 15 29 l 1
 15 31 l 1
 17 31 l 1
 17 29 l 1
17 33 m 1
 15 33 l 1
 15 35 l 1
 17 35 l 1
 17 33 l 1
23 33 m 1
 21 33 l 1
 21 35 l 1
 23 35 l 1
 23 33 l 1
17 37 m 1
 15 37 l 1
 15 39 l 1
 17 39 l 1
 17 37 l 1
23 37 m 1
 21 37 l 1
 21 39 l 1
 23 39 l 1
 23 37 l 1
17 41 m 1
 15 41 l 1
 15 43 l 1
 17 43 l 1
 17 41 l 1
23 41 m 1
 21 41 l 1
 21 43 l 1
 23 43 l 1
 23 41 l 1
31 29 m 1
 29 29 l 1
 29 31 l 1
 31 31 l 1
 31 29 l 1
25 33 m 1
 24 33 l 1
 24 35 l 1
 26 35 l 1
 26 34 l 1
 25 34 l 1
 25 33 l 1
28 33 m 1
 26 33 l 1
 26 34 l 1
 27 34 l 1
 27 35 l 1
 28 35 l 1
 28 33 l 1
31 33 m 1
 29 33 l 1
 29 35 l 1
 31 35 l 1
 31 33 l 1
36 31 m 1
 34 31 l 1
 34 33 l 1
 36 33 l 1
 36 31 l 1
26 41 m 1
 24 41 l 1
 24 43 l 1
 25 43 l 1
 25 42 l 1
 26 42 l 1
 26 41 l 1
28 41 m 1
 27 41 l 1
 27 42 l 1
 26 42 l 1
 26 43 l 1
 28 43 l 1
 28 41 l 1
31 41 m 1
 29 41 l 1
 29 43 l 1
 31 43 l 1
 31 41 l 1
36 35 m 1
 34 35 l 1
 34 37 l 1
 36 37 l 1
 36 35 l 1
41 25 m 1
 39 25 l 1
 39 27 l 1
 41 27 l 1
 41 25 l 1
44 25 m 1
 42 25 l 1
 42 27 l 1
 43 27 l 1
 43 26 l 1
 44 26 l 1
 44 25 l 1
46 25 m 1
 45 25 l 1
 45 26 l 1
 44 26 l 1
 44 27 l 1
 46 27 l 1
 46 25 l 1
49 25 m 1
 47 25 l 1
 47 27 l 1
 49 27 l 1
 49 25 l 1
55 25 m 1
 53 25 l 1
 53 27 l 1
 55 27 l 1
 55 25 l 1
58 25 m 1
 56 25 l 1
 56 27 l 1
 57 27 l 1
 57 26 l 1
 58 26 l 1
 58 25 l 1
60 25 m 1
 59 25 l 1
 59 26 l 1
 58 26 l 1
 58 27 l 1
 60 27 l 1
 60 25 l 1
63 25 m 1
 61 25 l 1
 61 27 l 1
 63 27 l 1
 63 25 l 1
41 29 m 1
 39 29 l 1
 39 31 l 1
 41 31 l 1
 41 29 l 1
41 33 m 1
 39 33 l 1
 39 35 l 1
 41 35 l 1
 41 33 l 1
43 33 m 1
 42 33 l 1
 42 35 l 1
 44 35 l 1
 44 34 l 1
 43 34 l 1
 43 33 l 1
46 33 m 1
 44 33 l 1
 44 34 l 1
 45 34 l 1
 45 35 l 1
 46 35 l 1
 46 33 l 1
55 29 m 1
 53 29 l 1
 53 31 l 1
 55 31 l 1
 55 29 l 1
49 33 m 1
 47 33 l 1
 47 35 l 1
 49 35 l 1
 49 33 l 1
55 33 m 1
 53 33 l 1
 53 35 l 1
 55 35 l 1
 55 33 l 1
41 41 m 1
 39 41 l 1
 39 43 l 1
 41 43 l 1
 41 41 l 1
44 41 m 1
 42 41 l 1
 42 43 l 1
 43 43 l 1
 43 42 l 1
 44 42 l 1
 44 41 l 1
46 41 m 1
 45 41 l 1
 45 42 l 1
 44 42 l 1
 44 43 l 1
 46 43 l 1
 46 41 l 1
49 37 m 1
 47 37 l 1
 47 39 l 1
 49 39 l 1
 49 37 l 1
49 41 m 1
 47 41 l 1
 47 43 l 1
 49 43 l 1
 49 41 l 1
55 41 m 1
 53 41 l 1
 53 43 l 1
 55 43 l 1
 55 41 l 1
57 33 m 1
 56 33 l 1
 56 35 l 1
 58 35 l 1
 58 34 l 1
 57 34 l 1
 57 33 l 1
60 33 m 1
 58 33 l 1
 58 34 l 1
 59 34 l 1
 59 35 l 1
 60 35 l 1
 60 33 l 1
63 33 m 1
 61 33 l 1
 61 35 l 1
 63 35 l 1
 63 33 l 1
63 37 m 1
 61 37 l 1
 61 39 l 1
 63 39 l 1
 63 37 l 1
58 41 m 1
 56 41 l 1
 56 43 l 1
 57 43 l 1
 57 42 l 1
 58 42 l 1
 58 41 l 1
60 41 m 1
 59 41 l 1
 59 42 l 1
 58 42 l 1
 58 43 l 1
 60 43 l 1
 60 41 l 1
63 41 m 1
 61 41 l 1
 61 43 l 1
 63 43 l 1
 63 41 l 1
EndSplineSet
Ligature2: "'liga' Standard Ligatures in Latin lookup 0-1" five five zero two four
LCarets2: 1 0
EndChar

StartChar: custom_5_5_0_2_5
Encoding: 16781 -1 16536
Width: 70
Flags: H
LayerCount: 2
Fore
SplineSet
17 25 m 1
 15 25 l 1
 15 27 l 1
 17 27 l 1
 17 25 l 1
23 25 m 1
 21 25 l 1
 21 27 l 1
 23 27 l 1
 23 25 l 1
26 25 m 1
 24 25 l 1
 24 27 l 1
 25 27 l 1
 25 26 l 1
 26 26 l 1
 26 25 l 1
28 25 m 1
 27 25 l 1
 27 26 l 1
 26 26 l 1
 26 27 l 1
 28 27 l 1
 28 25 l 1
31 25 m 1
 29 25 l 1
 29 27 l 1
 31 27 l 1
 31 25 l 1
17 29 m 1
 15 29 l 1
 15 31 l 1
 17 31 l 1
 17 29 l 1
17 33 m 1
 15 33 l 1
 15 35 l 1
 17 35 l 1
 17 33 l 1
23 33 m 1
 21 33 l 1
 21 35 l 1
 23 35 l 1
 23 33 l 1
17 37 m 1
 15 37 l 1
 15 39 l 1
 17 39 l 1
 17 37 l 1
23 37 m 1
 21 37 l 1
 21 39 l 1
 23 39 l 1
 23 37 l 1
17 41 m 1
 15 41 l 1
 15 43 l 1
 17 43 l 1
 17 41 l 1
23 41 m 1
 21 41 l 1
 21 43 l 1
 23 43 l 1
 23 41 l 1
31 29 m 1
 29 29 l 1
 29 31 l 1
 31 31 l 1
 31 29 l 1
25 33 m 1
 24 33 l 1
 24 35 l 1
 26 35 l 1
 26 34 l 1
 25 34 l 1
 25 33 l 1
28 33 m 1
 26 33 l 1
 26 34 l 1
 27 34 l 1
 27 35 l 1
 28 35 l 1
 28 33 l 1
31 33 m 1
 29 33 l 1
 29 35 l 1
 31 35 l 1
 31 33 l 1
36 31 m 1
 34 31 l 1
 34 33 l 1
 36 33 l 1
 36 31 l 1
26 41 m 1
 24 41 l 1
 24 43 l 1
 25 43 l 1
 25 42 l 1
 26 42 l 1
 26 41 l 1
28 41 m 1
 27 41 l 1
 27 42 l 1
 26 42 l 1
 26 43 l 1
 28 43 l 1
 28 41 l 1
31 41 m 1
 29 41 l 1
 29 43 l 1
 31 43 l 1
 31 41 l 1
36 35 m 1
 34 35 l 1
 34 37 l 1
 36 37 l 1
 36 35 l 1
41 25 m 1
 39 25 l 1
 39 27 l 1
 41 27 l 1
 41 25 l 1
44 25 m 1
 42 25 l 1
 42 27 l 1
 43 27 l 1
 43 26 l 1
 44 26 l 1
 44 25 l 1
46 25 m 1
 45 25 l 1
 45 26 l 1
 44 26 l 1
 44 27 l 1
 46 27 l 1
 46 25 l 1
49 25 m 1
 47 25 l 1
 47 27 l 1
 49 27 l 1
 49 25 l 1
55 25 m 1
 53 25 l 1
 53 27 l 1
 55 27 l 1
 55 25 l 1
58 25 m 1
 56 25 l 1
 56 27 l 1
 57 27 l 1
 57 26 l 1
 58 26 l 1
 58 25 l 1
60 25 m 1
 59 25 l 1
 59 26 l 1
 58 26 l 1
 58 27 l 1
 60 27 l 1
 60 25 l 1
63 25 m 1
 61 25 l 1
 61 27 l 1
 63 27 l 1
 63 25 l 1
41 29 m 1
 39 29 l 1
 39 31 l 1
 41 31 l 1
 41 29 l 1
41 33 m 1
 39 33 l 1
 39 35 l 1
 41 35 l 1
 41 33 l 1
43 33 m 1
 42 33 l 1
 42 35 l 1
 44 35 l 1
 44 34 l 1
 43 34 l 1
 43 33 l 1
46 33 m 1
 44 33 l 1
 44 34 l 1
 45 34 l 1
 45 35 l 1
 46 35 l 1
 46 33 l 1
55 29 m 1
 53 29 l 1
 53 31 l 1
 55 31 l 1
 55 29 l 1
49 33 m 1
 47 33 l 1
 47 35 l 1
 49 35 l 1
 49 33 l 1
55 33 m 1
 53 33 l 1
 53 35 l 1
 55 35 l 1
 55 33 l 1
41 41 m 1
 39 41 l 1
 39 43 l 1
 41 43 l 1
 41 41 l 1
44 41 m 1
 42 41 l 1
 42 43 l 1
 43 43 l 1
 43 42 l 1
 44 42 l 1
 44 41 l 1
46 41 m 1
 45 41 l 1
 45 42 l 1
 44 42 l 1
 44 43 l 1
 46 43 l 1
 46 41 l 1
49 37 m 1
 47 37 l 1
 47 39 l 1
 49 39 l 1
 49 37 l 1
49 41 m 1
 47 41 l 1
 47 43 l 1
 49 43 l 1
 49 41 l 1
55 41 m 1
 53 41 l 1
 53 43 l 1
 55 43 l 1
 55 41 l 1
57 33 m 1
 56 33 l 1
 56 35 l 1
 58 35 l 1
 58 34 l 1
 57 34 l 1
 57 33 l 1
60 33 m 1
 58 33 l 1
 58 34 l 1
 59 34 l 1
 59 35 l 1
 60 35 l 1
 60 33 l 1
63 33 m 1
 61 33 l 1
 61 35 l 1
 63 35 l 1
 63 33 l 1
63 37 m 1
 61 37 l 1
 61 39 l 1
 63 39 l 1
 63 37 l 1
58 41 m 1
 56 41 l 1
 56 43 l 1
 57 43 l 1
 57 42 l 1
 58 42 l 1
 58 41 l 1
60 41 m 1
 59 41 l 1
 59 42 l 1
 58 42 l 1
 58 43 l 1
 60 43 l 1
 60 41 l 1
63 41 m 1
 61 41 l 1
 61 43 l 1
 63 43 l 1
 63 41 l 1
EndSplineSet
Ligature2: "'liga' Standard Ligatures in Latin lookup 0-1" five five zero two five
LCarets2: 1 0
EndChar

StartChar: custom_5_5_0_2_6
Encoding: 16782 -1 16537
Width: 70
Flags: H
LayerCount: 2
Fore
SplineSet
17 25 m 1
 15 25 l 1
 15 27 l 1
 17 27 l 1
 17 25 l 1
23 25 m 1
 21 25 l 1
 21 27 l 1
 23 27 l 1
 23 25 l 1
26 25 m 1
 24 25 l 1
 24 27 l 1
 25 27 l 1
 25 26 l 1
 26 26 l 1
 26 25 l 1
28 25 m 1
 27 25 l 1
 27 26 l 1
 26 26 l 1
 26 27 l 1
 28 27 l 1
 28 25 l 1
31 25 m 1
 29 25 l 1
 29 27 l 1
 31 27 l 1
 31 25 l 1
17 29 m 1
 15 29 l 1
 15 31 l 1
 17 31 l 1
 17 29 l 1
17 33 m 1
 15 33 l 1
 15 35 l 1
 17 35 l 1
 17 33 l 1
23 33 m 1
 21 33 l 1
 21 35 l 1
 23 35 l 1
 23 33 l 1
17 37 m 1
 15 37 l 1
 15 39 l 1
 17 39 l 1
 17 37 l 1
23 37 m 1
 21 37 l 1
 21 39 l 1
 23 39 l 1
 23 37 l 1
17 41 m 1
 15 41 l 1
 15 43 l 1
 17 43 l 1
 17 41 l 1
23 41 m 1
 21 41 l 1
 21 43 l 1
 23 43 l 1
 23 41 l 1
31 29 m 1
 29 29 l 1
 29 31 l 1
 31 31 l 1
 31 29 l 1
25 33 m 1
 24 33 l 1
 24 35 l 1
 26 35 l 1
 26 34 l 1
 25 34 l 1
 25 33 l 1
28 33 m 1
 26 33 l 1
 26 34 l 1
 27 34 l 1
 27 35 l 1
 28 35 l 1
 28 33 l 1
31 33 m 1
 29 33 l 1
 29 35 l 1
 31 35 l 1
 31 33 l 1
36 31 m 1
 34 31 l 1
 34 33 l 1
 36 33 l 1
 36 31 l 1
26 41 m 1
 24 41 l 1
 24 43 l 1
 25 43 l 1
 25 42 l 1
 26 42 l 1
 26 41 l 1
28 41 m 1
 27 41 l 1
 27 42 l 1
 26 42 l 1
 26 43 l 1
 28 43 l 1
 28 41 l 1
31 41 m 1
 29 41 l 1
 29 43 l 1
 31 43 l 1
 31 41 l 1
36 35 m 1
 34 35 l 1
 34 37 l 1
 36 37 l 1
 36 35 l 1
41 25 m 1
 39 25 l 1
 39 27 l 1
 41 27 l 1
 41 25 l 1
44 25 m 1
 42 25 l 1
 42 27 l 1
 43 27 l 1
 43 26 l 1
 44 26 l 1
 44 25 l 1
46 25 m 1
 45 25 l 1
 45 26 l 1
 44 26 l 1
 44 27 l 1
 46 27 l 1
 46 25 l 1
49 25 m 1
 47 25 l 1
 47 27 l 1
 49 27 l 1
 49 25 l 1
55 25 m 1
 53 25 l 1
 53 27 l 1
 55 27 l 1
 55 25 l 1
58 25 m 1
 56 25 l 1
 56 27 l 1
 57 27 l 1
 57 26 l 1
 58 26 l 1
 58 25 l 1
60 25 m 1
 59 25 l 1
 59 26 l 1
 58 26 l 1
 58 27 l 1
 60 27 l 1
 60 25 l 1
63 25 m 1
 61 25 l 1
 61 27 l 1
 63 27 l 1
 63 25 l 1
41 29 m 1
 39 29 l 1
 39 31 l 1
 41 31 l 1
 41 29 l 1
41 33 m 1
 39 33 l 1
 39 35 l 1
 41 35 l 1
 41 33 l 1
43 33 m 1
 42 33 l 1
 42 35 l 1
 44 35 l 1
 44 34 l 1
 43 34 l 1
 43 33 l 1
46 33 m 1
 44 33 l 1
 44 34 l 1
 45 34 l 1
 45 35 l 1
 46 35 l 1
 46 33 l 1
55 29 m 1
 53 29 l 1
 53 31 l 1
 55 31 l 1
 55 29 l 1
49 33 m 1
 47 33 l 1
 47 35 l 1
 49 35 l 1
 49 33 l 1
55 33 m 1
 53 33 l 1
 53 35 l 1
 55 35 l 1
 55 33 l 1
41 41 m 1
 39 41 l 1
 39 43 l 1
 41 43 l 1
 41 41 l 1
44 41 m 1
 42 41 l 1
 42 43 l 1
 43 43 l 1
 43 42 l 1
 44 42 l 1
 44 41 l 1
46 41 m 1
 45 41 l 1
 45 42 l 1
 44 42 l 1
 44 43 l 1
 46 43 l 1
 46 41 l 1
49 37 m 1
 47 37 l 1
 47 39 l 1
 49 39 l 1
 49 37 l 1
49 41 m 1
 47 41 l 1
 47 43 l 1
 49 43 l 1
 49 41 l 1
55 41 m 1
 53 41 l 1
 53 43 l 1
 55 43 l 1
 55 41 l 1
57 33 m 1
 56 33 l 1
 56 35 l 1
 58 35 l 1
 58 34 l 1
 57 34 l 1
 57 33 l 1
60 33 m 1
 58 33 l 1
 58 34 l 1
 59 34 l 1
 59 35 l 1
 60 35 l 1
 60 33 l 1
63 33 m 1
 61 33 l 1
 61 35 l 1
 63 35 l 1
 63 33 l 1
63 37 m 1
 61 37 l 1
 61 39 l 1
 63 39 l 1
 63 37 l 1
58 41 m 1
 56 41 l 1
 56 43 l 1
 57 43 l 1
 57 42 l 1
 58 42 l 1
 58 41 l 1
60 41 m 1
 59 41 l 1
 59 42 l 1
 58 42 l 1
 58 43 l 1
 60 43 l 1
 60 41 l 1
63 41 m 1
 61 41 l 1
 61 43 l 1
 63 43 l 1
 63 41 l 1
EndSplineSet
Ligature2: "'liga' Standard Ligatures in Latin lookup 0-1" five five zero two six
LCarets2: 1 0
EndChar

StartChar: custom_5_5_0_2_7
Encoding: 16783 -1 16538
Width: 70
Flags: H
LayerCount: 2
Fore
SplineSet
17 25 m 1
 15 25 l 1
 15 27 l 1
 17 27 l 1
 17 25 l 1
23 25 m 1
 21 25 l 1
 21 27 l 1
 23 27 l 1
 23 25 l 1
26 25 m 1
 24 25 l 1
 24 27 l 1
 25 27 l 1
 25 26 l 1
 26 26 l 1
 26 25 l 1
28 25 m 1
 27 25 l 1
 27 26 l 1
 26 26 l 1
 26 27 l 1
 28 27 l 1
 28 25 l 1
31 25 m 1
 29 25 l 1
 29 27 l 1
 31 27 l 1
 31 25 l 1
17 29 m 1
 15 29 l 1
 15 31 l 1
 17 31 l 1
 17 29 l 1
17 33 m 1
 15 33 l 1
 15 35 l 1
 17 35 l 1
 17 33 l 1
23 33 m 1
 21 33 l 1
 21 35 l 1
 23 35 l 1
 23 33 l 1
17 37 m 1
 15 37 l 1
 15 39 l 1
 17 39 l 1
 17 37 l 1
23 37 m 1
 21 37 l 1
 21 39 l 1
 23 39 l 1
 23 37 l 1
17 41 m 1
 15 41 l 1
 15 43 l 1
 17 43 l 1
 17 41 l 1
23 41 m 1
 21 41 l 1
 21 43 l 1
 23 43 l 1
 23 41 l 1
31 29 m 1
 29 29 l 1
 29 31 l 1
 31 31 l 1
 31 29 l 1
25 33 m 1
 24 33 l 1
 24 35 l 1
 26 35 l 1
 26 34 l 1
 25 34 l 1
 25 33 l 1
28 33 m 1
 26 33 l 1
 26 34 l 1
 27 34 l 1
 27 35 l 1
 28 35 l 1
 28 33 l 1
31 33 m 1
 29 33 l 1
 29 35 l 1
 31 35 l 1
 31 33 l 1
36 31 m 1
 34 31 l 1
 34 33 l 1
 36 33 l 1
 36 31 l 1
26 41 m 1
 24 41 l 1
 24 43 l 1
 25 43 l 1
 25 42 l 1
 26 42 l 1
 26 41 l 1
28 41 m 1
 27 41 l 1
 27 42 l 1
 26 42 l 1
 26 43 l 1
 28 43 l 1
 28 41 l 1
31 41 m 1
 29 41 l 1
 29 43 l 1
 31 43 l 1
 31 41 l 1
36 35 m 1
 34 35 l 1
 34 37 l 1
 36 37 l 1
 36 35 l 1
41 25 m 1
 39 25 l 1
 39 27 l 1
 41 27 l 1
 41 25 l 1
44 25 m 1
 42 25 l 1
 42 27 l 1
 43 27 l 1
 43 26 l 1
 44 26 l 1
 44 25 l 1
46 25 m 1
 45 25 l 1
 45 26 l 1
 44 26 l 1
 44 27 l 1
 46 27 l 1
 46 25 l 1
49 25 m 1
 47 25 l 1
 47 27 l 1
 49 27 l 1
 49 25 l 1
55 25 m 1
 53 25 l 1
 53 27 l 1
 55 27 l 1
 55 25 l 1
58 25 m 1
 56 25 l 1
 56 27 l 1
 57 27 l 1
 57 26 l 1
 58 26 l 1
 58 25 l 1
60 25 m 1
 59 25 l 1
 59 26 l 1
 58 26 l 1
 58 27 l 1
 60 27 l 1
 60 25 l 1
63 25 m 1
 61 25 l 1
 61 27 l 1
 63 27 l 1
 63 25 l 1
41 29 m 1
 39 29 l 1
 39 31 l 1
 41 31 l 1
 41 29 l 1
41 33 m 1
 39 33 l 1
 39 35 l 1
 41 35 l 1
 41 33 l 1
43 33 m 1
 42 33 l 1
 42 35 l 1
 44 35 l 1
 44 34 l 1
 43 34 l 1
 43 33 l 1
46 33 m 1
 44 33 l 1
 44 34 l 1
 45 34 l 1
 45 35 l 1
 46 35 l 1
 46 33 l 1
55 29 m 1
 53 29 l 1
 53 31 l 1
 55 31 l 1
 55 29 l 1
49 33 m 1
 47 33 l 1
 47 35 l 1
 49 35 l 1
 49 33 l 1
55 33 m 1
 53 33 l 1
 53 35 l 1
 55 35 l 1
 55 33 l 1
41 41 m 1
 39 41 l 1
 39 43 l 1
 41 43 l 1
 41 41 l 1
44 41 m 1
 42 41 l 1
 42 43 l 1
 43 43 l 1
 43 42 l 1
 44 42 l 1
 44 41 l 1
46 41 m 1
 45 41 l 1
 45 42 l 1
 44 42 l 1
 44 43 l 1
 46 43 l 1
 46 41 l 1
49 37 m 1
 47 37 l 1
 47 39 l 1
 49 39 l 1
 49 37 l 1
49 41 m 1
 47 41 l 1
 47 43 l 1
 49 43 l 1
 49 41 l 1
55 41 m 1
 53 41 l 1
 53 43 l 1
 55 43 l 1
 55 41 l 1
57 33 m 1
 56 33 l 1
 56 35 l 1
 58 35 l 1
 58 34 l 1
 57 34 l 1
 57 33 l 1
60 33 m 1
 58 33 l 1
 58 34 l 1
 59 34 l 1
 59 35 l 1
 60 35 l 1
 60 33 l 1
63 33 m 1
 61 33 l 1
 61 35 l 1
 63 35 l 1
 63 33 l 1
63 37 m 1
 61 37 l 1
 61 39 l 1
 63 39 l 1
 63 37 l 1
58 41 m 1
 56 41 l 1
 56 43 l 1
 57 43 l 1
 57 42 l 1
 58 42 l 1
 58 41 l 1
60 41 m 1
 59 41 l 1
 59 42 l 1
 58 42 l 1
 58 43 l 1
 60 43 l 1
 60 41 l 1
63 41 m 1
 61 41 l 1
 61 43 l 1
 63 43 l 1
 63 41 l 1
EndSplineSet
Ligature2: "'liga' Standard Ligatures in Latin lookup 0-1" five five zero two seven
LCarets2: 1 0
EndChar

StartChar: custom_5_5_0_2_8
Encoding: 16784 -1 16539
Width: 70
Flags: H
LayerCount: 2
Fore
SplineSet
17 25 m 1
 15 25 l 1
 15 27 l 1
 17 27 l 1
 17 25 l 1
23 25 m 1
 21 25 l 1
 21 27 l 1
 23 27 l 1
 23 25 l 1
26 25 m 1
 24 25 l 1
 24 27 l 1
 25 27 l 1
 25 26 l 1
 26 26 l 1
 26 25 l 1
28 25 m 1
 27 25 l 1
 27 26 l 1
 26 26 l 1
 26 27 l 1
 28 27 l 1
 28 25 l 1
31 25 m 1
 29 25 l 1
 29 27 l 1
 31 27 l 1
 31 25 l 1
17 29 m 1
 15 29 l 1
 15 31 l 1
 17 31 l 1
 17 29 l 1
17 33 m 1
 15 33 l 1
 15 35 l 1
 17 35 l 1
 17 33 l 1
23 33 m 1
 21 33 l 1
 21 35 l 1
 23 35 l 1
 23 33 l 1
17 37 m 1
 15 37 l 1
 15 39 l 1
 17 39 l 1
 17 37 l 1
23 37 m 1
 21 37 l 1
 21 39 l 1
 23 39 l 1
 23 37 l 1
17 41 m 1
 15 41 l 1
 15 43 l 1
 17 43 l 1
 17 41 l 1
23 41 m 1
 21 41 l 1
 21 43 l 1
 23 43 l 1
 23 41 l 1
31 29 m 1
 29 29 l 1
 29 31 l 1
 31 31 l 1
 31 29 l 1
25 33 m 1
 24 33 l 1
 24 35 l 1
 26 35 l 1
 26 34 l 1
 25 34 l 1
 25 33 l 1
28 33 m 1
 26 33 l 1
 26 34 l 1
 27 34 l 1
 27 35 l 1
 28 35 l 1
 28 33 l 1
31 33 m 1
 29 33 l 1
 29 35 l 1
 31 35 l 1
 31 33 l 1
36 31 m 1
 34 31 l 1
 34 33 l 1
 36 33 l 1
 36 31 l 1
26 41 m 1
 24 41 l 1
 24 43 l 1
 25 43 l 1
 25 42 l 1
 26 42 l 1
 26 41 l 1
28 41 m 1
 27 41 l 1
 27 42 l 1
 26 42 l 1
 26 43 l 1
 28 43 l 1
 28 41 l 1
31 41 m 1
 29 41 l 1
 29 43 l 1
 31 43 l 1
 31 41 l 1
36 35 m 1
 34 35 l 1
 34 37 l 1
 36 37 l 1
 36 35 l 1
41 25 m 1
 39 25 l 1
 39 27 l 1
 41 27 l 1
 41 25 l 1
44 25 m 1
 42 25 l 1
 42 27 l 1
 43 27 l 1
 43 26 l 1
 44 26 l 1
 44 25 l 1
46 25 m 1
 45 25 l 1
 45 26 l 1
 44 26 l 1
 44 27 l 1
 46 27 l 1
 46 25 l 1
49 25 m 1
 47 25 l 1
 47 27 l 1
 49 27 l 1
 49 25 l 1
55 25 m 1
 53 25 l 1
 53 27 l 1
 55 27 l 1
 55 25 l 1
58 25 m 1
 56 25 l 1
 56 27 l 1
 57 27 l 1
 57 26 l 1
 58 26 l 1
 58 25 l 1
60 25 m 1
 59 25 l 1
 59 26 l 1
 58 26 l 1
 58 27 l 1
 60 27 l 1
 60 25 l 1
63 25 m 1
 61 25 l 1
 61 27 l 1
 63 27 l 1
 63 25 l 1
41 29 m 1
 39 29 l 1
 39 31 l 1
 41 31 l 1
 41 29 l 1
41 33 m 1
 39 33 l 1
 39 35 l 1
 41 35 l 1
 41 33 l 1
43 33 m 1
 42 33 l 1
 42 35 l 1
 44 35 l 1
 44 34 l 1
 43 34 l 1
 43 33 l 1
46 33 m 1
 44 33 l 1
 44 34 l 1
 45 34 l 1
 45 35 l 1
 46 35 l 1
 46 33 l 1
55 29 m 1
 53 29 l 1
 53 31 l 1
 55 31 l 1
 55 29 l 1
49 33 m 1
 47 33 l 1
 47 35 l 1
 49 35 l 1
 49 33 l 1
55 33 m 1
 53 33 l 1
 53 35 l 1
 55 35 l 1
 55 33 l 1
41 41 m 1
 39 41 l 1
 39 43 l 1
 41 43 l 1
 41 41 l 1
44 41 m 1
 42 41 l 1
 42 43 l 1
 43 43 l 1
 43 42 l 1
 44 42 l 1
 44 41 l 1
46 41 m 1
 45 41 l 1
 45 42 l 1
 44 42 l 1
 44 43 l 1
 46 43 l 1
 46 41 l 1
49 37 m 1
 47 37 l 1
 47 39 l 1
 49 39 l 1
 49 37 l 1
49 41 m 1
 47 41 l 1
 47 43 l 1
 49 43 l 1
 49 41 l 1
55 41 m 1
 53 41 l 1
 53 43 l 1
 55 43 l 1
 55 41 l 1
57 33 m 1
 56 33 l 1
 56 35 l 1
 58 35 l 1
 58 34 l 1
 57 34 l 1
 57 33 l 1
60 33 m 1
 58 33 l 1
 58 34 l 1
 59 34 l 1
 59 35 l 1
 60 35 l 1
 60 33 l 1
63 33 m 1
 61 33 l 1
 61 35 l 1
 63 35 l 1
 63 33 l 1
63 37 m 1
 61 37 l 1
 61 39 l 1
 63 39 l 1
 63 37 l 1
58 41 m 1
 56 41 l 1
 56 43 l 1
 57 43 l 1
 57 42 l 1
 58 42 l 1
 58 41 l 1
60 41 m 1
 59 41 l 1
 59 42 l 1
 58 42 l 1
 58 43 l 1
 60 43 l 1
 60 41 l 1
63 41 m 1
 61 41 l 1
 61 43 l 1
 63 43 l 1
 63 41 l 1
EndSplineSet
Ligature2: "'liga' Standard Ligatures in Latin lookup 0-1" five five zero two eight
LCarets2: 1 0
EndChar

StartChar: custom_5_5_0_2_9
Encoding: 16785 -1 16540
Width: 70
Flags: H
LayerCount: 2
Fore
SplineSet
17 25 m 1
 15 25 l 1
 15 27 l 1
 17 27 l 1
 17 25 l 1
23 25 m 1
 21 25 l 1
 21 27 l 1
 23 27 l 1
 23 25 l 1
26 25 m 1
 24 25 l 1
 24 27 l 1
 25 27 l 1
 25 26 l 1
 26 26 l 1
 26 25 l 1
28 25 m 1
 27 25 l 1
 27 26 l 1
 26 26 l 1
 26 27 l 1
 28 27 l 1
 28 25 l 1
31 25 m 1
 29 25 l 1
 29 27 l 1
 31 27 l 1
 31 25 l 1
17 29 m 1
 15 29 l 1
 15 31 l 1
 17 31 l 1
 17 29 l 1
17 33 m 1
 15 33 l 1
 15 35 l 1
 17 35 l 1
 17 33 l 1
23 33 m 1
 21 33 l 1
 21 35 l 1
 23 35 l 1
 23 33 l 1
17 37 m 1
 15 37 l 1
 15 39 l 1
 17 39 l 1
 17 37 l 1
23 37 m 1
 21 37 l 1
 21 39 l 1
 23 39 l 1
 23 37 l 1
17 41 m 1
 15 41 l 1
 15 43 l 1
 17 43 l 1
 17 41 l 1
23 41 m 1
 21 41 l 1
 21 43 l 1
 23 43 l 1
 23 41 l 1
31 29 m 1
 29 29 l 1
 29 31 l 1
 31 31 l 1
 31 29 l 1
25 33 m 1
 24 33 l 1
 24 35 l 1
 26 35 l 1
 26 34 l 1
 25 34 l 1
 25 33 l 1
28 33 m 1
 26 33 l 1
 26 34 l 1
 27 34 l 1
 27 35 l 1
 28 35 l 1
 28 33 l 1
31 33 m 1
 29 33 l 1
 29 35 l 1
 31 35 l 1
 31 33 l 1
36 31 m 1
 34 31 l 1
 34 33 l 1
 36 33 l 1
 36 31 l 1
26 41 m 1
 24 41 l 1
 24 43 l 1
 25 43 l 1
 25 42 l 1
 26 42 l 1
 26 41 l 1
28 41 m 1
 27 41 l 1
 27 42 l 1
 26 42 l 1
 26 43 l 1
 28 43 l 1
 28 41 l 1
31 41 m 1
 29 41 l 1
 29 43 l 1
 31 43 l 1
 31 41 l 1
36 35 m 1
 34 35 l 1
 34 37 l 1
 36 37 l 1
 36 35 l 1
41 25 m 1
 39 25 l 1
 39 27 l 1
 41 27 l 1
 41 25 l 1
44 25 m 1
 42 25 l 1
 42 27 l 1
 43 27 l 1
 43 26 l 1
 44 26 l 1
 44 25 l 1
46 25 m 1
 45 25 l 1
 45 26 l 1
 44 26 l 1
 44 27 l 1
 46 27 l 1
 46 25 l 1
49 25 m 1
 47 25 l 1
 47 27 l 1
 49 27 l 1
 49 25 l 1
55 25 m 1
 53 25 l 1
 53 27 l 1
 55 27 l 1
 55 25 l 1
58 25 m 1
 56 25 l 1
 56 27 l 1
 57 27 l 1
 57 26 l 1
 58 26 l 1
 58 25 l 1
60 25 m 1
 59 25 l 1
 59 26 l 1
 58 26 l 1
 58 27 l 1
 60 27 l 1
 60 25 l 1
63 25 m 1
 61 25 l 1
 61 27 l 1
 63 27 l 1
 63 25 l 1
41 29 m 1
 39 29 l 1
 39 31 l 1
 41 31 l 1
 41 29 l 1
41 33 m 1
 39 33 l 1
 39 35 l 1
 41 35 l 1
 41 33 l 1
43 33 m 1
 42 33 l 1
 42 35 l 1
 44 35 l 1
 44 34 l 1
 43 34 l 1
 43 33 l 1
46 33 m 1
 44 33 l 1
 44 34 l 1
 45 34 l 1
 45 35 l 1
 46 35 l 1
 46 33 l 1
55 29 m 1
 53 29 l 1
 53 31 l 1
 55 31 l 1
 55 29 l 1
49 33 m 1
 47 33 l 1
 47 35 l 1
 49 35 l 1
 49 33 l 1
55 33 m 1
 53 33 l 1
 53 35 l 1
 55 35 l 1
 55 33 l 1
41 41 m 1
 39 41 l 1
 39 43 l 1
 41 43 l 1
 41 41 l 1
44 41 m 1
 42 41 l 1
 42 43 l 1
 43 43 l 1
 43 42 l 1
 44 42 l 1
 44 41 l 1
46 41 m 1
 45 41 l 1
 45 42 l 1
 44 42 l 1
 44 43 l 1
 46 43 l 1
 46 41 l 1
49 37 m 1
 47 37 l 1
 47 39 l 1
 49 39 l 1
 49 37 l 1
49 41 m 1
 47 41 l 1
 47 43 l 1
 49 43 l 1
 49 41 l 1
55 41 m 1
 53 41 l 1
 53 43 l 1
 55 43 l 1
 55 41 l 1
57 33 m 1
 56 33 l 1
 56 35 l 1
 58 35 l 1
 58 34 l 1
 57 34 l 1
 57 33 l 1
60 33 m 1
 58 33 l 1
 58 34 l 1
 59 34 l 1
 59 35 l 1
 60 35 l 1
 60 33 l 1
63 33 m 1
 61 33 l 1
 61 35 l 1
 63 35 l 1
 63 33 l 1
63 37 m 1
 61 37 l 1
 61 39 l 1
 63 39 l 1
 63 37 l 1
58 41 m 1
 56 41 l 1
 56 43 l 1
 57 43 l 1
 57 42 l 1
 58 42 l 1
 58 41 l 1
60 41 m 1
 59 41 l 1
 59 42 l 1
 58 42 l 1
 58 43 l 1
 60 43 l 1
 60 41 l 1
63 41 m 1
 61 41 l 1
 61 43 l 1
 63 43 l 1
 63 41 l 1
EndSplineSet
Ligature2: "'liga' Standard Ligatures in Latin lookup 0-1" five five zero two nine
LCarets2: 1 0
EndChar

StartChar: custom_5_5_0_3_0
Encoding: 16786 -1 16541
Width: 70
Flags: H
LayerCount: 2
Fore
SplineSet
17 25 m 1
 15 25 l 1
 15 27 l 1
 17 27 l 1
 17 25 l 1
23 25 m 1
 21 25 l 1
 21 27 l 1
 23 27 l 1
 23 25 l 1
26 25 m 1
 24 25 l 1
 24 27 l 1
 25 27 l 1
 25 26 l 1
 26 26 l 1
 26 25 l 1
28 25 m 1
 27 25 l 1
 27 26 l 1
 26 26 l 1
 26 27 l 1
 28 27 l 1
 28 25 l 1
31 25 m 1
 29 25 l 1
 29 27 l 1
 31 27 l 1
 31 25 l 1
17 29 m 1
 15 29 l 1
 15 31 l 1
 17 31 l 1
 17 29 l 1
17 33 m 1
 15 33 l 1
 15 35 l 1
 17 35 l 1
 17 33 l 1
23 33 m 1
 21 33 l 1
 21 35 l 1
 23 35 l 1
 23 33 l 1
17 37 m 1
 15 37 l 1
 15 39 l 1
 17 39 l 1
 17 37 l 1
23 37 m 1
 21 37 l 1
 21 39 l 1
 23 39 l 1
 23 37 l 1
17 41 m 1
 15 41 l 1
 15 43 l 1
 17 43 l 1
 17 41 l 1
23 41 m 1
 21 41 l 1
 21 43 l 1
 23 43 l 1
 23 41 l 1
31 29 m 1
 29 29 l 1
 29 31 l 1
 31 31 l 1
 31 29 l 1
25 33 m 1
 24 33 l 1
 24 35 l 1
 26 35 l 1
 26 34 l 1
 25 34 l 1
 25 33 l 1
28 33 m 1
 26 33 l 1
 26 34 l 1
 27 34 l 1
 27 35 l 1
 28 35 l 1
 28 33 l 1
31 33 m 1
 29 33 l 1
 29 35 l 1
 31 35 l 1
 31 33 l 1
36 31 m 1
 34 31 l 1
 34 33 l 1
 36 33 l 1
 36 31 l 1
26 41 m 1
 24 41 l 1
 24 43 l 1
 25 43 l 1
 25 42 l 1
 26 42 l 1
 26 41 l 1
28 41 m 1
 27 41 l 1
 27 42 l 1
 26 42 l 1
 26 43 l 1
 28 43 l 1
 28 41 l 1
31 41 m 1
 29 41 l 1
 29 43 l 1
 31 43 l 1
 31 41 l 1
36 35 m 1
 34 35 l 1
 34 37 l 1
 36 37 l 1
 36 35 l 1
41 25 m 1
 39 25 l 1
 39 27 l 1
 41 27 l 1
 41 25 l 1
44 25 m 1
 42 25 l 1
 42 27 l 1
 43 27 l 1
 43 26 l 1
 44 26 l 1
 44 25 l 1
46 25 m 1
 45 25 l 1
 45 26 l 1
 44 26 l 1
 44 27 l 1
 46 27 l 1
 46 25 l 1
49 25 m 1
 47 25 l 1
 47 27 l 1
 49 27 l 1
 49 25 l 1
55 25 m 1
 53 25 l 1
 53 27 l 1
 55 27 l 1
 55 25 l 1
58 25 m 1
 56 25 l 1
 56 27 l 1
 57 27 l 1
 57 26 l 1
 58 26 l 1
 58 25 l 1
60 25 m 1
 59 25 l 1
 59 26 l 1
 58 26 l 1
 58 27 l 1
 60 27 l 1
 60 25 l 1
63 25 m 1
 61 25 l 1
 61 27 l 1
 63 27 l 1
 63 25 l 1
41 29 m 1
 39 29 l 1
 39 31 l 1
 41 31 l 1
 41 29 l 1
41 33 m 1
 39 33 l 1
 39 35 l 1
 41 35 l 1
 41 33 l 1
43 33 m 1
 42 33 l 1
 42 35 l 1
 44 35 l 1
 44 34 l 1
 43 34 l 1
 43 33 l 1
46 33 m 1
 44 33 l 1
 44 34 l 1
 45 34 l 1
 45 35 l 1
 46 35 l 1
 46 33 l 1
55 29 m 1
 53 29 l 1
 53 31 l 1
 55 31 l 1
 55 29 l 1
49 33 m 1
 47 33 l 1
 47 35 l 1
 49 35 l 1
 49 33 l 1
55 33 m 1
 53 33 l 1
 53 35 l 1
 55 35 l 1
 55 33 l 1
41 41 m 1
 39 41 l 1
 39 43 l 1
 41 43 l 1
 41 41 l 1
44 41 m 1
 42 41 l 1
 42 43 l 1
 43 43 l 1
 43 42 l 1
 44 42 l 1
 44 41 l 1
46 41 m 1
 45 41 l 1
 45 42 l 1
 44 42 l 1
 44 43 l 1
 46 43 l 1
 46 41 l 1
49 37 m 1
 47 37 l 1
 47 39 l 1
 49 39 l 1
 49 37 l 1
49 41 m 1
 47 41 l 1
 47 43 l 1
 49 43 l 1
 49 41 l 1
55 41 m 1
 53 41 l 1
 53 43 l 1
 55 43 l 1
 55 41 l 1
57 33 m 1
 56 33 l 1
 56 35 l 1
 58 35 l 1
 58 34 l 1
 57 34 l 1
 57 33 l 1
60 33 m 1
 58 33 l 1
 58 34 l 1
 59 34 l 1
 59 35 l 1
 60 35 l 1
 60 33 l 1
63 33 m 1
 61 33 l 1
 61 35 l 1
 63 35 l 1
 63 33 l 1
63 37 m 1
 61 37 l 1
 61 39 l 1
 63 39 l 1
 63 37 l 1
58 41 m 1
 56 41 l 1
 56 43 l 1
 57 43 l 1
 57 42 l 1
 58 42 l 1
 58 41 l 1
60 41 m 1
 59 41 l 1
 59 42 l 1
 58 42 l 1
 58 43 l 1
 60 43 l 1
 60 41 l 1
63 41 m 1
 61 41 l 1
 61 43 l 1
 63 43 l 1
 63 41 l 1
EndSplineSet
Ligature2: "'liga' Standard Ligatures in Latin lookup 0-1" five five zero three zero
LCarets2: 1 0
EndChar

StartChar: custom_5_5_0_3_1
Encoding: 16787 -1 16542
Width: 70
Flags: H
LayerCount: 2
Fore
SplineSet
17 25 m 1
 15 25 l 1
 15 27 l 1
 17 27 l 1
 17 25 l 1
23 25 m 1
 21 25 l 1
 21 27 l 1
 23 27 l 1
 23 25 l 1
26 25 m 1
 24 25 l 1
 24 27 l 1
 25 27 l 1
 25 26 l 1
 26 26 l 1
 26 25 l 1
28 25 m 1
 27 25 l 1
 27 26 l 1
 26 26 l 1
 26 27 l 1
 28 27 l 1
 28 25 l 1
31 25 m 1
 29 25 l 1
 29 27 l 1
 31 27 l 1
 31 25 l 1
17 29 m 1
 15 29 l 1
 15 31 l 1
 17 31 l 1
 17 29 l 1
17 33 m 1
 15 33 l 1
 15 35 l 1
 17 35 l 1
 17 33 l 1
23 33 m 1
 21 33 l 1
 21 35 l 1
 23 35 l 1
 23 33 l 1
17 37 m 1
 15 37 l 1
 15 39 l 1
 17 39 l 1
 17 37 l 1
23 37 m 1
 21 37 l 1
 21 39 l 1
 23 39 l 1
 23 37 l 1
17 41 m 1
 15 41 l 1
 15 43 l 1
 17 43 l 1
 17 41 l 1
23 41 m 1
 21 41 l 1
 21 43 l 1
 23 43 l 1
 23 41 l 1
31 29 m 1
 29 29 l 1
 29 31 l 1
 31 31 l 1
 31 29 l 1
25 33 m 1
 24 33 l 1
 24 35 l 1
 26 35 l 1
 26 34 l 1
 25 34 l 1
 25 33 l 1
28 33 m 1
 26 33 l 1
 26 34 l 1
 27 34 l 1
 27 35 l 1
 28 35 l 1
 28 33 l 1
31 33 m 1
 29 33 l 1
 29 35 l 1
 31 35 l 1
 31 33 l 1
36 31 m 1
 34 31 l 1
 34 33 l 1
 36 33 l 1
 36 31 l 1
26 41 m 1
 24 41 l 1
 24 43 l 1
 25 43 l 1
 25 42 l 1
 26 42 l 1
 26 41 l 1
28 41 m 1
 27 41 l 1
 27 42 l 1
 26 42 l 1
 26 43 l 1
 28 43 l 1
 28 41 l 1
31 41 m 1
 29 41 l 1
 29 43 l 1
 31 43 l 1
 31 41 l 1
36 35 m 1
 34 35 l 1
 34 37 l 1
 36 37 l 1
 36 35 l 1
41 25 m 1
 39 25 l 1
 39 27 l 1
 41 27 l 1
 41 25 l 1
44 25 m 1
 42 25 l 1
 42 27 l 1
 43 27 l 1
 43 26 l 1
 44 26 l 1
 44 25 l 1
46 25 m 1
 45 25 l 1
 45 26 l 1
 44 26 l 1
 44 27 l 1
 46 27 l 1
 46 25 l 1
49 25 m 1
 47 25 l 1
 47 27 l 1
 49 27 l 1
 49 25 l 1
55 25 m 1
 53 25 l 1
 53 27 l 1
 55 27 l 1
 55 25 l 1
58 25 m 1
 56 25 l 1
 56 27 l 1
 57 27 l 1
 57 26 l 1
 58 26 l 1
 58 25 l 1
60 25 m 1
 59 25 l 1
 59 26 l 1
 58 26 l 1
 58 27 l 1
 60 27 l 1
 60 25 l 1
63 25 m 1
 61 25 l 1
 61 27 l 1
 63 27 l 1
 63 25 l 1
41 29 m 1
 39 29 l 1
 39 31 l 1
 41 31 l 1
 41 29 l 1
41 33 m 1
 39 33 l 1
 39 35 l 1
 41 35 l 1
 41 33 l 1
43 33 m 1
 42 33 l 1
 42 35 l 1
 44 35 l 1
 44 34 l 1
 43 34 l 1
 43 33 l 1
46 33 m 1
 44 33 l 1
 44 34 l 1
 45 34 l 1
 45 35 l 1
 46 35 l 1
 46 33 l 1
55 29 m 1
 53 29 l 1
 53 31 l 1
 55 31 l 1
 55 29 l 1
49 33 m 1
 47 33 l 1
 47 35 l 1
 49 35 l 1
 49 33 l 1
55 33 m 1
 53 33 l 1
 53 35 l 1
 55 35 l 1
 55 33 l 1
41 41 m 1
 39 41 l 1
 39 43 l 1
 41 43 l 1
 41 41 l 1
44 41 m 1
 42 41 l 1
 42 43 l 1
 43 43 l 1
 43 42 l 1
 44 42 l 1
 44 41 l 1
46 41 m 1
 45 41 l 1
 45 42 l 1
 44 42 l 1
 44 43 l 1
 46 43 l 1
 46 41 l 1
49 37 m 1
 47 37 l 1
 47 39 l 1
 49 39 l 1
 49 37 l 1
49 41 m 1
 47 41 l 1
 47 43 l 1
 49 43 l 1
 49 41 l 1
55 41 m 1
 53 41 l 1
 53 43 l 1
 55 43 l 1
 55 41 l 1
57 33 m 1
 56 33 l 1
 56 35 l 1
 58 35 l 1
 58 34 l 1
 57 34 l 1
 57 33 l 1
60 33 m 1
 58 33 l 1
 58 34 l 1
 59 34 l 1
 59 35 l 1
 60 35 l 1
 60 33 l 1
63 33 m 1
 61 33 l 1
 61 35 l 1
 63 35 l 1
 63 33 l 1
63 37 m 1
 61 37 l 1
 61 39 l 1
 63 39 l 1
 63 37 l 1
58 41 m 1
 56 41 l 1
 56 43 l 1
 57 43 l 1
 57 42 l 1
 58 42 l 1
 58 41 l 1
60 41 m 1
 59 41 l 1
 59 42 l 1
 58 42 l 1
 58 43 l 1
 60 43 l 1
 60 41 l 1
63 41 m 1
 61 41 l 1
 61 43 l 1
 63 43 l 1
 63 41 l 1
EndSplineSet
Ligature2: "'liga' Standard Ligatures in Latin lookup 0-1" five five zero three one
LCarets2: 1 0
EndChar

StartChar: custom_5_5_0_3_2
Encoding: 16788 -1 16543
Width: 70
Flags: H
LayerCount: 2
Fore
SplineSet
17 25 m 1
 15 25 l 1
 15 27 l 1
 17 27 l 1
 17 25 l 1
23 25 m 1
 21 25 l 1
 21 27 l 1
 23 27 l 1
 23 25 l 1
26 25 m 1
 24 25 l 1
 24 27 l 1
 25 27 l 1
 25 26 l 1
 26 26 l 1
 26 25 l 1
28 25 m 1
 27 25 l 1
 27 26 l 1
 26 26 l 1
 26 27 l 1
 28 27 l 1
 28 25 l 1
31 25 m 1
 29 25 l 1
 29 27 l 1
 31 27 l 1
 31 25 l 1
17 29 m 1
 15 29 l 1
 15 31 l 1
 17 31 l 1
 17 29 l 1
17 33 m 1
 15 33 l 1
 15 35 l 1
 17 35 l 1
 17 33 l 1
23 33 m 1
 21 33 l 1
 21 35 l 1
 23 35 l 1
 23 33 l 1
17 37 m 1
 15 37 l 1
 15 39 l 1
 17 39 l 1
 17 37 l 1
23 37 m 1
 21 37 l 1
 21 39 l 1
 23 39 l 1
 23 37 l 1
17 41 m 1
 15 41 l 1
 15 43 l 1
 17 43 l 1
 17 41 l 1
23 41 m 1
 21 41 l 1
 21 43 l 1
 23 43 l 1
 23 41 l 1
31 29 m 1
 29 29 l 1
 29 31 l 1
 31 31 l 1
 31 29 l 1
25 33 m 1
 24 33 l 1
 24 35 l 1
 26 35 l 1
 26 34 l 1
 25 34 l 1
 25 33 l 1
28 33 m 1
 26 33 l 1
 26 34 l 1
 27 34 l 1
 27 35 l 1
 28 35 l 1
 28 33 l 1
31 33 m 1
 29 33 l 1
 29 35 l 1
 31 35 l 1
 31 33 l 1
36 31 m 1
 34 31 l 1
 34 33 l 1
 36 33 l 1
 36 31 l 1
26 41 m 1
 24 41 l 1
 24 43 l 1
 25 43 l 1
 25 42 l 1
 26 42 l 1
 26 41 l 1
28 41 m 1
 27 41 l 1
 27 42 l 1
 26 42 l 1
 26 43 l 1
 28 43 l 1
 28 41 l 1
31 41 m 1
 29 41 l 1
 29 43 l 1
 31 43 l 1
 31 41 l 1
36 35 m 1
 34 35 l 1
 34 37 l 1
 36 37 l 1
 36 35 l 1
41 25 m 1
 39 25 l 1
 39 27 l 1
 41 27 l 1
 41 25 l 1
44 25 m 1
 42 25 l 1
 42 27 l 1
 43 27 l 1
 43 26 l 1
 44 26 l 1
 44 25 l 1
46 25 m 1
 45 25 l 1
 45 26 l 1
 44 26 l 1
 44 27 l 1
 46 27 l 1
 46 25 l 1
49 25 m 1
 47 25 l 1
 47 27 l 1
 49 27 l 1
 49 25 l 1
55 25 m 1
 53 25 l 1
 53 27 l 1
 55 27 l 1
 55 25 l 1
58 25 m 1
 56 25 l 1
 56 27 l 1
 57 27 l 1
 57 26 l 1
 58 26 l 1
 58 25 l 1
60 25 m 1
 59 25 l 1
 59 26 l 1
 58 26 l 1
 58 27 l 1
 60 27 l 1
 60 25 l 1
63 25 m 1
 61 25 l 1
 61 27 l 1
 63 27 l 1
 63 25 l 1
41 29 m 1
 39 29 l 1
 39 31 l 1
 41 31 l 1
 41 29 l 1
41 33 m 1
 39 33 l 1
 39 35 l 1
 41 35 l 1
 41 33 l 1
43 33 m 1
 42 33 l 1
 42 35 l 1
 44 35 l 1
 44 34 l 1
 43 34 l 1
 43 33 l 1
46 33 m 1
 44 33 l 1
 44 34 l 1
 45 34 l 1
 45 35 l 1
 46 35 l 1
 46 33 l 1
55 29 m 1
 53 29 l 1
 53 31 l 1
 55 31 l 1
 55 29 l 1
49 33 m 1
 47 33 l 1
 47 35 l 1
 49 35 l 1
 49 33 l 1
55 33 m 1
 53 33 l 1
 53 35 l 1
 55 35 l 1
 55 33 l 1
41 41 m 1
 39 41 l 1
 39 43 l 1
 41 43 l 1
 41 41 l 1
44 41 m 1
 42 41 l 1
 42 43 l 1
 43 43 l 1
 43 42 l 1
 44 42 l 1
 44 41 l 1
46 41 m 1
 45 41 l 1
 45 42 l 1
 44 42 l 1
 44 43 l 1
 46 43 l 1
 46 41 l 1
49 37 m 1
 47 37 l 1
 47 39 l 1
 49 39 l 1
 49 37 l 1
49 41 m 1
 47 41 l 1
 47 43 l 1
 49 43 l 1
 49 41 l 1
55 41 m 1
 53 41 l 1
 53 43 l 1
 55 43 l 1
 55 41 l 1
57 33 m 1
 56 33 l 1
 56 35 l 1
 58 35 l 1
 58 34 l 1
 57 34 l 1
 57 33 l 1
60 33 m 1
 58 33 l 1
 58 34 l 1
 59 34 l 1
 59 35 l 1
 60 35 l 1
 60 33 l 1
63 33 m 1
 61 33 l 1
 61 35 l 1
 63 35 l 1
 63 33 l 1
63 37 m 1
 61 37 l 1
 61 39 l 1
 63 39 l 1
 63 37 l 1
58 41 m 1
 56 41 l 1
 56 43 l 1
 57 43 l 1
 57 42 l 1
 58 42 l 1
 58 41 l 1
60 41 m 1
 59 41 l 1
 59 42 l 1
 58 42 l 1
 58 43 l 1
 60 43 l 1
 60 41 l 1
63 41 m 1
 61 41 l 1
 61 43 l 1
 63 43 l 1
 63 41 l 1
EndSplineSet
Ligature2: "'liga' Standard Ligatures in Latin lookup 0-1" five five zero three two
LCarets2: 1 0
EndChar

StartChar: custom_5_5_0_3_3
Encoding: 16789 -1 16544
Width: 70
Flags: H
LayerCount: 2
Fore
SplineSet
17 25 m 1
 15 25 l 1
 15 27 l 1
 17 27 l 1
 17 25 l 1
23 25 m 1
 21 25 l 1
 21 27 l 1
 23 27 l 1
 23 25 l 1
26 25 m 1
 24 25 l 1
 24 27 l 1
 25 27 l 1
 25 26 l 1
 26 26 l 1
 26 25 l 1
28 25 m 1
 27 25 l 1
 27 26 l 1
 26 26 l 1
 26 27 l 1
 28 27 l 1
 28 25 l 1
31 25 m 1
 29 25 l 1
 29 27 l 1
 31 27 l 1
 31 25 l 1
17 29 m 1
 15 29 l 1
 15 31 l 1
 17 31 l 1
 17 29 l 1
17 33 m 1
 15 33 l 1
 15 35 l 1
 17 35 l 1
 17 33 l 1
23 33 m 1
 21 33 l 1
 21 35 l 1
 23 35 l 1
 23 33 l 1
17 37 m 1
 15 37 l 1
 15 39 l 1
 17 39 l 1
 17 37 l 1
23 37 m 1
 21 37 l 1
 21 39 l 1
 23 39 l 1
 23 37 l 1
17 41 m 1
 15 41 l 1
 15 43 l 1
 17 43 l 1
 17 41 l 1
23 41 m 1
 21 41 l 1
 21 43 l 1
 23 43 l 1
 23 41 l 1
31 29 m 1
 29 29 l 1
 29 31 l 1
 31 31 l 1
 31 29 l 1
25 33 m 1
 24 33 l 1
 24 35 l 1
 26 35 l 1
 26 34 l 1
 25 34 l 1
 25 33 l 1
28 33 m 1
 26 33 l 1
 26 34 l 1
 27 34 l 1
 27 35 l 1
 28 35 l 1
 28 33 l 1
31 33 m 1
 29 33 l 1
 29 35 l 1
 31 35 l 1
 31 33 l 1
36 31 m 1
 34 31 l 1
 34 33 l 1
 36 33 l 1
 36 31 l 1
26 41 m 1
 24 41 l 1
 24 43 l 1
 25 43 l 1
 25 42 l 1
 26 42 l 1
 26 41 l 1
28 41 m 1
 27 41 l 1
 27 42 l 1
 26 42 l 1
 26 43 l 1
 28 43 l 1
 28 41 l 1
31 41 m 1
 29 41 l 1
 29 43 l 1
 31 43 l 1
 31 41 l 1
36 35 m 1
 34 35 l 1
 34 37 l 1
 36 37 l 1
 36 35 l 1
41 25 m 1
 39 25 l 1
 39 27 l 1
 41 27 l 1
 41 25 l 1
44 25 m 1
 42 25 l 1
 42 27 l 1
 43 27 l 1
 43 26 l 1
 44 26 l 1
 44 25 l 1
46 25 m 1
 45 25 l 1
 45 26 l 1
 44 26 l 1
 44 27 l 1
 46 27 l 1
 46 25 l 1
49 25 m 1
 47 25 l 1
 47 27 l 1
 49 27 l 1
 49 25 l 1
55 25 m 1
 53 25 l 1
 53 27 l 1
 55 27 l 1
 55 25 l 1
58 25 m 1
 56 25 l 1
 56 27 l 1
 57 27 l 1
 57 26 l 1
 58 26 l 1
 58 25 l 1
60 25 m 1
 59 25 l 1
 59 26 l 1
 58 26 l 1
 58 27 l 1
 60 27 l 1
 60 25 l 1
63 25 m 1
 61 25 l 1
 61 27 l 1
 63 27 l 1
 63 25 l 1
41 29 m 1
 39 29 l 1
 39 31 l 1
 41 31 l 1
 41 29 l 1
41 33 m 1
 39 33 l 1
 39 35 l 1
 41 35 l 1
 41 33 l 1
43 33 m 1
 42 33 l 1
 42 35 l 1
 44 35 l 1
 44 34 l 1
 43 34 l 1
 43 33 l 1
46 33 m 1
 44 33 l 1
 44 34 l 1
 45 34 l 1
 45 35 l 1
 46 35 l 1
 46 33 l 1
55 29 m 1
 53 29 l 1
 53 31 l 1
 55 31 l 1
 55 29 l 1
49 33 m 1
 47 33 l 1
 47 35 l 1
 49 35 l 1
 49 33 l 1
55 33 m 1
 53 33 l 1
 53 35 l 1
 55 35 l 1
 55 33 l 1
41 41 m 1
 39 41 l 1
 39 43 l 1
 41 43 l 1
 41 41 l 1
44 41 m 1
 42 41 l 1
 42 43 l 1
 43 43 l 1
 43 42 l 1
 44 42 l 1
 44 41 l 1
46 41 m 1
 45 41 l 1
 45 42 l 1
 44 42 l 1
 44 43 l 1
 46 43 l 1
 46 41 l 1
49 37 m 1
 47 37 l 1
 47 39 l 1
 49 39 l 1
 49 37 l 1
49 41 m 1
 47 41 l 1
 47 43 l 1
 49 43 l 1
 49 41 l 1
55 41 m 1
 53 41 l 1
 53 43 l 1
 55 43 l 1
 55 41 l 1
57 33 m 1
 56 33 l 1
 56 35 l 1
 58 35 l 1
 58 34 l 1
 57 34 l 1
 57 33 l 1
60 33 m 1
 58 33 l 1
 58 34 l 1
 59 34 l 1
 59 35 l 1
 60 35 l 1
 60 33 l 1
63 33 m 1
 61 33 l 1
 61 35 l 1
 63 35 l 1
 63 33 l 1
63 37 m 1
 61 37 l 1
 61 39 l 1
 63 39 l 1
 63 37 l 1
58 41 m 1
 56 41 l 1
 56 43 l 1
 57 43 l 1
 57 42 l 1
 58 42 l 1
 58 41 l 1
60 41 m 1
 59 41 l 1
 59 42 l 1
 58 42 l 1
 58 43 l 1
 60 43 l 1
 60 41 l 1
63 41 m 1
 61 41 l 1
 61 43 l 1
 63 43 l 1
 63 41 l 1
70 69 m 1
 69 69 l 1
 69 70 l 1
 70 70 l 1
 70 69 l 1
EndSplineSet
Ligature2: "'liga' Standard Ligatures in Latin lookup 0-1" five five zero three three
LCarets2: 1 0
EndChar

StartChar: custom_5_5_0_3_4
Encoding: 16790 -1 16545
Width: 70
Flags: H
LayerCount: 2
Fore
SplineSet
17 25 m 1
 15 25 l 1
 15 27 l 1
 17 27 l 1
 17 25 l 1
23 25 m 1
 21 25 l 1
 21 27 l 1
 23 27 l 1
 23 25 l 1
26 25 m 1
 24 25 l 1
 24 27 l 1
 25 27 l 1
 25 26 l 1
 26 26 l 1
 26 25 l 1
28 25 m 1
 27 25 l 1
 27 26 l 1
 26 26 l 1
 26 27 l 1
 28 27 l 1
 28 25 l 1
31 25 m 1
 29 25 l 1
 29 27 l 1
 31 27 l 1
 31 25 l 1
17 29 m 1
 15 29 l 1
 15 31 l 1
 17 31 l 1
 17 29 l 1
17 33 m 1
 15 33 l 1
 15 35 l 1
 17 35 l 1
 17 33 l 1
23 33 m 1
 21 33 l 1
 21 35 l 1
 23 35 l 1
 23 33 l 1
17 37 m 1
 15 37 l 1
 15 39 l 1
 17 39 l 1
 17 37 l 1
23 37 m 1
 21 37 l 1
 21 39 l 1
 23 39 l 1
 23 37 l 1
17 41 m 1
 15 41 l 1
 15 43 l 1
 17 43 l 1
 17 41 l 1
23 41 m 1
 21 41 l 1
 21 43 l 1
 23 43 l 1
 23 41 l 1
31 29 m 1
 29 29 l 1
 29 31 l 1
 31 31 l 1
 31 29 l 1
25 33 m 1
 24 33 l 1
 24 35 l 1
 26 35 l 1
 26 34 l 1
 25 34 l 1
 25 33 l 1
28 33 m 1
 26 33 l 1
 26 34 l 1
 27 34 l 1
 27 35 l 1
 28 35 l 1
 28 33 l 1
31 33 m 1
 29 33 l 1
 29 35 l 1
 31 35 l 1
 31 33 l 1
36 31 m 1
 34 31 l 1
 34 33 l 1
 36 33 l 1
 36 31 l 1
26 41 m 1
 24 41 l 1
 24 43 l 1
 25 43 l 1
 25 42 l 1
 26 42 l 1
 26 41 l 1
28 41 m 1
 27 41 l 1
 27 42 l 1
 26 42 l 1
 26 43 l 1
 28 43 l 1
 28 41 l 1
31 41 m 1
 29 41 l 1
 29 43 l 1
 31 43 l 1
 31 41 l 1
36 35 m 1
 34 35 l 1
 34 37 l 1
 36 37 l 1
 36 35 l 1
41 25 m 1
 39 25 l 1
 39 27 l 1
 41 27 l 1
 41 25 l 1
44 25 m 1
 42 25 l 1
 42 27 l 1
 43 27 l 1
 43 26 l 1
 44 26 l 1
 44 25 l 1
46 25 m 1
 45 25 l 1
 45 26 l 1
 44 26 l 1
 44 27 l 1
 46 27 l 1
 46 25 l 1
49 25 m 1
 47 25 l 1
 47 27 l 1
 49 27 l 1
 49 25 l 1
55 25 m 1
 53 25 l 1
 53 27 l 1
 55 27 l 1
 55 25 l 1
58 25 m 1
 56 25 l 1
 56 27 l 1
 57 27 l 1
 57 26 l 1
 58 26 l 1
 58 25 l 1
60 25 m 1
 59 25 l 1
 59 26 l 1
 58 26 l 1
 58 27 l 1
 60 27 l 1
 60 25 l 1
63 25 m 1
 61 25 l 1
 61 27 l 1
 63 27 l 1
 63 25 l 1
41 29 m 1
 39 29 l 1
 39 31 l 1
 41 31 l 1
 41 29 l 1
41 33 m 1
 39 33 l 1
 39 35 l 1
 41 35 l 1
 41 33 l 1
43 33 m 1
 42 33 l 1
 42 35 l 1
 44 35 l 1
 44 34 l 1
 43 34 l 1
 43 33 l 1
46 33 m 1
 44 33 l 1
 44 34 l 1
 45 34 l 1
 45 35 l 1
 46 35 l 1
 46 33 l 1
55 29 m 1
 53 29 l 1
 53 31 l 1
 55 31 l 1
 55 29 l 1
49 33 m 1
 47 33 l 1
 47 35 l 1
 49 35 l 1
 49 33 l 1
55 33 m 1
 53 33 l 1
 53 35 l 1
 55 35 l 1
 55 33 l 1
41 41 m 1
 39 41 l 1
 39 43 l 1
 41 43 l 1
 41 41 l 1
44 41 m 1
 42 41 l 1
 42 43 l 1
 43 43 l 1
 43 42 l 1
 44 42 l 1
 44 41 l 1
46 41 m 1
 45 41 l 1
 45 42 l 1
 44 42 l 1
 44 43 l 1
 46 43 l 1
 46 41 l 1
49 37 m 1
 47 37 l 1
 47 39 l 1
 49 39 l 1
 49 37 l 1
49 41 m 1
 47 41 l 1
 47 43 l 1
 49 43 l 1
 49 41 l 1
55 41 m 1
 53 41 l 1
 53 43 l 1
 55 43 l 1
 55 41 l 1
57 33 m 1
 56 33 l 1
 56 35 l 1
 58 35 l 1
 58 34 l 1
 57 34 l 1
 57 33 l 1
60 33 m 1
 58 33 l 1
 58 34 l 1
 59 34 l 1
 59 35 l 1
 60 35 l 1
 60 33 l 1
63 33 m 1
 61 33 l 1
 61 35 l 1
 63 35 l 1
 63 33 l 1
63 37 m 1
 61 37 l 1
 61 39 l 1
 63 39 l 1
 63 37 l 1
58 41 m 1
 56 41 l 1
 56 43 l 1
 57 43 l 1
 57 42 l 1
 58 42 l 1
 58 41 l 1
60 41 m 1
 59 41 l 1
 59 42 l 1
 58 42 l 1
 58 43 l 1
 60 43 l 1
 60 41 l 1
63 41 m 1
 61 41 l 1
 61 43 l 1
 63 43 l 1
 63 41 l 1
70 69 m 1
 69 69 l 1
 69 70 l 1
 70 70 l 1
 70 69 l 1
EndSplineSet
Ligature2: "'liga' Standard Ligatures in Latin lookup 0-1" five five zero three four
LCarets2: 1 0
EndChar

StartChar: custom_5_5_0_3_5
Encoding: 16791 -1 16546
Width: 70
Flags: H
LayerCount: 2
Fore
SplineSet
17 25 m 1
 15 25 l 1
 15 27 l 1
 17 27 l 1
 17 25 l 1
23 25 m 1
 21 25 l 1
 21 27 l 1
 23 27 l 1
 23 25 l 1
26 25 m 1
 24 25 l 1
 24 27 l 1
 25 27 l 1
 25 26 l 1
 26 26 l 1
 26 25 l 1
28 25 m 1
 27 25 l 1
 27 26 l 1
 26 26 l 1
 26 27 l 1
 28 27 l 1
 28 25 l 1
31 25 m 1
 29 25 l 1
 29 27 l 1
 31 27 l 1
 31 25 l 1
17 29 m 1
 15 29 l 1
 15 31 l 1
 17 31 l 1
 17 29 l 1
17 33 m 1
 15 33 l 1
 15 35 l 1
 17 35 l 1
 17 33 l 1
23 33 m 1
 21 33 l 1
 21 35 l 1
 23 35 l 1
 23 33 l 1
17 37 m 1
 15 37 l 1
 15 39 l 1
 17 39 l 1
 17 37 l 1
23 37 m 1
 21 37 l 1
 21 39 l 1
 23 39 l 1
 23 37 l 1
17 41 m 1
 15 41 l 1
 15 43 l 1
 17 43 l 1
 17 41 l 1
23 41 m 1
 21 41 l 1
 21 43 l 1
 23 43 l 1
 23 41 l 1
31 29 m 1
 29 29 l 1
 29 31 l 1
 31 31 l 1
 31 29 l 1
25 33 m 1
 24 33 l 1
 24 35 l 1
 26 35 l 1
 26 34 l 1
 25 34 l 1
 25 33 l 1
28 33 m 1
 26 33 l 1
 26 34 l 1
 27 34 l 1
 27 35 l 1
 28 35 l 1
 28 33 l 1
31 33 m 1
 29 33 l 1
 29 35 l 1
 31 35 l 1
 31 33 l 1
36 31 m 1
 34 31 l 1
 34 33 l 1
 36 33 l 1
 36 31 l 1
26 41 m 1
 24 41 l 1
 24 43 l 1
 25 43 l 1
 25 42 l 1
 26 42 l 1
 26 41 l 1
28 41 m 1
 27 41 l 1
 27 42 l 1
 26 42 l 1
 26 43 l 1
 28 43 l 1
 28 41 l 1
31 41 m 1
 29 41 l 1
 29 43 l 1
 31 43 l 1
 31 41 l 1
36 35 m 1
 34 35 l 1
 34 37 l 1
 36 37 l 1
 36 35 l 1
41 25 m 1
 39 25 l 1
 39 27 l 1
 41 27 l 1
 41 25 l 1
44 25 m 1
 42 25 l 1
 42 27 l 1
 43 27 l 1
 43 26 l 1
 44 26 l 1
 44 25 l 1
46 25 m 1
 45 25 l 1
 45 26 l 1
 44 26 l 1
 44 27 l 1
 46 27 l 1
 46 25 l 1
49 25 m 1
 47 25 l 1
 47 27 l 1
 49 27 l 1
 49 25 l 1
55 25 m 1
 53 25 l 1
 53 27 l 1
 55 27 l 1
 55 25 l 1
58 25 m 1
 56 25 l 1
 56 27 l 1
 57 27 l 1
 57 26 l 1
 58 26 l 1
 58 25 l 1
60 25 m 1
 59 25 l 1
 59 26 l 1
 58 26 l 1
 58 27 l 1
 60 27 l 1
 60 25 l 1
63 25 m 1
 61 25 l 1
 61 27 l 1
 63 27 l 1
 63 25 l 1
41 29 m 1
 39 29 l 1
 39 31 l 1
 41 31 l 1
 41 29 l 1
41 33 m 1
 39 33 l 1
 39 35 l 1
 41 35 l 1
 41 33 l 1
43 33 m 1
 42 33 l 1
 42 35 l 1
 44 35 l 1
 44 34 l 1
 43 34 l 1
 43 33 l 1
46 33 m 1
 44 33 l 1
 44 34 l 1
 45 34 l 1
 45 35 l 1
 46 35 l 1
 46 33 l 1
55 29 m 1
 53 29 l 1
 53 31 l 1
 55 31 l 1
 55 29 l 1
49 33 m 1
 47 33 l 1
 47 35 l 1
 49 35 l 1
 49 33 l 1
55 33 m 1
 53 33 l 1
 53 35 l 1
 55 35 l 1
 55 33 l 1
41 41 m 1
 39 41 l 1
 39 43 l 1
 41 43 l 1
 41 41 l 1
44 41 m 1
 42 41 l 1
 42 43 l 1
 43 43 l 1
 43 42 l 1
 44 42 l 1
 44 41 l 1
46 41 m 1
 45 41 l 1
 45 42 l 1
 44 42 l 1
 44 43 l 1
 46 43 l 1
 46 41 l 1
49 37 m 1
 47 37 l 1
 47 39 l 1
 49 39 l 1
 49 37 l 1
49 41 m 1
 47 41 l 1
 47 43 l 1
 49 43 l 1
 49 41 l 1
55 41 m 1
 53 41 l 1
 53 43 l 1
 55 43 l 1
 55 41 l 1
57 33 m 1
 56 33 l 1
 56 35 l 1
 58 35 l 1
 58 34 l 1
 57 34 l 1
 57 33 l 1
60 33 m 1
 58 33 l 1
 58 34 l 1
 59 34 l 1
 59 35 l 1
 60 35 l 1
 60 33 l 1
63 33 m 1
 61 33 l 1
 61 35 l 1
 63 35 l 1
 63 33 l 1
63 37 m 1
 61 37 l 1
 61 39 l 1
 63 39 l 1
 63 37 l 1
58 41 m 1
 56 41 l 1
 56 43 l 1
 57 43 l 1
 57 42 l 1
 58 42 l 1
 58 41 l 1
60 41 m 1
 59 41 l 1
 59 42 l 1
 58 42 l 1
 58 43 l 1
 60 43 l 1
 60 41 l 1
63 41 m 1
 61 41 l 1
 61 43 l 1
 63 43 l 1
 63 41 l 1
70 68 m 1
 69 68 l 1
 69 70 l 1
 70 70 l 1
 70 68 l 1
EndSplineSet
Ligature2: "'liga' Standard Ligatures in Latin lookup 0-1" five five zero three five
LCarets2: 1 0
EndChar

StartChar: custom_5_5_0_3_6
Encoding: 16792 -1 16547
Width: 70
Flags: H
LayerCount: 2
Fore
SplineSet
17 25 m 1
 15 25 l 1
 15 27 l 1
 17 27 l 1
 17 25 l 1
23 25 m 1
 21 25 l 1
 21 27 l 1
 23 27 l 1
 23 25 l 1
26 25 m 1
 24 25 l 1
 24 27 l 1
 25 27 l 1
 25 26 l 1
 26 26 l 1
 26 25 l 1
28 25 m 1
 27 25 l 1
 27 26 l 1
 26 26 l 1
 26 27 l 1
 28 27 l 1
 28 25 l 1
31 25 m 1
 29 25 l 1
 29 27 l 1
 31 27 l 1
 31 25 l 1
17 29 m 1
 15 29 l 1
 15 31 l 1
 17 31 l 1
 17 29 l 1
17 33 m 1
 15 33 l 1
 15 35 l 1
 17 35 l 1
 17 33 l 1
23 33 m 1
 21 33 l 1
 21 35 l 1
 23 35 l 1
 23 33 l 1
17 37 m 1
 15 37 l 1
 15 39 l 1
 17 39 l 1
 17 37 l 1
23 37 m 1
 21 37 l 1
 21 39 l 1
 23 39 l 1
 23 37 l 1
17 41 m 1
 15 41 l 1
 15 43 l 1
 17 43 l 1
 17 41 l 1
23 41 m 1
 21 41 l 1
 21 43 l 1
 23 43 l 1
 23 41 l 1
31 29 m 1
 29 29 l 1
 29 31 l 1
 31 31 l 1
 31 29 l 1
25 33 m 1
 24 33 l 1
 24 35 l 1
 26 35 l 1
 26 34 l 1
 25 34 l 1
 25 33 l 1
28 33 m 1
 26 33 l 1
 26 34 l 1
 27 34 l 1
 27 35 l 1
 28 35 l 1
 28 33 l 1
31 33 m 1
 29 33 l 1
 29 35 l 1
 31 35 l 1
 31 33 l 1
36 31 m 1
 34 31 l 1
 34 33 l 1
 36 33 l 1
 36 31 l 1
26 41 m 1
 24 41 l 1
 24 43 l 1
 25 43 l 1
 25 42 l 1
 26 42 l 1
 26 41 l 1
28 41 m 1
 27 41 l 1
 27 42 l 1
 26 42 l 1
 26 43 l 1
 28 43 l 1
 28 41 l 1
31 41 m 1
 29 41 l 1
 29 43 l 1
 31 43 l 1
 31 41 l 1
36 35 m 1
 34 35 l 1
 34 37 l 1
 36 37 l 1
 36 35 l 1
41 25 m 1
 39 25 l 1
 39 27 l 1
 41 27 l 1
 41 25 l 1
44 25 m 1
 42 25 l 1
 42 27 l 1
 43 27 l 1
 43 26 l 1
 44 26 l 1
 44 25 l 1
46 25 m 1
 45 25 l 1
 45 26 l 1
 44 26 l 1
 44 27 l 1
 46 27 l 1
 46 25 l 1
49 25 m 1
 47 25 l 1
 47 27 l 1
 49 27 l 1
 49 25 l 1
55 25 m 1
 53 25 l 1
 53 27 l 1
 55 27 l 1
 55 25 l 1
58 25 m 1
 56 25 l 1
 56 27 l 1
 57 27 l 1
 57 26 l 1
 58 26 l 1
 58 25 l 1
60 25 m 1
 59 25 l 1
 59 26 l 1
 58 26 l 1
 58 27 l 1
 60 27 l 1
 60 25 l 1
63 25 m 1
 61 25 l 1
 61 27 l 1
 63 27 l 1
 63 25 l 1
41 29 m 1
 39 29 l 1
 39 31 l 1
 41 31 l 1
 41 29 l 1
41 33 m 1
 39 33 l 1
 39 35 l 1
 41 35 l 1
 41 33 l 1
43 33 m 1
 42 33 l 1
 42 35 l 1
 44 35 l 1
 44 34 l 1
 43 34 l 1
 43 33 l 1
46 33 m 1
 44 33 l 1
 44 34 l 1
 45 34 l 1
 45 35 l 1
 46 35 l 1
 46 33 l 1
55 29 m 1
 53 29 l 1
 53 31 l 1
 55 31 l 1
 55 29 l 1
49 33 m 1
 47 33 l 1
 47 35 l 1
 49 35 l 1
 49 33 l 1
55 33 m 1
 53 33 l 1
 53 35 l 1
 55 35 l 1
 55 33 l 1
41 41 m 1
 39 41 l 1
 39 43 l 1
 41 43 l 1
 41 41 l 1
44 41 m 1
 42 41 l 1
 42 43 l 1
 43 43 l 1
 43 42 l 1
 44 42 l 1
 44 41 l 1
46 41 m 1
 45 41 l 1
 45 42 l 1
 44 42 l 1
 44 43 l 1
 46 43 l 1
 46 41 l 1
49 37 m 1
 47 37 l 1
 47 39 l 1
 49 39 l 1
 49 37 l 1
49 41 m 1
 47 41 l 1
 47 43 l 1
 49 43 l 1
 49 41 l 1
55 41 m 1
 53 41 l 1
 53 43 l 1
 55 43 l 1
 55 41 l 1
57 33 m 1
 56 33 l 1
 56 35 l 1
 58 35 l 1
 58 34 l 1
 57 34 l 1
 57 33 l 1
60 33 m 1
 58 33 l 1
 58 34 l 1
 59 34 l 1
 59 35 l 1
 60 35 l 1
 60 33 l 1
63 33 m 1
 61 33 l 1
 61 35 l 1
 63 35 l 1
 63 33 l 1
63 37 m 1
 61 37 l 1
 61 39 l 1
 63 39 l 1
 63 37 l 1
58 41 m 1
 56 41 l 1
 56 43 l 1
 57 43 l 1
 57 42 l 1
 58 42 l 1
 58 41 l 1
60 41 m 1
 59 41 l 1
 59 42 l 1
 58 42 l 1
 58 43 l 1
 60 43 l 1
 60 41 l 1
63 41 m 1
 61 41 l 1
 61 43 l 1
 63 43 l 1
 63 41 l 1
69 69 m 1
 68 69 l 1
 68 70 l 1
 70 70 l 1
 70 68 l 1
 69 68 l 1
 69 69 l 1
EndSplineSet
Ligature2: "'liga' Standard Ligatures in Latin lookup 0-1" five five zero three six
LCarets2: 1 0
EndChar

StartChar: custom_5_5_0_3_7
Encoding: 16793 -1 16548
Width: 70
Flags: H
LayerCount: 2
Fore
SplineSet
17 25 m 1
 15 25 l 1
 15 27 l 1
 17 27 l 1
 17 25 l 1
23 25 m 1
 21 25 l 1
 21 27 l 1
 23 27 l 1
 23 25 l 1
26 25 m 1
 24 25 l 1
 24 27 l 1
 25 27 l 1
 25 26 l 1
 26 26 l 1
 26 25 l 1
28 25 m 1
 27 25 l 1
 27 26 l 1
 26 26 l 1
 26 27 l 1
 28 27 l 1
 28 25 l 1
31 25 m 1
 29 25 l 1
 29 27 l 1
 31 27 l 1
 31 25 l 1
17 29 m 1
 15 29 l 1
 15 31 l 1
 17 31 l 1
 17 29 l 1
17 33 m 1
 15 33 l 1
 15 35 l 1
 17 35 l 1
 17 33 l 1
23 33 m 1
 21 33 l 1
 21 35 l 1
 23 35 l 1
 23 33 l 1
17 37 m 1
 15 37 l 1
 15 39 l 1
 17 39 l 1
 17 37 l 1
23 37 m 1
 21 37 l 1
 21 39 l 1
 23 39 l 1
 23 37 l 1
17 41 m 1
 15 41 l 1
 15 43 l 1
 17 43 l 1
 17 41 l 1
23 41 m 1
 21 41 l 1
 21 43 l 1
 23 43 l 1
 23 41 l 1
31 29 m 1
 29 29 l 1
 29 31 l 1
 31 31 l 1
 31 29 l 1
25 33 m 1
 24 33 l 1
 24 35 l 1
 26 35 l 1
 26 34 l 1
 25 34 l 1
 25 33 l 1
28 33 m 1
 26 33 l 1
 26 34 l 1
 27 34 l 1
 27 35 l 1
 28 35 l 1
 28 33 l 1
31 33 m 1
 29 33 l 1
 29 35 l 1
 31 35 l 1
 31 33 l 1
36 31 m 1
 34 31 l 1
 34 33 l 1
 36 33 l 1
 36 31 l 1
26 41 m 1
 24 41 l 1
 24 43 l 1
 25 43 l 1
 25 42 l 1
 26 42 l 1
 26 41 l 1
28 41 m 1
 27 41 l 1
 27 42 l 1
 26 42 l 1
 26 43 l 1
 28 43 l 1
 28 41 l 1
31 41 m 1
 29 41 l 1
 29 43 l 1
 31 43 l 1
 31 41 l 1
36 35 m 1
 34 35 l 1
 34 37 l 1
 36 37 l 1
 36 35 l 1
41 25 m 1
 39 25 l 1
 39 27 l 1
 41 27 l 1
 41 25 l 1
44 25 m 1
 42 25 l 1
 42 27 l 1
 43 27 l 1
 43 26 l 1
 44 26 l 1
 44 25 l 1
46 25 m 1
 45 25 l 1
 45 26 l 1
 44 26 l 1
 44 27 l 1
 46 27 l 1
 46 25 l 1
49 25 m 1
 47 25 l 1
 47 27 l 1
 49 27 l 1
 49 25 l 1
55 25 m 1
 53 25 l 1
 53 27 l 1
 55 27 l 1
 55 25 l 1
58 25 m 1
 56 25 l 1
 56 27 l 1
 57 27 l 1
 57 26 l 1
 58 26 l 1
 58 25 l 1
60 25 m 1
 59 25 l 1
 59 26 l 1
 58 26 l 1
 58 27 l 1
 60 27 l 1
 60 25 l 1
63 25 m 1
 61 25 l 1
 61 27 l 1
 63 27 l 1
 63 25 l 1
41 29 m 1
 39 29 l 1
 39 31 l 1
 41 31 l 1
 41 29 l 1
41 33 m 1
 39 33 l 1
 39 35 l 1
 41 35 l 1
 41 33 l 1
43 33 m 1
 42 33 l 1
 42 35 l 1
 44 35 l 1
 44 34 l 1
 43 34 l 1
 43 33 l 1
46 33 m 1
 44 33 l 1
 44 34 l 1
 45 34 l 1
 45 35 l 1
 46 35 l 1
 46 33 l 1
55 29 m 1
 53 29 l 1
 53 31 l 1
 55 31 l 1
 55 29 l 1
49 33 m 1
 47 33 l 1
 47 35 l 1
 49 35 l 1
 49 33 l 1
55 33 m 1
 53 33 l 1
 53 35 l 1
 55 35 l 1
 55 33 l 1
41 41 m 1
 39 41 l 1
 39 43 l 1
 41 43 l 1
 41 41 l 1
44 41 m 1
 42 41 l 1
 42 43 l 1
 43 43 l 1
 43 42 l 1
 44 42 l 1
 44 41 l 1
46 41 m 1
 45 41 l 1
 45 42 l 1
 44 42 l 1
 44 43 l 1
 46 43 l 1
 46 41 l 1
49 37 m 1
 47 37 l 1
 47 39 l 1
 49 39 l 1
 49 37 l 1
49 41 m 1
 47 41 l 1
 47 43 l 1
 49 43 l 1
 49 41 l 1
55 41 m 1
 53 41 l 1
 53 43 l 1
 55 43 l 1
 55 41 l 1
57 33 m 1
 56 33 l 1
 56 35 l 1
 58 35 l 1
 58 34 l 1
 57 34 l 1
 57 33 l 1
60 33 m 1
 58 33 l 1
 58 34 l 1
 59 34 l 1
 59 35 l 1
 60 35 l 1
 60 33 l 1
63 33 m 1
 61 33 l 1
 61 35 l 1
 63 35 l 1
 63 33 l 1
63 37 m 1
 61 37 l 1
 61 39 l 1
 63 39 l 1
 63 37 l 1
58 41 m 1
 56 41 l 1
 56 43 l 1
 57 43 l 1
 57 42 l 1
 58 42 l 1
 58 41 l 1
60 41 m 1
 59 41 l 1
 59 42 l 1
 58 42 l 1
 58 43 l 1
 60 43 l 1
 60 41 l 1
63 41 m 1
 61 41 l 1
 61 43 l 1
 63 43 l 1
 63 41 l 1
70 68 m 1
 68 68 l 1
 68 70 l 1
 69 70 l 1
 69 69 l 1
 70 69 l 1
 70 68 l 1
EndSplineSet
Ligature2: "'liga' Standard Ligatures in Latin lookup 0-1" five five zero three seven
LCarets2: 1 0
EndChar

StartChar: custom_5_5_0_3_8
Encoding: 16794 -1 16549
Width: 70
Flags: H
LayerCount: 2
Fore
SplineSet
17 25 m 1
 15 25 l 1
 15 27 l 1
 17 27 l 1
 17 25 l 1
23 25 m 1
 21 25 l 1
 21 27 l 1
 23 27 l 1
 23 25 l 1
26 25 m 1
 24 25 l 1
 24 27 l 1
 25 27 l 1
 25 26 l 1
 26 26 l 1
 26 25 l 1
28 25 m 1
 27 25 l 1
 27 26 l 1
 26 26 l 1
 26 27 l 1
 28 27 l 1
 28 25 l 1
31 25 m 1
 29 25 l 1
 29 27 l 1
 31 27 l 1
 31 25 l 1
17 29 m 1
 15 29 l 1
 15 31 l 1
 17 31 l 1
 17 29 l 1
17 33 m 1
 15 33 l 1
 15 35 l 1
 17 35 l 1
 17 33 l 1
23 33 m 1
 21 33 l 1
 21 35 l 1
 23 35 l 1
 23 33 l 1
17 37 m 1
 15 37 l 1
 15 39 l 1
 17 39 l 1
 17 37 l 1
23 37 m 1
 21 37 l 1
 21 39 l 1
 23 39 l 1
 23 37 l 1
17 41 m 1
 15 41 l 1
 15 43 l 1
 17 43 l 1
 17 41 l 1
23 41 m 1
 21 41 l 1
 21 43 l 1
 23 43 l 1
 23 41 l 1
31 29 m 1
 29 29 l 1
 29 31 l 1
 31 31 l 1
 31 29 l 1
25 33 m 1
 24 33 l 1
 24 35 l 1
 26 35 l 1
 26 34 l 1
 25 34 l 1
 25 33 l 1
28 33 m 1
 26 33 l 1
 26 34 l 1
 27 34 l 1
 27 35 l 1
 28 35 l 1
 28 33 l 1
31 33 m 1
 29 33 l 1
 29 35 l 1
 31 35 l 1
 31 33 l 1
36 31 m 1
 34 31 l 1
 34 33 l 1
 36 33 l 1
 36 31 l 1
26 41 m 1
 24 41 l 1
 24 43 l 1
 25 43 l 1
 25 42 l 1
 26 42 l 1
 26 41 l 1
28 41 m 1
 27 41 l 1
 27 42 l 1
 26 42 l 1
 26 43 l 1
 28 43 l 1
 28 41 l 1
31 41 m 1
 29 41 l 1
 29 43 l 1
 31 43 l 1
 31 41 l 1
36 35 m 1
 34 35 l 1
 34 37 l 1
 36 37 l 1
 36 35 l 1
41 25 m 1
 39 25 l 1
 39 27 l 1
 41 27 l 1
 41 25 l 1
44 25 m 1
 42 25 l 1
 42 27 l 1
 43 27 l 1
 43 26 l 1
 44 26 l 1
 44 25 l 1
46 25 m 1
 45 25 l 1
 45 26 l 1
 44 26 l 1
 44 27 l 1
 46 27 l 1
 46 25 l 1
49 25 m 1
 47 25 l 1
 47 27 l 1
 49 27 l 1
 49 25 l 1
55 25 m 1
 53 25 l 1
 53 27 l 1
 55 27 l 1
 55 25 l 1
58 25 m 1
 56 25 l 1
 56 27 l 1
 57 27 l 1
 57 26 l 1
 58 26 l 1
 58 25 l 1
60 25 m 1
 59 25 l 1
 59 26 l 1
 58 26 l 1
 58 27 l 1
 60 27 l 1
 60 25 l 1
63 25 m 1
 61 25 l 1
 61 27 l 1
 63 27 l 1
 63 25 l 1
41 29 m 1
 39 29 l 1
 39 31 l 1
 41 31 l 1
 41 29 l 1
41 33 m 1
 39 33 l 1
 39 35 l 1
 41 35 l 1
 41 33 l 1
43 33 m 1
 42 33 l 1
 42 35 l 1
 44 35 l 1
 44 34 l 1
 43 34 l 1
 43 33 l 1
46 33 m 1
 44 33 l 1
 44 34 l 1
 45 34 l 1
 45 35 l 1
 46 35 l 1
 46 33 l 1
55 29 m 1
 53 29 l 1
 53 31 l 1
 55 31 l 1
 55 29 l 1
49 33 m 1
 47 33 l 1
 47 35 l 1
 49 35 l 1
 49 33 l 1
55 33 m 1
 53 33 l 1
 53 35 l 1
 55 35 l 1
 55 33 l 1
41 41 m 1
 39 41 l 1
 39 43 l 1
 41 43 l 1
 41 41 l 1
44 41 m 1
 42 41 l 1
 42 43 l 1
 43 43 l 1
 43 42 l 1
 44 42 l 1
 44 41 l 1
46 41 m 1
 45 41 l 1
 45 42 l 1
 44 42 l 1
 44 43 l 1
 46 43 l 1
 46 41 l 1
49 37 m 1
 47 37 l 1
 47 39 l 1
 49 39 l 1
 49 37 l 1
49 41 m 1
 47 41 l 1
 47 43 l 1
 49 43 l 1
 49 41 l 1
55 41 m 1
 53 41 l 1
 53 43 l 1
 55 43 l 1
 55 41 l 1
57 33 m 1
 56 33 l 1
 56 35 l 1
 58 35 l 1
 58 34 l 1
 57 34 l 1
 57 33 l 1
60 33 m 1
 58 33 l 1
 58 34 l 1
 59 34 l 1
 59 35 l 1
 60 35 l 1
 60 33 l 1
63 33 m 1
 61 33 l 1
 61 35 l 1
 63 35 l 1
 63 33 l 1
63 37 m 1
 61 37 l 1
 61 39 l 1
 63 39 l 1
 63 37 l 1
58 41 m 1
 56 41 l 1
 56 43 l 1
 57 43 l 1
 57 42 l 1
 58 42 l 1
 58 41 l 1
60 41 m 1
 59 41 l 1
 59 42 l 1
 58 42 l 1
 58 43 l 1
 60 43 l 1
 60 41 l 1
63 41 m 1
 61 41 l 1
 61 43 l 1
 63 43 l 1
 63 41 l 1
70 67 m 1
 69 67 l 1
 69 68 l 1
 68 68 l 1
 68 70 l 1
 69 70 l 1
 69 69 l 1
 70 69 l 1
 70 67 l 1
EndSplineSet
Ligature2: "'liga' Standard Ligatures in Latin lookup 0-1" five five zero three eight
LCarets2: 1 0
EndChar

StartChar: custom_5_5_0_3_9
Encoding: 16795 -1 16550
Width: 70
Flags: H
LayerCount: 2
Fore
SplineSet
17 25 m 1
 15 25 l 1
 15 27 l 1
 17 27 l 1
 17 25 l 1
23 25 m 1
 21 25 l 1
 21 27 l 1
 23 27 l 1
 23 25 l 1
26 25 m 1
 24 25 l 1
 24 27 l 1
 25 27 l 1
 25 26 l 1
 26 26 l 1
 26 25 l 1
28 25 m 1
 27 25 l 1
 27 26 l 1
 26 26 l 1
 26 27 l 1
 28 27 l 1
 28 25 l 1
31 25 m 1
 29 25 l 1
 29 27 l 1
 31 27 l 1
 31 25 l 1
17 29 m 1
 15 29 l 1
 15 31 l 1
 17 31 l 1
 17 29 l 1
17 33 m 1
 15 33 l 1
 15 35 l 1
 17 35 l 1
 17 33 l 1
23 33 m 1
 21 33 l 1
 21 35 l 1
 23 35 l 1
 23 33 l 1
17 37 m 1
 15 37 l 1
 15 39 l 1
 17 39 l 1
 17 37 l 1
23 37 m 1
 21 37 l 1
 21 39 l 1
 23 39 l 1
 23 37 l 1
17 41 m 1
 15 41 l 1
 15 43 l 1
 17 43 l 1
 17 41 l 1
23 41 m 1
 21 41 l 1
 21 43 l 1
 23 43 l 1
 23 41 l 1
31 29 m 1
 29 29 l 1
 29 31 l 1
 31 31 l 1
 31 29 l 1
25 33 m 1
 24 33 l 1
 24 35 l 1
 26 35 l 1
 26 34 l 1
 25 34 l 1
 25 33 l 1
28 33 m 1
 26 33 l 1
 26 34 l 1
 27 34 l 1
 27 35 l 1
 28 35 l 1
 28 33 l 1
31 33 m 1
 29 33 l 1
 29 35 l 1
 31 35 l 1
 31 33 l 1
36 31 m 1
 34 31 l 1
 34 33 l 1
 36 33 l 1
 36 31 l 1
26 41 m 1
 24 41 l 1
 24 43 l 1
 25 43 l 1
 25 42 l 1
 26 42 l 1
 26 41 l 1
28 41 m 1
 27 41 l 1
 27 42 l 1
 26 42 l 1
 26 43 l 1
 28 43 l 1
 28 41 l 1
31 41 m 1
 29 41 l 1
 29 43 l 1
 31 43 l 1
 31 41 l 1
36 35 m 1
 34 35 l 1
 34 37 l 1
 36 37 l 1
 36 35 l 1
41 25 m 1
 39 25 l 1
 39 27 l 1
 41 27 l 1
 41 25 l 1
44 25 m 1
 42 25 l 1
 42 27 l 1
 43 27 l 1
 43 26 l 1
 44 26 l 1
 44 25 l 1
46 25 m 1
 45 25 l 1
 45 26 l 1
 44 26 l 1
 44 27 l 1
 46 27 l 1
 46 25 l 1
49 25 m 1
 47 25 l 1
 47 27 l 1
 49 27 l 1
 49 25 l 1
55 25 m 1
 53 25 l 1
 53 27 l 1
 55 27 l 1
 55 25 l 1
58 25 m 1
 56 25 l 1
 56 27 l 1
 57 27 l 1
 57 26 l 1
 58 26 l 1
 58 25 l 1
60 25 m 1
 59 25 l 1
 59 26 l 1
 58 26 l 1
 58 27 l 1
 60 27 l 1
 60 25 l 1
63 25 m 1
 61 25 l 1
 61 27 l 1
 63 27 l 1
 63 25 l 1
41 29 m 1
 39 29 l 1
 39 31 l 1
 41 31 l 1
 41 29 l 1
41 33 m 1
 39 33 l 1
 39 35 l 1
 41 35 l 1
 41 33 l 1
43 33 m 1
 42 33 l 1
 42 35 l 1
 44 35 l 1
 44 34 l 1
 43 34 l 1
 43 33 l 1
46 33 m 1
 44 33 l 1
 44 34 l 1
 45 34 l 1
 45 35 l 1
 46 35 l 1
 46 33 l 1
55 29 m 1
 53 29 l 1
 53 31 l 1
 55 31 l 1
 55 29 l 1
49 33 m 1
 47 33 l 1
 47 35 l 1
 49 35 l 1
 49 33 l 1
55 33 m 1
 53 33 l 1
 53 35 l 1
 55 35 l 1
 55 33 l 1
41 41 m 1
 39 41 l 1
 39 43 l 1
 41 43 l 1
 41 41 l 1
44 41 m 1
 42 41 l 1
 42 43 l 1
 43 43 l 1
 43 42 l 1
 44 42 l 1
 44 41 l 1
46 41 m 1
 45 41 l 1
 45 42 l 1
 44 42 l 1
 44 43 l 1
 46 43 l 1
 46 41 l 1
49 37 m 1
 47 37 l 1
 47 39 l 1
 49 39 l 1
 49 37 l 1
49 41 m 1
 47 41 l 1
 47 43 l 1
 49 43 l 1
 49 41 l 1
55 41 m 1
 53 41 l 1
 53 43 l 1
 55 43 l 1
 55 41 l 1
57 33 m 1
 56 33 l 1
 56 35 l 1
 58 35 l 1
 58 34 l 1
 57 34 l 1
 57 33 l 1
60 33 m 1
 58 33 l 1
 58 34 l 1
 59 34 l 1
 59 35 l 1
 60 35 l 1
 60 33 l 1
63 33 m 1
 61 33 l 1
 61 35 l 1
 63 35 l 1
 63 33 l 1
63 37 m 1
 61 37 l 1
 61 39 l 1
 63 39 l 1
 63 37 l 1
58 41 m 1
 56 41 l 1
 56 43 l 1
 57 43 l 1
 57 42 l 1
 58 42 l 1
 58 41 l 1
60 41 m 1
 59 41 l 1
 59 42 l 1
 58 42 l 1
 58 43 l 1
 60 43 l 1
 60 41 l 1
63 41 m 1
 61 41 l 1
 61 43 l 1
 63 43 l 1
 63 41 l 1
70 67 m 1
 68 67 l 1
 68 70 l 1
 69 70 l 1
 69 68 l 1
 70 68 l 1
 70 67 l 1
EndSplineSet
Ligature2: "'liga' Standard Ligatures in Latin lookup 0-1" five five zero three nine
LCarets2: 1 0
EndChar

StartChar: custom_5_5_0_4_0
Encoding: 16796 -1 16551
Width: 70
Flags: H
LayerCount: 2
Fore
SplineSet
17 25 m 1
 15 25 l 1
 15 27 l 1
 17 27 l 1
 17 25 l 1
23 25 m 1
 21 25 l 1
 21 27 l 1
 23 27 l 1
 23 25 l 1
26 25 m 1
 24 25 l 1
 24 27 l 1
 25 27 l 1
 25 26 l 1
 26 26 l 1
 26 25 l 1
28 25 m 1
 27 25 l 1
 27 26 l 1
 26 26 l 1
 26 27 l 1
 28 27 l 1
 28 25 l 1
31 25 m 1
 29 25 l 1
 29 27 l 1
 31 27 l 1
 31 25 l 1
17 29 m 1
 15 29 l 1
 15 31 l 1
 17 31 l 1
 17 29 l 1
17 33 m 1
 15 33 l 1
 15 35 l 1
 17 35 l 1
 17 33 l 1
23 33 m 1
 21 33 l 1
 21 35 l 1
 23 35 l 1
 23 33 l 1
17 37 m 1
 15 37 l 1
 15 39 l 1
 17 39 l 1
 17 37 l 1
23 37 m 1
 21 37 l 1
 21 39 l 1
 23 39 l 1
 23 37 l 1
17 41 m 1
 15 41 l 1
 15 43 l 1
 17 43 l 1
 17 41 l 1
23 41 m 1
 21 41 l 1
 21 43 l 1
 23 43 l 1
 23 41 l 1
31 29 m 1
 29 29 l 1
 29 31 l 1
 31 31 l 1
 31 29 l 1
25 33 m 1
 24 33 l 1
 24 35 l 1
 26 35 l 1
 26 34 l 1
 25 34 l 1
 25 33 l 1
28 33 m 1
 26 33 l 1
 26 34 l 1
 27 34 l 1
 27 35 l 1
 28 35 l 1
 28 33 l 1
31 33 m 1
 29 33 l 1
 29 35 l 1
 31 35 l 1
 31 33 l 1
36 31 m 1
 34 31 l 1
 34 33 l 1
 36 33 l 1
 36 31 l 1
26 41 m 1
 24 41 l 1
 24 43 l 1
 25 43 l 1
 25 42 l 1
 26 42 l 1
 26 41 l 1
28 41 m 1
 27 41 l 1
 27 42 l 1
 26 42 l 1
 26 43 l 1
 28 43 l 1
 28 41 l 1
31 41 m 1
 29 41 l 1
 29 43 l 1
 31 43 l 1
 31 41 l 1
36 35 m 1
 34 35 l 1
 34 37 l 1
 36 37 l 1
 36 35 l 1
41 25 m 1
 39 25 l 1
 39 27 l 1
 41 27 l 1
 41 25 l 1
44 25 m 1
 42 25 l 1
 42 27 l 1
 43 27 l 1
 43 26 l 1
 44 26 l 1
 44 25 l 1
46 25 m 1
 45 25 l 1
 45 26 l 1
 44 26 l 1
 44 27 l 1
 46 27 l 1
 46 25 l 1
49 25 m 1
 47 25 l 1
 47 27 l 1
 49 27 l 1
 49 25 l 1
55 25 m 1
 53 25 l 1
 53 27 l 1
 55 27 l 1
 55 25 l 1
58 25 m 1
 56 25 l 1
 56 27 l 1
 57 27 l 1
 57 26 l 1
 58 26 l 1
 58 25 l 1
60 25 m 1
 59 25 l 1
 59 26 l 1
 58 26 l 1
 58 27 l 1
 60 27 l 1
 60 25 l 1
63 25 m 1
 61 25 l 1
 61 27 l 1
 63 27 l 1
 63 25 l 1
41 29 m 1
 39 29 l 1
 39 31 l 1
 41 31 l 1
 41 29 l 1
41 33 m 1
 39 33 l 1
 39 35 l 1
 41 35 l 1
 41 33 l 1
43 33 m 1
 42 33 l 1
 42 35 l 1
 44 35 l 1
 44 34 l 1
 43 34 l 1
 43 33 l 1
46 33 m 1
 44 33 l 1
 44 34 l 1
 45 34 l 1
 45 35 l 1
 46 35 l 1
 46 33 l 1
55 29 m 1
 53 29 l 1
 53 31 l 1
 55 31 l 1
 55 29 l 1
49 33 m 1
 47 33 l 1
 47 35 l 1
 49 35 l 1
 49 33 l 1
55 33 m 1
 53 33 l 1
 53 35 l 1
 55 35 l 1
 55 33 l 1
41 41 m 1
 39 41 l 1
 39 43 l 1
 41 43 l 1
 41 41 l 1
44 41 m 1
 42 41 l 1
 42 43 l 1
 43 43 l 1
 43 42 l 1
 44 42 l 1
 44 41 l 1
46 41 m 1
 45 41 l 1
 45 42 l 1
 44 42 l 1
 44 43 l 1
 46 43 l 1
 46 41 l 1
49 37 m 1
 47 37 l 1
 47 39 l 1
 49 39 l 1
 49 37 l 1
49 41 m 1
 47 41 l 1
 47 43 l 1
 49 43 l 1
 49 41 l 1
55 41 m 1
 53 41 l 1
 53 43 l 1
 55 43 l 1
 55 41 l 1
57 33 m 1
 56 33 l 1
 56 35 l 1
 58 35 l 1
 58 34 l 1
 57 34 l 1
 57 33 l 1
60 33 m 1
 58 33 l 1
 58 34 l 1
 59 34 l 1
 59 35 l 1
 60 35 l 1
 60 33 l 1
63 33 m 1
 61 33 l 1
 61 35 l 1
 63 35 l 1
 63 33 l 1
63 37 m 1
 61 37 l 1
 61 39 l 1
 63 39 l 1
 63 37 l 1
58 41 m 1
 56 41 l 1
 56 43 l 1
 57 43 l 1
 57 42 l 1
 58 42 l 1
 58 41 l 1
60 41 m 1
 59 41 l 1
 59 42 l 1
 58 42 l 1
 58 43 l 1
 60 43 l 1
 60 41 l 1
63 41 m 1
 61 41 l 1
 61 43 l 1
 63 43 l 1
 63 41 l 1
70 67 m 1
 68 67 l 1
 68 68 l 1
 67 68 l 1
 67 69 l 1
 69 69 l 1
 69 68 l 1
 70 68 l 1
 70 67 l 1
70 69 m 1
 69 69 l 1
 69 70 l 1
 70 70 l 1
 70 69 l 1
EndSplineSet
Ligature2: "'liga' Standard Ligatures in Latin lookup 0-1" five five zero four zero
LCarets2: 1 0
EndChar

StartChar: custom_5_5_0_4_1
Encoding: 16797 -1 16552
Width: 70
Flags: H
LayerCount: 2
Fore
SplineSet
17 25 m 1
 15 25 l 1
 15 27 l 1
 17 27 l 1
 17 25 l 1
23 25 m 1
 21 25 l 1
 21 27 l 1
 23 27 l 1
 23 25 l 1
26 25 m 1
 24 25 l 1
 24 27 l 1
 25 27 l 1
 25 26 l 1
 26 26 l 1
 26 25 l 1
28 25 m 1
 27 25 l 1
 27 26 l 1
 26 26 l 1
 26 27 l 1
 28 27 l 1
 28 25 l 1
31 25 m 1
 29 25 l 1
 29 27 l 1
 31 27 l 1
 31 25 l 1
17 29 m 1
 15 29 l 1
 15 31 l 1
 17 31 l 1
 17 29 l 1
17 33 m 1
 15 33 l 1
 15 35 l 1
 17 35 l 1
 17 33 l 1
23 33 m 1
 21 33 l 1
 21 35 l 1
 23 35 l 1
 23 33 l 1
17 37 m 1
 15 37 l 1
 15 39 l 1
 17 39 l 1
 17 37 l 1
23 37 m 1
 21 37 l 1
 21 39 l 1
 23 39 l 1
 23 37 l 1
17 41 m 1
 15 41 l 1
 15 43 l 1
 17 43 l 1
 17 41 l 1
23 41 m 1
 21 41 l 1
 21 43 l 1
 23 43 l 1
 23 41 l 1
31 29 m 1
 29 29 l 1
 29 31 l 1
 31 31 l 1
 31 29 l 1
25 33 m 1
 24 33 l 1
 24 35 l 1
 26 35 l 1
 26 34 l 1
 25 34 l 1
 25 33 l 1
28 33 m 1
 26 33 l 1
 26 34 l 1
 27 34 l 1
 27 35 l 1
 28 35 l 1
 28 33 l 1
31 33 m 1
 29 33 l 1
 29 35 l 1
 31 35 l 1
 31 33 l 1
36 31 m 1
 34 31 l 1
 34 33 l 1
 36 33 l 1
 36 31 l 1
26 41 m 1
 24 41 l 1
 24 43 l 1
 25 43 l 1
 25 42 l 1
 26 42 l 1
 26 41 l 1
28 41 m 1
 27 41 l 1
 27 42 l 1
 26 42 l 1
 26 43 l 1
 28 43 l 1
 28 41 l 1
31 41 m 1
 29 41 l 1
 29 43 l 1
 31 43 l 1
 31 41 l 1
36 35 m 1
 34 35 l 1
 34 37 l 1
 36 37 l 1
 36 35 l 1
41 25 m 1
 39 25 l 1
 39 27 l 1
 41 27 l 1
 41 25 l 1
44 25 m 1
 42 25 l 1
 42 27 l 1
 43 27 l 1
 43 26 l 1
 44 26 l 1
 44 25 l 1
46 25 m 1
 45 25 l 1
 45 26 l 1
 44 26 l 1
 44 27 l 1
 46 27 l 1
 46 25 l 1
49 25 m 1
 47 25 l 1
 47 27 l 1
 49 27 l 1
 49 25 l 1
55 25 m 1
 53 25 l 1
 53 27 l 1
 55 27 l 1
 55 25 l 1
58 25 m 1
 56 25 l 1
 56 27 l 1
 57 27 l 1
 57 26 l 1
 58 26 l 1
 58 25 l 1
60 25 m 1
 59 25 l 1
 59 26 l 1
 58 26 l 1
 58 27 l 1
 60 27 l 1
 60 25 l 1
63 25 m 1
 61 25 l 1
 61 27 l 1
 63 27 l 1
 63 25 l 1
41 29 m 1
 39 29 l 1
 39 31 l 1
 41 31 l 1
 41 29 l 1
41 33 m 1
 39 33 l 1
 39 35 l 1
 41 35 l 1
 41 33 l 1
43 33 m 1
 42 33 l 1
 42 35 l 1
 44 35 l 1
 44 34 l 1
 43 34 l 1
 43 33 l 1
46 33 m 1
 44 33 l 1
 44 34 l 1
 45 34 l 1
 45 35 l 1
 46 35 l 1
 46 33 l 1
55 29 m 1
 53 29 l 1
 53 31 l 1
 55 31 l 1
 55 29 l 1
49 33 m 1
 47 33 l 1
 47 35 l 1
 49 35 l 1
 49 33 l 1
55 33 m 1
 53 33 l 1
 53 35 l 1
 55 35 l 1
 55 33 l 1
41 41 m 1
 39 41 l 1
 39 43 l 1
 41 43 l 1
 41 41 l 1
44 41 m 1
 42 41 l 1
 42 43 l 1
 43 43 l 1
 43 42 l 1
 44 42 l 1
 44 41 l 1
46 41 m 1
 45 41 l 1
 45 42 l 1
 44 42 l 1
 44 43 l 1
 46 43 l 1
 46 41 l 1
49 37 m 1
 47 37 l 1
 47 39 l 1
 49 39 l 1
 49 37 l 1
49 41 m 1
 47 41 l 1
 47 43 l 1
 49 43 l 1
 49 41 l 1
55 41 m 1
 53 41 l 1
 53 43 l 1
 55 43 l 1
 55 41 l 1
57 33 m 1
 56 33 l 1
 56 35 l 1
 58 35 l 1
 58 34 l 1
 57 34 l 1
 57 33 l 1
60 33 m 1
 58 33 l 1
 58 34 l 1
 59 34 l 1
 59 35 l 1
 60 35 l 1
 60 33 l 1
63 33 m 1
 61 33 l 1
 61 35 l 1
 63 35 l 1
 63 33 l 1
63 37 m 1
 61 37 l 1
 61 39 l 1
 63 39 l 1
 63 37 l 1
58 41 m 1
 56 41 l 1
 56 43 l 1
 57 43 l 1
 57 42 l 1
 58 42 l 1
 58 41 l 1
60 41 m 1
 59 41 l 1
 59 42 l 1
 58 42 l 1
 58 43 l 1
 60 43 l 1
 60 41 l 1
63 41 m 1
 61 41 l 1
 61 43 l 1
 63 43 l 1
 63 41 l 1
70 67 m 1
 67 67 l 1
 67 69 l 1
 68 69 l 1
 68 68 l 1
 70 68 l 1
 70 67 l 1
69 69 m 1
 68 69 l 1
 68 70 l 1
 69 70 l 1
 69 69 l 1
EndSplineSet
Ligature2: "'liga' Standard Ligatures in Latin lookup 0-1" five five zero four one
LCarets2: 1 0
EndChar

StartChar: custom_5_5_0_4_2
Encoding: 16798 -1 16553
Width: 70
Flags: H
LayerCount: 2
Fore
SplineSet
17 25 m 1
 15 25 l 1
 15 27 l 1
 17 27 l 1
 17 25 l 1
23 25 m 1
 21 25 l 1
 21 27 l 1
 23 27 l 1
 23 25 l 1
26 25 m 1
 24 25 l 1
 24 27 l 1
 25 27 l 1
 25 26 l 1
 26 26 l 1
 26 25 l 1
28 25 m 1
 27 25 l 1
 27 26 l 1
 26 26 l 1
 26 27 l 1
 28 27 l 1
 28 25 l 1
31 25 m 1
 29 25 l 1
 29 27 l 1
 31 27 l 1
 31 25 l 1
17 29 m 1
 15 29 l 1
 15 31 l 1
 17 31 l 1
 17 29 l 1
17 33 m 1
 15 33 l 1
 15 35 l 1
 17 35 l 1
 17 33 l 1
23 33 m 1
 21 33 l 1
 21 35 l 1
 23 35 l 1
 23 33 l 1
17 37 m 1
 15 37 l 1
 15 39 l 1
 17 39 l 1
 17 37 l 1
23 37 m 1
 21 37 l 1
 21 39 l 1
 23 39 l 1
 23 37 l 1
17 41 m 1
 15 41 l 1
 15 43 l 1
 17 43 l 1
 17 41 l 1
23 41 m 1
 21 41 l 1
 21 43 l 1
 23 43 l 1
 23 41 l 1
31 29 m 1
 29 29 l 1
 29 31 l 1
 31 31 l 1
 31 29 l 1
25 33 m 1
 24 33 l 1
 24 35 l 1
 26 35 l 1
 26 34 l 1
 25 34 l 1
 25 33 l 1
28 33 m 1
 26 33 l 1
 26 34 l 1
 27 34 l 1
 27 35 l 1
 28 35 l 1
 28 33 l 1
31 33 m 1
 29 33 l 1
 29 35 l 1
 31 35 l 1
 31 33 l 1
36 31 m 1
 34 31 l 1
 34 33 l 1
 36 33 l 1
 36 31 l 1
26 41 m 1
 24 41 l 1
 24 43 l 1
 25 43 l 1
 25 42 l 1
 26 42 l 1
 26 41 l 1
28 41 m 1
 27 41 l 1
 27 42 l 1
 26 42 l 1
 26 43 l 1
 28 43 l 1
 28 41 l 1
31 41 m 1
 29 41 l 1
 29 43 l 1
 31 43 l 1
 31 41 l 1
36 35 m 1
 34 35 l 1
 34 37 l 1
 36 37 l 1
 36 35 l 1
41 25 m 1
 39 25 l 1
 39 27 l 1
 41 27 l 1
 41 25 l 1
44 25 m 1
 42 25 l 1
 42 27 l 1
 43 27 l 1
 43 26 l 1
 44 26 l 1
 44 25 l 1
46 25 m 1
 45 25 l 1
 45 26 l 1
 44 26 l 1
 44 27 l 1
 46 27 l 1
 46 25 l 1
49 25 m 1
 47 25 l 1
 47 27 l 1
 49 27 l 1
 49 25 l 1
55 25 m 1
 53 25 l 1
 53 27 l 1
 55 27 l 1
 55 25 l 1
58 25 m 1
 56 25 l 1
 56 27 l 1
 57 27 l 1
 57 26 l 1
 58 26 l 1
 58 25 l 1
60 25 m 1
 59 25 l 1
 59 26 l 1
 58 26 l 1
 58 27 l 1
 60 27 l 1
 60 25 l 1
63 25 m 1
 61 25 l 1
 61 27 l 1
 63 27 l 1
 63 25 l 1
41 29 m 1
 39 29 l 1
 39 31 l 1
 41 31 l 1
 41 29 l 1
41 33 m 1
 39 33 l 1
 39 35 l 1
 41 35 l 1
 41 33 l 1
43 33 m 1
 42 33 l 1
 42 35 l 1
 44 35 l 1
 44 34 l 1
 43 34 l 1
 43 33 l 1
46 33 m 1
 44 33 l 1
 44 34 l 1
 45 34 l 1
 45 35 l 1
 46 35 l 1
 46 33 l 1
55 29 m 1
 53 29 l 1
 53 31 l 1
 55 31 l 1
 55 29 l 1
49 33 m 1
 47 33 l 1
 47 35 l 1
 49 35 l 1
 49 33 l 1
55 33 m 1
 53 33 l 1
 53 35 l 1
 55 35 l 1
 55 33 l 1
41 41 m 1
 39 41 l 1
 39 43 l 1
 41 43 l 1
 41 41 l 1
44 41 m 1
 42 41 l 1
 42 43 l 1
 43 43 l 1
 43 42 l 1
 44 42 l 1
 44 41 l 1
46 41 m 1
 45 41 l 1
 45 42 l 1
 44 42 l 1
 44 43 l 1
 46 43 l 1
 46 41 l 1
49 37 m 1
 47 37 l 1
 47 39 l 1
 49 39 l 1
 49 37 l 1
49 41 m 1
 47 41 l 1
 47 43 l 1
 49 43 l 1
 49 41 l 1
55 41 m 1
 53 41 l 1
 53 43 l 1
 55 43 l 1
 55 41 l 1
57 33 m 1
 56 33 l 1
 56 35 l 1
 58 35 l 1
 58 34 l 1
 57 34 l 1
 57 33 l 1
60 33 m 1
 58 33 l 1
 58 34 l 1
 59 34 l 1
 59 35 l 1
 60 35 l 1
 60 33 l 1
63 33 m 1
 61 33 l 1
 61 35 l 1
 63 35 l 1
 63 33 l 1
63 37 m 1
 61 37 l 1
 61 39 l 1
 63 39 l 1
 63 37 l 1
58 41 m 1
 56 41 l 1
 56 43 l 1
 57 43 l 1
 57 42 l 1
 58 42 l 1
 58 41 l 1
60 41 m 1
 59 41 l 1
 59 42 l 1
 58 42 l 1
 58 43 l 1
 60 43 l 1
 60 41 l 1
63 41 m 1
 61 41 l 1
 61 43 l 1
 63 43 l 1
 63 41 l 1
69 66 m 1
 68 66 l 1
 68 67 l 1
 67 67 l 1
 67 69 l 1
 68 69 l 1
 68 68 l 1
 69 68 l 1
 69 66 l 1
70 68 m 1
 69 68 l 1
 69 69 l 1
 70 69 l 1
 70 68 l 1
EndSplineSet
Ligature2: "'liga' Standard Ligatures in Latin lookup 0-1" five five zero four two
LCarets2: 1 0
EndChar

StartChar: custom_5_5_0_4_3
Encoding: 16799 -1 16554
Width: 70
Flags: H
LayerCount: 2
Fore
SplineSet
17 25 m 1
 15 25 l 1
 15 27 l 1
 17 27 l 1
 17 25 l 1
23 25 m 1
 21 25 l 1
 21 27 l 1
 23 27 l 1
 23 25 l 1
26 25 m 1
 24 25 l 1
 24 27 l 1
 25 27 l 1
 25 26 l 1
 26 26 l 1
 26 25 l 1
28 25 m 1
 27 25 l 1
 27 26 l 1
 26 26 l 1
 26 27 l 1
 28 27 l 1
 28 25 l 1
31 25 m 1
 29 25 l 1
 29 27 l 1
 31 27 l 1
 31 25 l 1
17 29 m 1
 15 29 l 1
 15 31 l 1
 17 31 l 1
 17 29 l 1
17 33 m 1
 15 33 l 1
 15 35 l 1
 17 35 l 1
 17 33 l 1
23 33 m 1
 21 33 l 1
 21 35 l 1
 23 35 l 1
 23 33 l 1
17 37 m 1
 15 37 l 1
 15 39 l 1
 17 39 l 1
 17 37 l 1
23 37 m 1
 21 37 l 1
 21 39 l 1
 23 39 l 1
 23 37 l 1
17 41 m 1
 15 41 l 1
 15 43 l 1
 17 43 l 1
 17 41 l 1
23 41 m 1
 21 41 l 1
 21 43 l 1
 23 43 l 1
 23 41 l 1
31 29 m 1
 29 29 l 1
 29 31 l 1
 31 31 l 1
 31 29 l 1
25 33 m 1
 24 33 l 1
 24 35 l 1
 26 35 l 1
 26 34 l 1
 25 34 l 1
 25 33 l 1
28 33 m 1
 26 33 l 1
 26 34 l 1
 27 34 l 1
 27 35 l 1
 28 35 l 1
 28 33 l 1
31 33 m 1
 29 33 l 1
 29 35 l 1
 31 35 l 1
 31 33 l 1
36 31 m 1
 34 31 l 1
 34 33 l 1
 36 33 l 1
 36 31 l 1
26 41 m 1
 24 41 l 1
 24 43 l 1
 25 43 l 1
 25 42 l 1
 26 42 l 1
 26 41 l 1
28 41 m 1
 27 41 l 1
 27 42 l 1
 26 42 l 1
 26 43 l 1
 28 43 l 1
 28 41 l 1
31 41 m 1
 29 41 l 1
 29 43 l 1
 31 43 l 1
 31 41 l 1
36 35 m 1
 34 35 l 1
 34 37 l 1
 36 37 l 1
 36 35 l 1
41 25 m 1
 39 25 l 1
 39 27 l 1
 41 27 l 1
 41 25 l 1
44 25 m 1
 42 25 l 1
 42 27 l 1
 43 27 l 1
 43 26 l 1
 44 26 l 1
 44 25 l 1
46 25 m 1
 45 25 l 1
 45 26 l 1
 44 26 l 1
 44 27 l 1
 46 27 l 1
 46 25 l 1
49 25 m 1
 47 25 l 1
 47 27 l 1
 49 27 l 1
 49 25 l 1
55 25 m 1
 53 25 l 1
 53 27 l 1
 55 27 l 1
 55 25 l 1
58 25 m 1
 56 25 l 1
 56 27 l 1
 57 27 l 1
 57 26 l 1
 58 26 l 1
 58 25 l 1
60 25 m 1
 59 25 l 1
 59 26 l 1
 58 26 l 1
 58 27 l 1
 60 27 l 1
 60 25 l 1
63 25 m 1
 61 25 l 1
 61 27 l 1
 63 27 l 1
 63 25 l 1
41 29 m 1
 39 29 l 1
 39 31 l 1
 41 31 l 1
 41 29 l 1
41 33 m 1
 39 33 l 1
 39 35 l 1
 41 35 l 1
 41 33 l 1
43 33 m 1
 42 33 l 1
 42 35 l 1
 44 35 l 1
 44 34 l 1
 43 34 l 1
 43 33 l 1
46 33 m 1
 44 33 l 1
 44 34 l 1
 45 34 l 1
 45 35 l 1
 46 35 l 1
 46 33 l 1
55 29 m 1
 53 29 l 1
 53 31 l 1
 55 31 l 1
 55 29 l 1
49 33 m 1
 47 33 l 1
 47 35 l 1
 49 35 l 1
 49 33 l 1
55 33 m 1
 53 33 l 1
 53 35 l 1
 55 35 l 1
 55 33 l 1
41 41 m 1
 39 41 l 1
 39 43 l 1
 41 43 l 1
 41 41 l 1
44 41 m 1
 42 41 l 1
 42 43 l 1
 43 43 l 1
 43 42 l 1
 44 42 l 1
 44 41 l 1
46 41 m 1
 45 41 l 1
 45 42 l 1
 44 42 l 1
 44 43 l 1
 46 43 l 1
 46 41 l 1
49 37 m 1
 47 37 l 1
 47 39 l 1
 49 39 l 1
 49 37 l 1
49 41 m 1
 47 41 l 1
 47 43 l 1
 49 43 l 1
 49 41 l 1
55 41 m 1
 53 41 l 1
 53 43 l 1
 55 43 l 1
 55 41 l 1
57 33 m 1
 56 33 l 1
 56 35 l 1
 58 35 l 1
 58 34 l 1
 57 34 l 1
 57 33 l 1
60 33 m 1
 58 33 l 1
 58 34 l 1
 59 34 l 1
 59 35 l 1
 60 35 l 1
 60 33 l 1
63 33 m 1
 61 33 l 1
 61 35 l 1
 63 35 l 1
 63 33 l 1
63 37 m 1
 61 37 l 1
 61 39 l 1
 63 39 l 1
 63 37 l 1
58 41 m 1
 56 41 l 1
 56 43 l 1
 57 43 l 1
 57 42 l 1
 58 42 l 1
 58 41 l 1
60 41 m 1
 59 41 l 1
 59 42 l 1
 58 42 l 1
 58 43 l 1
 60 43 l 1
 60 41 l 1
63 41 m 1
 61 41 l 1
 61 43 l 1
 63 43 l 1
 63 41 l 1
69 66 m 1
 67 66 l 1
 67 69 l 1
 68 69 l 1
 68 67 l 1
 69 67 l 1
 69 66 l 1
70 67 m 1
 69 67 l 1
 69 68 l 1
 70 68 l 1
 70 67 l 1
EndSplineSet
Ligature2: "'liga' Standard Ligatures in Latin lookup 0-1" five five zero four three
LCarets2: 1 0
EndChar

StartChar: custom_5_5_0_4_4
Encoding: 16800 -1 16555
Width: 70
Flags: H
LayerCount: 2
Fore
SplineSet
17 25 m 1
 15 25 l 1
 15 27 l 1
 17 27 l 1
 17 25 l 1
23 25 m 1
 21 25 l 1
 21 27 l 1
 23 27 l 1
 23 25 l 1
26 25 m 1
 24 25 l 1
 24 27 l 1
 25 27 l 1
 25 26 l 1
 26 26 l 1
 26 25 l 1
28 25 m 1
 27 25 l 1
 27 26 l 1
 26 26 l 1
 26 27 l 1
 28 27 l 1
 28 25 l 1
31 25 m 1
 29 25 l 1
 29 27 l 1
 31 27 l 1
 31 25 l 1
17 29 m 1
 15 29 l 1
 15 31 l 1
 17 31 l 1
 17 29 l 1
17 33 m 1
 15 33 l 1
 15 35 l 1
 17 35 l 1
 17 33 l 1
23 33 m 1
 21 33 l 1
 21 35 l 1
 23 35 l 1
 23 33 l 1
17 37 m 1
 15 37 l 1
 15 39 l 1
 17 39 l 1
 17 37 l 1
23 37 m 1
 21 37 l 1
 21 39 l 1
 23 39 l 1
 23 37 l 1
17 41 m 1
 15 41 l 1
 15 43 l 1
 17 43 l 1
 17 41 l 1
23 41 m 1
 21 41 l 1
 21 43 l 1
 23 43 l 1
 23 41 l 1
31 29 m 1
 29 29 l 1
 29 31 l 1
 31 31 l 1
 31 29 l 1
25 33 m 1
 24 33 l 1
 24 35 l 1
 26 35 l 1
 26 34 l 1
 25 34 l 1
 25 33 l 1
28 33 m 1
 26 33 l 1
 26 34 l 1
 27 34 l 1
 27 35 l 1
 28 35 l 1
 28 33 l 1
31 33 m 1
 29 33 l 1
 29 35 l 1
 31 35 l 1
 31 33 l 1
36 31 m 1
 34 31 l 1
 34 33 l 1
 36 33 l 1
 36 31 l 1
26 41 m 1
 24 41 l 1
 24 43 l 1
 25 43 l 1
 25 42 l 1
 26 42 l 1
 26 41 l 1
28 41 m 1
 27 41 l 1
 27 42 l 1
 26 42 l 1
 26 43 l 1
 28 43 l 1
 28 41 l 1
31 41 m 1
 29 41 l 1
 29 43 l 1
 31 43 l 1
 31 41 l 1
36 35 m 1
 34 35 l 1
 34 37 l 1
 36 37 l 1
 36 35 l 1
41 25 m 1
 39 25 l 1
 39 27 l 1
 41 27 l 1
 41 25 l 1
44 25 m 1
 42 25 l 1
 42 27 l 1
 43 27 l 1
 43 26 l 1
 44 26 l 1
 44 25 l 1
46 25 m 1
 45 25 l 1
 45 26 l 1
 44 26 l 1
 44 27 l 1
 46 27 l 1
 46 25 l 1
49 25 m 1
 47 25 l 1
 47 27 l 1
 49 27 l 1
 49 25 l 1
55 25 m 1
 53 25 l 1
 53 27 l 1
 55 27 l 1
 55 25 l 1
58 25 m 1
 56 25 l 1
 56 27 l 1
 57 27 l 1
 57 26 l 1
 58 26 l 1
 58 25 l 1
60 25 m 1
 59 25 l 1
 59 26 l 1
 58 26 l 1
 58 27 l 1
 60 27 l 1
 60 25 l 1
63 25 m 1
 61 25 l 1
 61 27 l 1
 63 27 l 1
 63 25 l 1
41 29 m 1
 39 29 l 1
 39 31 l 1
 41 31 l 1
 41 29 l 1
41 33 m 1
 39 33 l 1
 39 35 l 1
 41 35 l 1
 41 33 l 1
43 33 m 1
 42 33 l 1
 42 35 l 1
 44 35 l 1
 44 34 l 1
 43 34 l 1
 43 33 l 1
46 33 m 1
 44 33 l 1
 44 34 l 1
 45 34 l 1
 45 35 l 1
 46 35 l 1
 46 33 l 1
55 29 m 1
 53 29 l 1
 53 31 l 1
 55 31 l 1
 55 29 l 1
49 33 m 1
 47 33 l 1
 47 35 l 1
 49 35 l 1
 49 33 l 1
55 33 m 1
 53 33 l 1
 53 35 l 1
 55 35 l 1
 55 33 l 1
41 41 m 1
 39 41 l 1
 39 43 l 1
 41 43 l 1
 41 41 l 1
44 41 m 1
 42 41 l 1
 42 43 l 1
 43 43 l 1
 43 42 l 1
 44 42 l 1
 44 41 l 1
46 41 m 1
 45 41 l 1
 45 42 l 1
 44 42 l 1
 44 43 l 1
 46 43 l 1
 46 41 l 1
49 37 m 1
 47 37 l 1
 47 39 l 1
 49 39 l 1
 49 37 l 1
49 41 m 1
 47 41 l 1
 47 43 l 1
 49 43 l 1
 49 41 l 1
55 41 m 1
 53 41 l 1
 53 43 l 1
 55 43 l 1
 55 41 l 1
57 33 m 1
 56 33 l 1
 56 35 l 1
 58 35 l 1
 58 34 l 1
 57 34 l 1
 57 33 l 1
60 33 m 1
 58 33 l 1
 58 34 l 1
 59 34 l 1
 59 35 l 1
 60 35 l 1
 60 33 l 1
63 33 m 1
 61 33 l 1
 61 35 l 1
 63 35 l 1
 63 33 l 1
63 37 m 1
 61 37 l 1
 61 39 l 1
 63 39 l 1
 63 37 l 1
58 41 m 1
 56 41 l 1
 56 43 l 1
 57 43 l 1
 57 42 l 1
 58 42 l 1
 58 41 l 1
60 41 m 1
 59 41 l 1
 59 42 l 1
 58 42 l 1
 58 43 l 1
 60 43 l 1
 60 41 l 1
63 41 m 1
 61 41 l 1
 61 43 l 1
 63 43 l 1
 63 41 l 1
67 67 m 1
 66 67 l 1
 66 68 l 1
 68 68 l 1
 68 67 l 1
 69 67 l 1
 69 66 l 1
 67 66 l 1
 67 67 l 1
69 68 m 1
 68 68 l 1
 68 69 l 1
 69 69 l 1
 69 68 l 1
EndSplineSet
Ligature2: "'liga' Standard Ligatures in Latin lookup 0-1" five five zero four four
LCarets2: 1 0
EndChar

StartChar: custom_5_5_0_4_5
Encoding: 16801 -1 16556
Width: 70
Flags: H
LayerCount: 2
Fore
SplineSet
17 25 m 1
 15 25 l 1
 15 27 l 1
 17 27 l 1
 17 25 l 1
23 25 m 1
 21 25 l 1
 21 27 l 1
 23 27 l 1
 23 25 l 1
26 25 m 1
 24 25 l 1
 24 27 l 1
 25 27 l 1
 25 26 l 1
 26 26 l 1
 26 25 l 1
28 25 m 1
 27 25 l 1
 27 26 l 1
 26 26 l 1
 26 27 l 1
 28 27 l 1
 28 25 l 1
31 25 m 1
 29 25 l 1
 29 27 l 1
 31 27 l 1
 31 25 l 1
17 29 m 1
 15 29 l 1
 15 31 l 1
 17 31 l 1
 17 29 l 1
17 33 m 1
 15 33 l 1
 15 35 l 1
 17 35 l 1
 17 33 l 1
23 33 m 1
 21 33 l 1
 21 35 l 1
 23 35 l 1
 23 33 l 1
17 37 m 1
 15 37 l 1
 15 39 l 1
 17 39 l 1
 17 37 l 1
23 37 m 1
 21 37 l 1
 21 39 l 1
 23 39 l 1
 23 37 l 1
17 41 m 1
 15 41 l 1
 15 43 l 1
 17 43 l 1
 17 41 l 1
23 41 m 1
 21 41 l 1
 21 43 l 1
 23 43 l 1
 23 41 l 1
31 29 m 1
 29 29 l 1
 29 31 l 1
 31 31 l 1
 31 29 l 1
25 33 m 1
 24 33 l 1
 24 35 l 1
 26 35 l 1
 26 34 l 1
 25 34 l 1
 25 33 l 1
28 33 m 1
 26 33 l 1
 26 34 l 1
 27 34 l 1
 27 35 l 1
 28 35 l 1
 28 33 l 1
31 33 m 1
 29 33 l 1
 29 35 l 1
 31 35 l 1
 31 33 l 1
36 31 m 1
 34 31 l 1
 34 33 l 1
 36 33 l 1
 36 31 l 1
26 41 m 1
 24 41 l 1
 24 43 l 1
 25 43 l 1
 25 42 l 1
 26 42 l 1
 26 41 l 1
28 41 m 1
 27 41 l 1
 27 42 l 1
 26 42 l 1
 26 43 l 1
 28 43 l 1
 28 41 l 1
31 41 m 1
 29 41 l 1
 29 43 l 1
 31 43 l 1
 31 41 l 1
36 35 m 1
 34 35 l 1
 34 37 l 1
 36 37 l 1
 36 35 l 1
41 25 m 1
 39 25 l 1
 39 27 l 1
 41 27 l 1
 41 25 l 1
44 25 m 1
 42 25 l 1
 42 27 l 1
 43 27 l 1
 43 26 l 1
 44 26 l 1
 44 25 l 1
46 25 m 1
 45 25 l 1
 45 26 l 1
 44 26 l 1
 44 27 l 1
 46 27 l 1
 46 25 l 1
49 25 m 1
 47 25 l 1
 47 27 l 1
 49 27 l 1
 49 25 l 1
55 25 m 1
 53 25 l 1
 53 27 l 1
 55 27 l 1
 55 25 l 1
58 25 m 1
 56 25 l 1
 56 27 l 1
 57 27 l 1
 57 26 l 1
 58 26 l 1
 58 25 l 1
60 25 m 1
 59 25 l 1
 59 26 l 1
 58 26 l 1
 58 27 l 1
 60 27 l 1
 60 25 l 1
63 25 m 1
 61 25 l 1
 61 27 l 1
 63 27 l 1
 63 25 l 1
41 29 m 1
 39 29 l 1
 39 31 l 1
 41 31 l 1
 41 29 l 1
41 33 m 1
 39 33 l 1
 39 35 l 1
 41 35 l 1
 41 33 l 1
43 33 m 1
 42 33 l 1
 42 35 l 1
 44 35 l 1
 44 34 l 1
 43 34 l 1
 43 33 l 1
46 33 m 1
 44 33 l 1
 44 34 l 1
 45 34 l 1
 45 35 l 1
 46 35 l 1
 46 33 l 1
55 29 m 1
 53 29 l 1
 53 31 l 1
 55 31 l 1
 55 29 l 1
49 33 m 1
 47 33 l 1
 47 35 l 1
 49 35 l 1
 49 33 l 1
55 33 m 1
 53 33 l 1
 53 35 l 1
 55 35 l 1
 55 33 l 1
41 41 m 1
 39 41 l 1
 39 43 l 1
 41 43 l 1
 41 41 l 1
44 41 m 1
 42 41 l 1
 42 43 l 1
 43 43 l 1
 43 42 l 1
 44 42 l 1
 44 41 l 1
46 41 m 1
 45 41 l 1
 45 42 l 1
 44 42 l 1
 44 43 l 1
 46 43 l 1
 46 41 l 1
49 37 m 1
 47 37 l 1
 47 39 l 1
 49 39 l 1
 49 37 l 1
49 41 m 1
 47 41 l 1
 47 43 l 1
 49 43 l 1
 49 41 l 1
55 41 m 1
 53 41 l 1
 53 43 l 1
 55 43 l 1
 55 41 l 1
57 33 m 1
 56 33 l 1
 56 35 l 1
 58 35 l 1
 58 34 l 1
 57 34 l 1
 57 33 l 1
60 33 m 1
 58 33 l 1
 58 34 l 1
 59 34 l 1
 59 35 l 1
 60 35 l 1
 60 33 l 1
63 33 m 1
 61 33 l 1
 61 35 l 1
 63 35 l 1
 63 33 l 1
63 37 m 1
 61 37 l 1
 61 39 l 1
 63 39 l 1
 63 37 l 1
58 41 m 1
 56 41 l 1
 56 43 l 1
 57 43 l 1
 57 42 l 1
 58 42 l 1
 58 41 l 1
60 41 m 1
 59 41 l 1
 59 42 l 1
 58 42 l 1
 58 43 l 1
 60 43 l 1
 60 41 l 1
63 41 m 1
 61 41 l 1
 61 43 l 1
 63 43 l 1
 63 41 l 1
69 66 m 1
 66 66 l 1
 66 68 l 1
 67 68 l 1
 67 67 l 1
 69 67 l 1
 69 66 l 1
68 68 m 1
 67 68 l 1
 67 69 l 1
 68 69 l 1
 68 68 l 1
EndSplineSet
Ligature2: "'liga' Standard Ligatures in Latin lookup 0-1" five five zero four five
LCarets2: 1 0
EndChar

StartChar: custom_5_5_0_4_6
Encoding: 16802 -1 16557
Width: 70
Flags: H
LayerCount: 2
Fore
SplineSet
17 25 m 1
 15 25 l 1
 15 27 l 1
 17 27 l 1
 17 25 l 1
23 25 m 1
 21 25 l 1
 21 27 l 1
 23 27 l 1
 23 25 l 1
26 25 m 1
 24 25 l 1
 24 27 l 1
 25 27 l 1
 25 26 l 1
 26 26 l 1
 26 25 l 1
28 25 m 1
 27 25 l 1
 27 26 l 1
 26 26 l 1
 26 27 l 1
 28 27 l 1
 28 25 l 1
31 25 m 1
 29 25 l 1
 29 27 l 1
 31 27 l 1
 31 25 l 1
17 29 m 1
 15 29 l 1
 15 31 l 1
 17 31 l 1
 17 29 l 1
17 33 m 1
 15 33 l 1
 15 35 l 1
 17 35 l 1
 17 33 l 1
23 33 m 1
 21 33 l 1
 21 35 l 1
 23 35 l 1
 23 33 l 1
17 37 m 1
 15 37 l 1
 15 39 l 1
 17 39 l 1
 17 37 l 1
23 37 m 1
 21 37 l 1
 21 39 l 1
 23 39 l 1
 23 37 l 1
17 41 m 1
 15 41 l 1
 15 43 l 1
 17 43 l 1
 17 41 l 1
23 41 m 1
 21 41 l 1
 21 43 l 1
 23 43 l 1
 23 41 l 1
31 29 m 1
 29 29 l 1
 29 31 l 1
 31 31 l 1
 31 29 l 1
25 33 m 1
 24 33 l 1
 24 35 l 1
 26 35 l 1
 26 34 l 1
 25 34 l 1
 25 33 l 1
28 33 m 1
 26 33 l 1
 26 34 l 1
 27 34 l 1
 27 35 l 1
 28 35 l 1
 28 33 l 1
31 33 m 1
 29 33 l 1
 29 35 l 1
 31 35 l 1
 31 33 l 1
36 31 m 1
 34 31 l 1
 34 33 l 1
 36 33 l 1
 36 31 l 1
26 41 m 1
 24 41 l 1
 24 43 l 1
 25 43 l 1
 25 42 l 1
 26 42 l 1
 26 41 l 1
28 41 m 1
 27 41 l 1
 27 42 l 1
 26 42 l 1
 26 43 l 1
 28 43 l 1
 28 41 l 1
31 41 m 1
 29 41 l 1
 29 43 l 1
 31 43 l 1
 31 41 l 1
36 35 m 1
 34 35 l 1
 34 37 l 1
 36 37 l 1
 36 35 l 1
41 25 m 1
 39 25 l 1
 39 27 l 1
 41 27 l 1
 41 25 l 1
44 25 m 1
 42 25 l 1
 42 27 l 1
 43 27 l 1
 43 26 l 1
 44 26 l 1
 44 25 l 1
46 25 m 1
 45 25 l 1
 45 26 l 1
 44 26 l 1
 44 27 l 1
 46 27 l 1
 46 25 l 1
49 25 m 1
 47 25 l 1
 47 27 l 1
 49 27 l 1
 49 25 l 1
55 25 m 1
 53 25 l 1
 53 27 l 1
 55 27 l 1
 55 25 l 1
58 25 m 1
 56 25 l 1
 56 27 l 1
 57 27 l 1
 57 26 l 1
 58 26 l 1
 58 25 l 1
60 25 m 1
 59 25 l 1
 59 26 l 1
 58 26 l 1
 58 27 l 1
 60 27 l 1
 60 25 l 1
63 25 m 1
 61 25 l 1
 61 27 l 1
 63 27 l 1
 63 25 l 1
41 29 m 1
 39 29 l 1
 39 31 l 1
 41 31 l 1
 41 29 l 1
41 33 m 1
 39 33 l 1
 39 35 l 1
 41 35 l 1
 41 33 l 1
43 33 m 1
 42 33 l 1
 42 35 l 1
 44 35 l 1
 44 34 l 1
 43 34 l 1
 43 33 l 1
46 33 m 1
 44 33 l 1
 44 34 l 1
 45 34 l 1
 45 35 l 1
 46 35 l 1
 46 33 l 1
55 29 m 1
 53 29 l 1
 53 31 l 1
 55 31 l 1
 55 29 l 1
49 33 m 1
 47 33 l 1
 47 35 l 1
 49 35 l 1
 49 33 l 1
55 33 m 1
 53 33 l 1
 53 35 l 1
 55 35 l 1
 55 33 l 1
41 41 m 1
 39 41 l 1
 39 43 l 1
 41 43 l 1
 41 41 l 1
44 41 m 1
 42 41 l 1
 42 43 l 1
 43 43 l 1
 43 42 l 1
 44 42 l 1
 44 41 l 1
46 41 m 1
 45 41 l 1
 45 42 l 1
 44 42 l 1
 44 43 l 1
 46 43 l 1
 46 41 l 1
49 37 m 1
 47 37 l 1
 47 39 l 1
 49 39 l 1
 49 37 l 1
49 41 m 1
 47 41 l 1
 47 43 l 1
 49 43 l 1
 49 41 l 1
55 41 m 1
 53 41 l 1
 53 43 l 1
 55 43 l 1
 55 41 l 1
57 33 m 1
 56 33 l 1
 56 35 l 1
 58 35 l 1
 58 34 l 1
 57 34 l 1
 57 33 l 1
60 33 m 1
 58 33 l 1
 58 34 l 1
 59 34 l 1
 59 35 l 1
 60 35 l 1
 60 33 l 1
63 33 m 1
 61 33 l 1
 61 35 l 1
 63 35 l 1
 63 33 l 1
63 37 m 1
 61 37 l 1
 61 39 l 1
 63 39 l 1
 63 37 l 1
58 41 m 1
 56 41 l 1
 56 43 l 1
 57 43 l 1
 57 42 l 1
 58 42 l 1
 58 41 l 1
60 41 m 1
 59 41 l 1
 59 42 l 1
 58 42 l 1
 58 43 l 1
 60 43 l 1
 60 41 l 1
63 41 m 1
 61 41 l 1
 61 43 l 1
 63 43 l 1
 63 41 l 1
68 65 m 1
 67 65 l 1
 67 66 l 1
 66 66 l 1
 66 68 l 1
 67 68 l 1
 67 67 l 1
 68 67 l 1
 68 65 l 1
69 67 m 1
 68 67 l 1
 68 68 l 1
 69 68 l 1
 69 67 l 1
EndSplineSet
Ligature2: "'liga' Standard Ligatures in Latin lookup 0-1" five five zero four six
LCarets2: 1 0
EndChar

StartChar: custom_5_5_0_4_7
Encoding: 16803 -1 16558
Width: 70
Flags: H
LayerCount: 2
Fore
SplineSet
17 25 m 1
 15 25 l 1
 15 27 l 1
 17 27 l 1
 17 25 l 1
23 25 m 1
 21 25 l 1
 21 27 l 1
 23 27 l 1
 23 25 l 1
26 25 m 1
 24 25 l 1
 24 27 l 1
 25 27 l 1
 25 26 l 1
 26 26 l 1
 26 25 l 1
28 25 m 1
 27 25 l 1
 27 26 l 1
 26 26 l 1
 26 27 l 1
 28 27 l 1
 28 25 l 1
31 25 m 1
 29 25 l 1
 29 27 l 1
 31 27 l 1
 31 25 l 1
17 29 m 1
 15 29 l 1
 15 31 l 1
 17 31 l 1
 17 29 l 1
17 33 m 1
 15 33 l 1
 15 35 l 1
 17 35 l 1
 17 33 l 1
23 33 m 1
 21 33 l 1
 21 35 l 1
 23 35 l 1
 23 33 l 1
17 37 m 1
 15 37 l 1
 15 39 l 1
 17 39 l 1
 17 37 l 1
23 37 m 1
 21 37 l 1
 21 39 l 1
 23 39 l 1
 23 37 l 1
17 41 m 1
 15 41 l 1
 15 43 l 1
 17 43 l 1
 17 41 l 1
23 41 m 1
 21 41 l 1
 21 43 l 1
 23 43 l 1
 23 41 l 1
31 29 m 1
 29 29 l 1
 29 31 l 1
 31 31 l 1
 31 29 l 1
25 33 m 1
 24 33 l 1
 24 35 l 1
 26 35 l 1
 26 34 l 1
 25 34 l 1
 25 33 l 1
28 33 m 1
 26 33 l 1
 26 34 l 1
 27 34 l 1
 27 35 l 1
 28 35 l 1
 28 33 l 1
31 33 m 1
 29 33 l 1
 29 35 l 1
 31 35 l 1
 31 33 l 1
36 31 m 1
 34 31 l 1
 34 33 l 1
 36 33 l 1
 36 31 l 1
26 41 m 1
 24 41 l 1
 24 43 l 1
 25 43 l 1
 25 42 l 1
 26 42 l 1
 26 41 l 1
28 41 m 1
 27 41 l 1
 27 42 l 1
 26 42 l 1
 26 43 l 1
 28 43 l 1
 28 41 l 1
31 41 m 1
 29 41 l 1
 29 43 l 1
 31 43 l 1
 31 41 l 1
36 35 m 1
 34 35 l 1
 34 37 l 1
 36 37 l 1
 36 35 l 1
41 25 m 1
 39 25 l 1
 39 27 l 1
 41 27 l 1
 41 25 l 1
44 25 m 1
 42 25 l 1
 42 27 l 1
 43 27 l 1
 43 26 l 1
 44 26 l 1
 44 25 l 1
46 25 m 1
 45 25 l 1
 45 26 l 1
 44 26 l 1
 44 27 l 1
 46 27 l 1
 46 25 l 1
49 25 m 1
 47 25 l 1
 47 27 l 1
 49 27 l 1
 49 25 l 1
55 25 m 1
 53 25 l 1
 53 27 l 1
 55 27 l 1
 55 25 l 1
58 25 m 1
 56 25 l 1
 56 27 l 1
 57 27 l 1
 57 26 l 1
 58 26 l 1
 58 25 l 1
60 25 m 1
 59 25 l 1
 59 26 l 1
 58 26 l 1
 58 27 l 1
 60 27 l 1
 60 25 l 1
63 25 m 1
 61 25 l 1
 61 27 l 1
 63 27 l 1
 63 25 l 1
41 29 m 1
 39 29 l 1
 39 31 l 1
 41 31 l 1
 41 29 l 1
41 33 m 1
 39 33 l 1
 39 35 l 1
 41 35 l 1
 41 33 l 1
43 33 m 1
 42 33 l 1
 42 35 l 1
 44 35 l 1
 44 34 l 1
 43 34 l 1
 43 33 l 1
46 33 m 1
 44 33 l 1
 44 34 l 1
 45 34 l 1
 45 35 l 1
 46 35 l 1
 46 33 l 1
55 29 m 1
 53 29 l 1
 53 31 l 1
 55 31 l 1
 55 29 l 1
49 33 m 1
 47 33 l 1
 47 35 l 1
 49 35 l 1
 49 33 l 1
55 33 m 1
 53 33 l 1
 53 35 l 1
 55 35 l 1
 55 33 l 1
41 41 m 1
 39 41 l 1
 39 43 l 1
 41 43 l 1
 41 41 l 1
44 41 m 1
 42 41 l 1
 42 43 l 1
 43 43 l 1
 43 42 l 1
 44 42 l 1
 44 41 l 1
46 41 m 1
 45 41 l 1
 45 42 l 1
 44 42 l 1
 44 43 l 1
 46 43 l 1
 46 41 l 1
49 37 m 1
 47 37 l 1
 47 39 l 1
 49 39 l 1
 49 37 l 1
49 41 m 1
 47 41 l 1
 47 43 l 1
 49 43 l 1
 49 41 l 1
55 41 m 1
 53 41 l 1
 53 43 l 1
 55 43 l 1
 55 41 l 1
57 33 m 1
 56 33 l 1
 56 35 l 1
 58 35 l 1
 58 34 l 1
 57 34 l 1
 57 33 l 1
60 33 m 1
 58 33 l 1
 58 34 l 1
 59 34 l 1
 59 35 l 1
 60 35 l 1
 60 33 l 1
63 33 m 1
 61 33 l 1
 61 35 l 1
 63 35 l 1
 63 33 l 1
63 37 m 1
 61 37 l 1
 61 39 l 1
 63 39 l 1
 63 37 l 1
58 41 m 1
 56 41 l 1
 56 43 l 1
 57 43 l 1
 57 42 l 1
 58 42 l 1
 58 41 l 1
60 41 m 1
 59 41 l 1
 59 42 l 1
 58 42 l 1
 58 43 l 1
 60 43 l 1
 60 41 l 1
63 41 m 1
 61 41 l 1
 61 43 l 1
 63 43 l 1
 63 41 l 1
68 65 m 1
 66 65 l 1
 66 68 l 1
 67 68 l 1
 67 66 l 1
 68 66 l 1
 68 65 l 1
69 66 m 1
 68 66 l 1
 68 67 l 1
 69 67 l 1
 69 66 l 1
EndSplineSet
Ligature2: "'liga' Standard Ligatures in Latin lookup 0-1" five five zero four seven
LCarets2: 1 0
EndChar

StartChar: custom_5_5_0_4_8
Encoding: 16804 -1 16559
Width: 70
Flags: H
LayerCount: 2
Fore
SplineSet
17 25 m 1
 15 25 l 1
 15 27 l 1
 17 27 l 1
 17 25 l 1
23 25 m 1
 21 25 l 1
 21 27 l 1
 23 27 l 1
 23 25 l 1
26 25 m 1
 24 25 l 1
 24 27 l 1
 25 27 l 1
 25 26 l 1
 26 26 l 1
 26 25 l 1
28 25 m 1
 27 25 l 1
 27 26 l 1
 26 26 l 1
 26 27 l 1
 28 27 l 1
 28 25 l 1
31 25 m 1
 29 25 l 1
 29 27 l 1
 31 27 l 1
 31 25 l 1
17 29 m 1
 15 29 l 1
 15 31 l 1
 17 31 l 1
 17 29 l 1
17 33 m 1
 15 33 l 1
 15 35 l 1
 17 35 l 1
 17 33 l 1
23 33 m 1
 21 33 l 1
 21 35 l 1
 23 35 l 1
 23 33 l 1
17 37 m 1
 15 37 l 1
 15 39 l 1
 17 39 l 1
 17 37 l 1
23 37 m 1
 21 37 l 1
 21 39 l 1
 23 39 l 1
 23 37 l 1
17 41 m 1
 15 41 l 1
 15 43 l 1
 17 43 l 1
 17 41 l 1
23 41 m 1
 21 41 l 1
 21 43 l 1
 23 43 l 1
 23 41 l 1
31 29 m 1
 29 29 l 1
 29 31 l 1
 31 31 l 1
 31 29 l 1
25 33 m 1
 24 33 l 1
 24 35 l 1
 26 35 l 1
 26 34 l 1
 25 34 l 1
 25 33 l 1
28 33 m 1
 26 33 l 1
 26 34 l 1
 27 34 l 1
 27 35 l 1
 28 35 l 1
 28 33 l 1
31 33 m 1
 29 33 l 1
 29 35 l 1
 31 35 l 1
 31 33 l 1
36 31 m 1
 34 31 l 1
 34 33 l 1
 36 33 l 1
 36 31 l 1
26 41 m 1
 24 41 l 1
 24 43 l 1
 25 43 l 1
 25 42 l 1
 26 42 l 1
 26 41 l 1
28 41 m 1
 27 41 l 1
 27 42 l 1
 26 42 l 1
 26 43 l 1
 28 43 l 1
 28 41 l 1
31 41 m 1
 29 41 l 1
 29 43 l 1
 31 43 l 1
 31 41 l 1
36 35 m 1
 34 35 l 1
 34 37 l 1
 36 37 l 1
 36 35 l 1
41 25 m 1
 39 25 l 1
 39 27 l 1
 41 27 l 1
 41 25 l 1
44 25 m 1
 42 25 l 1
 42 27 l 1
 43 27 l 1
 43 26 l 1
 44 26 l 1
 44 25 l 1
46 25 m 1
 45 25 l 1
 45 26 l 1
 44 26 l 1
 44 27 l 1
 46 27 l 1
 46 25 l 1
49 25 m 1
 47 25 l 1
 47 27 l 1
 49 27 l 1
 49 25 l 1
55 25 m 1
 53 25 l 1
 53 27 l 1
 55 27 l 1
 55 25 l 1
58 25 m 1
 56 25 l 1
 56 27 l 1
 57 27 l 1
 57 26 l 1
 58 26 l 1
 58 25 l 1
60 25 m 1
 59 25 l 1
 59 26 l 1
 58 26 l 1
 58 27 l 1
 60 27 l 1
 60 25 l 1
63 25 m 1
 61 25 l 1
 61 27 l 1
 63 27 l 1
 63 25 l 1
41 29 m 1
 39 29 l 1
 39 31 l 1
 41 31 l 1
 41 29 l 1
41 33 m 1
 39 33 l 1
 39 35 l 1
 41 35 l 1
 41 33 l 1
43 33 m 1
 42 33 l 1
 42 35 l 1
 44 35 l 1
 44 34 l 1
 43 34 l 1
 43 33 l 1
46 33 m 1
 44 33 l 1
 44 34 l 1
 45 34 l 1
 45 35 l 1
 46 35 l 1
 46 33 l 1
55 29 m 1
 53 29 l 1
 53 31 l 1
 55 31 l 1
 55 29 l 1
49 33 m 1
 47 33 l 1
 47 35 l 1
 49 35 l 1
 49 33 l 1
55 33 m 1
 53 33 l 1
 53 35 l 1
 55 35 l 1
 55 33 l 1
41 41 m 1
 39 41 l 1
 39 43 l 1
 41 43 l 1
 41 41 l 1
44 41 m 1
 42 41 l 1
 42 43 l 1
 43 43 l 1
 43 42 l 1
 44 42 l 1
 44 41 l 1
46 41 m 1
 45 41 l 1
 45 42 l 1
 44 42 l 1
 44 43 l 1
 46 43 l 1
 46 41 l 1
49 37 m 1
 47 37 l 1
 47 39 l 1
 49 39 l 1
 49 37 l 1
49 41 m 1
 47 41 l 1
 47 43 l 1
 49 43 l 1
 49 41 l 1
55 41 m 1
 53 41 l 1
 53 43 l 1
 55 43 l 1
 55 41 l 1
57 33 m 1
 56 33 l 1
 56 35 l 1
 58 35 l 1
 58 34 l 1
 57 34 l 1
 57 33 l 1
60 33 m 1
 58 33 l 1
 58 34 l 1
 59 34 l 1
 59 35 l 1
 60 35 l 1
 60 33 l 1
63 33 m 1
 61 33 l 1
 61 35 l 1
 63 35 l 1
 63 33 l 1
63 37 m 1
 61 37 l 1
 61 39 l 1
 63 39 l 1
 63 37 l 1
58 41 m 1
 56 41 l 1
 56 43 l 1
 57 43 l 1
 57 42 l 1
 58 42 l 1
 58 41 l 1
60 41 m 1
 59 41 l 1
 59 42 l 1
 58 42 l 1
 58 43 l 1
 60 43 l 1
 60 41 l 1
63 41 m 1
 61 41 l 1
 61 43 l 1
 63 43 l 1
 63 41 l 1
68 65 m 1
 66 65 l 1
 66 66 l 1
 65 66 l 1
 65 67 l 1
 67 67 l 1
 67 66 l 1
 68 66 l 1
 68 65 l 1
68 67 m 1
 67 67 l 1
 67 68 l 1
 68 68 l 1
 68 67 l 1
EndSplineSet
Ligature2: "'liga' Standard Ligatures in Latin lookup 0-1" five five zero four eight
LCarets2: 1 0
EndChar

StartChar: custom_5_5_0_4_9
Encoding: 16805 -1 16560
Width: 70
Flags: H
LayerCount: 2
Fore
SplineSet
17 25 m 1
 15 25 l 1
 15 27 l 1
 17 27 l 1
 17 25 l 1
23 25 m 1
 21 25 l 1
 21 27 l 1
 23 27 l 1
 23 25 l 1
26 25 m 1
 24 25 l 1
 24 27 l 1
 25 27 l 1
 25 26 l 1
 26 26 l 1
 26 25 l 1
28 25 m 1
 27 25 l 1
 27 26 l 1
 26 26 l 1
 26 27 l 1
 28 27 l 1
 28 25 l 1
31 25 m 1
 29 25 l 1
 29 27 l 1
 31 27 l 1
 31 25 l 1
17 29 m 1
 15 29 l 1
 15 31 l 1
 17 31 l 1
 17 29 l 1
17 33 m 1
 15 33 l 1
 15 35 l 1
 17 35 l 1
 17 33 l 1
23 33 m 1
 21 33 l 1
 21 35 l 1
 23 35 l 1
 23 33 l 1
17 37 m 1
 15 37 l 1
 15 39 l 1
 17 39 l 1
 17 37 l 1
23 37 m 1
 21 37 l 1
 21 39 l 1
 23 39 l 1
 23 37 l 1
17 41 m 1
 15 41 l 1
 15 43 l 1
 17 43 l 1
 17 41 l 1
23 41 m 1
 21 41 l 1
 21 43 l 1
 23 43 l 1
 23 41 l 1
31 29 m 1
 29 29 l 1
 29 31 l 1
 31 31 l 1
 31 29 l 1
25 33 m 1
 24 33 l 1
 24 35 l 1
 26 35 l 1
 26 34 l 1
 25 34 l 1
 25 33 l 1
28 33 m 1
 26 33 l 1
 26 34 l 1
 27 34 l 1
 27 35 l 1
 28 35 l 1
 28 33 l 1
31 33 m 1
 29 33 l 1
 29 35 l 1
 31 35 l 1
 31 33 l 1
36 31 m 1
 34 31 l 1
 34 33 l 1
 36 33 l 1
 36 31 l 1
26 41 m 1
 24 41 l 1
 24 43 l 1
 25 43 l 1
 25 42 l 1
 26 42 l 1
 26 41 l 1
28 41 m 1
 27 41 l 1
 27 42 l 1
 26 42 l 1
 26 43 l 1
 28 43 l 1
 28 41 l 1
31 41 m 1
 29 41 l 1
 29 43 l 1
 31 43 l 1
 31 41 l 1
36 35 m 1
 34 35 l 1
 34 37 l 1
 36 37 l 1
 36 35 l 1
41 25 m 1
 39 25 l 1
 39 27 l 1
 41 27 l 1
 41 25 l 1
44 25 m 1
 42 25 l 1
 42 27 l 1
 43 27 l 1
 43 26 l 1
 44 26 l 1
 44 25 l 1
46 25 m 1
 45 25 l 1
 45 26 l 1
 44 26 l 1
 44 27 l 1
 46 27 l 1
 46 25 l 1
49 25 m 1
 47 25 l 1
 47 27 l 1
 49 27 l 1
 49 25 l 1
55 25 m 1
 53 25 l 1
 53 27 l 1
 55 27 l 1
 55 25 l 1
58 25 m 1
 56 25 l 1
 56 27 l 1
 57 27 l 1
 57 26 l 1
 58 26 l 1
 58 25 l 1
60 25 m 1
 59 25 l 1
 59 26 l 1
 58 26 l 1
 58 27 l 1
 60 27 l 1
 60 25 l 1
63 25 m 1
 61 25 l 1
 61 27 l 1
 63 27 l 1
 63 25 l 1
41 29 m 1
 39 29 l 1
 39 31 l 1
 41 31 l 1
 41 29 l 1
41 33 m 1
 39 33 l 1
 39 35 l 1
 41 35 l 1
 41 33 l 1
43 33 m 1
 42 33 l 1
 42 35 l 1
 44 35 l 1
 44 34 l 1
 43 34 l 1
 43 33 l 1
46 33 m 1
 44 33 l 1
 44 34 l 1
 45 34 l 1
 45 35 l 1
 46 35 l 1
 46 33 l 1
55 29 m 1
 53 29 l 1
 53 31 l 1
 55 31 l 1
 55 29 l 1
49 33 m 1
 47 33 l 1
 47 35 l 1
 49 35 l 1
 49 33 l 1
55 33 m 1
 53 33 l 1
 53 35 l 1
 55 35 l 1
 55 33 l 1
41 41 m 1
 39 41 l 1
 39 43 l 1
 41 43 l 1
 41 41 l 1
44 41 m 1
 42 41 l 1
 42 43 l 1
 43 43 l 1
 43 42 l 1
 44 42 l 1
 44 41 l 1
46 41 m 1
 45 41 l 1
 45 42 l 1
 44 42 l 1
 44 43 l 1
 46 43 l 1
 46 41 l 1
49 37 m 1
 47 37 l 1
 47 39 l 1
 49 39 l 1
 49 37 l 1
49 41 m 1
 47 41 l 1
 47 43 l 1
 49 43 l 1
 49 41 l 1
55 41 m 1
 53 41 l 1
 53 43 l 1
 55 43 l 1
 55 41 l 1
57 33 m 1
 56 33 l 1
 56 35 l 1
 58 35 l 1
 58 34 l 1
 57 34 l 1
 57 33 l 1
60 33 m 1
 58 33 l 1
 58 34 l 1
 59 34 l 1
 59 35 l 1
 60 35 l 1
 60 33 l 1
63 33 m 1
 61 33 l 1
 61 35 l 1
 63 35 l 1
 63 33 l 1
63 37 m 1
 61 37 l 1
 61 39 l 1
 63 39 l 1
 63 37 l 1
58 41 m 1
 56 41 l 1
 56 43 l 1
 57 43 l 1
 57 42 l 1
 58 42 l 1
 58 41 l 1
60 41 m 1
 59 41 l 1
 59 42 l 1
 58 42 l 1
 58 43 l 1
 60 43 l 1
 60 41 l 1
63 41 m 1
 61 41 l 1
 61 43 l 1
 63 43 l 1
 63 41 l 1
68 65 m 1
 65 65 l 1
 65 67 l 1
 66 67 l 1
 66 66 l 1
 68 66 l 1
 68 65 l 1
67 67 m 1
 66 67 l 1
 66 68 l 1
 67 68 l 1
 67 67 l 1
EndSplineSet
Ligature2: "'liga' Standard Ligatures in Latin lookup 0-1" five five zero four nine
LCarets2: 1 0
EndChar

StartChar: custom_5_5_0_5_0
Encoding: 16806 -1 16561
Width: 70
Flags: H
LayerCount: 2
Fore
SplineSet
17 25 m 1
 15 25 l 1
 15 27 l 1
 17 27 l 1
 17 25 l 1
23 25 m 1
 21 25 l 1
 21 27 l 1
 23 27 l 1
 23 25 l 1
26 25 m 1
 24 25 l 1
 24 27 l 1
 25 27 l 1
 25 26 l 1
 26 26 l 1
 26 25 l 1
28 25 m 1
 27 25 l 1
 27 26 l 1
 26 26 l 1
 26 27 l 1
 28 27 l 1
 28 25 l 1
31 25 m 1
 29 25 l 1
 29 27 l 1
 31 27 l 1
 31 25 l 1
17 29 m 1
 15 29 l 1
 15 31 l 1
 17 31 l 1
 17 29 l 1
17 33 m 1
 15 33 l 1
 15 35 l 1
 17 35 l 1
 17 33 l 1
23 33 m 1
 21 33 l 1
 21 35 l 1
 23 35 l 1
 23 33 l 1
17 37 m 1
 15 37 l 1
 15 39 l 1
 17 39 l 1
 17 37 l 1
23 37 m 1
 21 37 l 1
 21 39 l 1
 23 39 l 1
 23 37 l 1
17 41 m 1
 15 41 l 1
 15 43 l 1
 17 43 l 1
 17 41 l 1
23 41 m 1
 21 41 l 1
 21 43 l 1
 23 43 l 1
 23 41 l 1
31 29 m 1
 29 29 l 1
 29 31 l 1
 31 31 l 1
 31 29 l 1
25 33 m 1
 24 33 l 1
 24 35 l 1
 26 35 l 1
 26 34 l 1
 25 34 l 1
 25 33 l 1
28 33 m 1
 26 33 l 1
 26 34 l 1
 27 34 l 1
 27 35 l 1
 28 35 l 1
 28 33 l 1
31 33 m 1
 29 33 l 1
 29 35 l 1
 31 35 l 1
 31 33 l 1
36 31 m 1
 34 31 l 1
 34 33 l 1
 36 33 l 1
 36 31 l 1
26 41 m 1
 24 41 l 1
 24 43 l 1
 25 43 l 1
 25 42 l 1
 26 42 l 1
 26 41 l 1
28 41 m 1
 27 41 l 1
 27 42 l 1
 26 42 l 1
 26 43 l 1
 28 43 l 1
 28 41 l 1
31 41 m 1
 29 41 l 1
 29 43 l 1
 31 43 l 1
 31 41 l 1
36 35 m 1
 34 35 l 1
 34 37 l 1
 36 37 l 1
 36 35 l 1
41 25 m 1
 39 25 l 1
 39 27 l 1
 41 27 l 1
 41 25 l 1
44 25 m 1
 42 25 l 1
 42 27 l 1
 43 27 l 1
 43 26 l 1
 44 26 l 1
 44 25 l 1
46 25 m 1
 45 25 l 1
 45 26 l 1
 44 26 l 1
 44 27 l 1
 46 27 l 1
 46 25 l 1
49 25 m 1
 47 25 l 1
 47 27 l 1
 49 27 l 1
 49 25 l 1
55 25 m 1
 53 25 l 1
 53 27 l 1
 55 27 l 1
 55 25 l 1
58 25 m 1
 56 25 l 1
 56 27 l 1
 57 27 l 1
 57 26 l 1
 58 26 l 1
 58 25 l 1
60 25 m 1
 59 25 l 1
 59 26 l 1
 58 26 l 1
 58 27 l 1
 60 27 l 1
 60 25 l 1
63 25 m 1
 61 25 l 1
 61 27 l 1
 63 27 l 1
 63 25 l 1
41 29 m 1
 39 29 l 1
 39 31 l 1
 41 31 l 1
 41 29 l 1
41 33 m 1
 39 33 l 1
 39 35 l 1
 41 35 l 1
 41 33 l 1
43 33 m 1
 42 33 l 1
 42 35 l 1
 44 35 l 1
 44 34 l 1
 43 34 l 1
 43 33 l 1
46 33 m 1
 44 33 l 1
 44 34 l 1
 45 34 l 1
 45 35 l 1
 46 35 l 1
 46 33 l 1
55 29 m 1
 53 29 l 1
 53 31 l 1
 55 31 l 1
 55 29 l 1
49 33 m 1
 47 33 l 1
 47 35 l 1
 49 35 l 1
 49 33 l 1
55 33 m 1
 53 33 l 1
 53 35 l 1
 55 35 l 1
 55 33 l 1
41 41 m 1
 39 41 l 1
 39 43 l 1
 41 43 l 1
 41 41 l 1
44 41 m 1
 42 41 l 1
 42 43 l 1
 43 43 l 1
 43 42 l 1
 44 42 l 1
 44 41 l 1
46 41 m 1
 45 41 l 1
 45 42 l 1
 44 42 l 1
 44 43 l 1
 46 43 l 1
 46 41 l 1
49 37 m 1
 47 37 l 1
 47 39 l 1
 49 39 l 1
 49 37 l 1
49 41 m 1
 47 41 l 1
 47 43 l 1
 49 43 l 1
 49 41 l 1
55 41 m 1
 53 41 l 1
 53 43 l 1
 55 43 l 1
 55 41 l 1
57 33 m 1
 56 33 l 1
 56 35 l 1
 58 35 l 1
 58 34 l 1
 57 34 l 1
 57 33 l 1
60 33 m 1
 58 33 l 1
 58 34 l 1
 59 34 l 1
 59 35 l 1
 60 35 l 1
 60 33 l 1
63 33 m 1
 61 33 l 1
 61 35 l 1
 63 35 l 1
 63 33 l 1
63 37 m 1
 61 37 l 1
 61 39 l 1
 63 39 l 1
 63 37 l 1
58 41 m 1
 56 41 l 1
 56 43 l 1
 57 43 l 1
 57 42 l 1
 58 42 l 1
 58 41 l 1
60 41 m 1
 59 41 l 1
 59 42 l 1
 58 42 l 1
 58 43 l 1
 60 43 l 1
 60 41 l 1
63 41 m 1
 61 41 l 1
 61 43 l 1
 63 43 l 1
 63 41 l 1
67 64 m 1
 66 64 l 1
 66 65 l 1
 65 65 l 1
 65 67 l 1
 66 67 l 1
 66 66 l 1
 67 66 l 1
 67 64 l 1
68 66 m 1
 67 66 l 1
 67 67 l 1
 68 67 l 1
 68 66 l 1
EndSplineSet
Ligature2: "'liga' Standard Ligatures in Latin lookup 0-1" five five zero five zero
LCarets2: 1 0
EndChar

StartChar: custom_5_5_0_5_1
Encoding: 16807 -1 16562
Width: 70
Flags: H
LayerCount: 2
Fore
SplineSet
1 69 m 1
 0 69 l 1
 0 70 l 1
 1 70 l 1
 1 69 l 1
17 25 m 1
 15 25 l 1
 15 27 l 1
 17 27 l 1
 17 25 l 1
23 25 m 1
 21 25 l 1
 21 27 l 1
 23 27 l 1
 23 25 l 1
26 25 m 1
 24 25 l 1
 24 27 l 1
 25 27 l 1
 25 26 l 1
 26 26 l 1
 26 25 l 1
28 25 m 1
 27 25 l 1
 27 26 l 1
 26 26 l 1
 26 27 l 1
 28 27 l 1
 28 25 l 1
31 25 m 1
 29 25 l 1
 29 27 l 1
 31 27 l 1
 31 25 l 1
17 29 m 1
 15 29 l 1
 15 31 l 1
 17 31 l 1
 17 29 l 1
17 33 m 1
 15 33 l 1
 15 35 l 1
 17 35 l 1
 17 33 l 1
23 33 m 1
 21 33 l 1
 21 35 l 1
 23 35 l 1
 23 33 l 1
17 37 m 1
 15 37 l 1
 15 39 l 1
 17 39 l 1
 17 37 l 1
23 37 m 1
 21 37 l 1
 21 39 l 1
 23 39 l 1
 23 37 l 1
17 41 m 1
 15 41 l 1
 15 43 l 1
 17 43 l 1
 17 41 l 1
23 41 m 1
 21 41 l 1
 21 43 l 1
 23 43 l 1
 23 41 l 1
31 29 m 1
 29 29 l 1
 29 31 l 1
 31 31 l 1
 31 29 l 1
25 33 m 1
 24 33 l 1
 24 35 l 1
 26 35 l 1
 26 34 l 1
 25 34 l 1
 25 33 l 1
28 33 m 1
 26 33 l 1
 26 34 l 1
 27 34 l 1
 27 35 l 1
 28 35 l 1
 28 33 l 1
31 33 m 1
 29 33 l 1
 29 35 l 1
 31 35 l 1
 31 33 l 1
36 31 m 1
 34 31 l 1
 34 33 l 1
 36 33 l 1
 36 31 l 1
26 41 m 1
 24 41 l 1
 24 43 l 1
 25 43 l 1
 25 42 l 1
 26 42 l 1
 26 41 l 1
28 41 m 1
 27 41 l 1
 27 42 l 1
 26 42 l 1
 26 43 l 1
 28 43 l 1
 28 41 l 1
31 41 m 1
 29 41 l 1
 29 43 l 1
 31 43 l 1
 31 41 l 1
36 35 m 1
 34 35 l 1
 34 37 l 1
 36 37 l 1
 36 35 l 1
41 25 m 1
 39 25 l 1
 39 27 l 1
 41 27 l 1
 41 25 l 1
44 25 m 1
 42 25 l 1
 42 27 l 1
 43 27 l 1
 43 26 l 1
 44 26 l 1
 44 25 l 1
46 25 m 1
 45 25 l 1
 45 26 l 1
 44 26 l 1
 44 27 l 1
 46 27 l 1
 46 25 l 1
49 25 m 1
 47 25 l 1
 47 27 l 1
 49 27 l 1
 49 25 l 1
55 25 m 1
 53 25 l 1
 53 27 l 1
 55 27 l 1
 55 25 l 1
58 25 m 1
 56 25 l 1
 56 27 l 1
 57 27 l 1
 57 26 l 1
 58 26 l 1
 58 25 l 1
60 25 m 1
 59 25 l 1
 59 26 l 1
 58 26 l 1
 58 27 l 1
 60 27 l 1
 60 25 l 1
63 25 m 1
 61 25 l 1
 61 27 l 1
 63 27 l 1
 63 25 l 1
41 29 m 1
 39 29 l 1
 39 31 l 1
 41 31 l 1
 41 29 l 1
41 33 m 1
 39 33 l 1
 39 35 l 1
 41 35 l 1
 41 33 l 1
43 33 m 1
 42 33 l 1
 42 35 l 1
 44 35 l 1
 44 34 l 1
 43 34 l 1
 43 33 l 1
46 33 m 1
 44 33 l 1
 44 34 l 1
 45 34 l 1
 45 35 l 1
 46 35 l 1
 46 33 l 1
55 29 m 1
 53 29 l 1
 53 31 l 1
 55 31 l 1
 55 29 l 1
49 33 m 1
 47 33 l 1
 47 35 l 1
 49 35 l 1
 49 33 l 1
55 33 m 1
 53 33 l 1
 53 35 l 1
 55 35 l 1
 55 33 l 1
41 41 m 1
 39 41 l 1
 39 43 l 1
 41 43 l 1
 41 41 l 1
44 41 m 1
 42 41 l 1
 42 43 l 1
 43 43 l 1
 43 42 l 1
 44 42 l 1
 44 41 l 1
46 41 m 1
 45 41 l 1
 45 42 l 1
 44 42 l 1
 44 43 l 1
 46 43 l 1
 46 41 l 1
49 37 m 1
 47 37 l 1
 47 39 l 1
 49 39 l 1
 49 37 l 1
49 41 m 1
 47 41 l 1
 47 43 l 1
 49 43 l 1
 49 41 l 1
55 41 m 1
 53 41 l 1
 53 43 l 1
 55 43 l 1
 55 41 l 1
57 33 m 1
 56 33 l 1
 56 35 l 1
 58 35 l 1
 58 34 l 1
 57 34 l 1
 57 33 l 1
60 33 m 1
 58 33 l 1
 58 34 l 1
 59 34 l 1
 59 35 l 1
 60 35 l 1
 60 33 l 1
63 33 m 1
 61 33 l 1
 61 35 l 1
 63 35 l 1
 63 33 l 1
63 37 m 1
 61 37 l 1
 61 39 l 1
 63 39 l 1
 63 37 l 1
58 41 m 1
 56 41 l 1
 56 43 l 1
 57 43 l 1
 57 42 l 1
 58 42 l 1
 58 41 l 1
60 41 m 1
 59 41 l 1
 59 42 l 1
 58 42 l 1
 58 43 l 1
 60 43 l 1
 60 41 l 1
63 41 m 1
 61 41 l 1
 61 43 l 1
 63 43 l 1
 63 41 l 1
67 64 m 1
 65 64 l 1
 65 67 l 1
 66 67 l 1
 66 65 l 1
 67 65 l 1
 67 64 l 1
68 65 m 1
 67 65 l 1
 67 66 l 1
 68 66 l 1
 68 65 l 1
EndSplineSet
Ligature2: "'liga' Standard Ligatures in Latin lookup 0-1" five five zero five one
LCarets2: 1 0
EndChar

StartChar: custom_5_5_0_5_2
Encoding: 16808 -1 16563
Width: 70
Flags: H
LayerCount: 2
Fore
SplineSet
2 69 m 1
 0 69 l 1
 0 70 l 1
 2 70 l 1
 2 69 l 1
17 25 m 1
 15 25 l 1
 15 27 l 1
 17 27 l 1
 17 25 l 1
23 25 m 1
 21 25 l 1
 21 27 l 1
 23 27 l 1
 23 25 l 1
26 25 m 1
 24 25 l 1
 24 27 l 1
 25 27 l 1
 25 26 l 1
 26 26 l 1
 26 25 l 1
28 25 m 1
 27 25 l 1
 27 26 l 1
 26 26 l 1
 26 27 l 1
 28 27 l 1
 28 25 l 1
31 25 m 1
 29 25 l 1
 29 27 l 1
 31 27 l 1
 31 25 l 1
17 29 m 1
 15 29 l 1
 15 31 l 1
 17 31 l 1
 17 29 l 1
17 33 m 1
 15 33 l 1
 15 35 l 1
 17 35 l 1
 17 33 l 1
23 33 m 1
 21 33 l 1
 21 35 l 1
 23 35 l 1
 23 33 l 1
17 37 m 1
 15 37 l 1
 15 39 l 1
 17 39 l 1
 17 37 l 1
23 37 m 1
 21 37 l 1
 21 39 l 1
 23 39 l 1
 23 37 l 1
17 41 m 1
 15 41 l 1
 15 43 l 1
 17 43 l 1
 17 41 l 1
23 41 m 1
 21 41 l 1
 21 43 l 1
 23 43 l 1
 23 41 l 1
31 29 m 1
 29 29 l 1
 29 31 l 1
 31 31 l 1
 31 29 l 1
25 33 m 1
 24 33 l 1
 24 35 l 1
 26 35 l 1
 26 34 l 1
 25 34 l 1
 25 33 l 1
28 33 m 1
 26 33 l 1
 26 34 l 1
 27 34 l 1
 27 35 l 1
 28 35 l 1
 28 33 l 1
31 33 m 1
 29 33 l 1
 29 35 l 1
 31 35 l 1
 31 33 l 1
36 31 m 1
 34 31 l 1
 34 33 l 1
 36 33 l 1
 36 31 l 1
26 41 m 1
 24 41 l 1
 24 43 l 1
 25 43 l 1
 25 42 l 1
 26 42 l 1
 26 41 l 1
28 41 m 1
 27 41 l 1
 27 42 l 1
 26 42 l 1
 26 43 l 1
 28 43 l 1
 28 41 l 1
31 41 m 1
 29 41 l 1
 29 43 l 1
 31 43 l 1
 31 41 l 1
36 35 m 1
 34 35 l 1
 34 37 l 1
 36 37 l 1
 36 35 l 1
41 25 m 1
 39 25 l 1
 39 27 l 1
 41 27 l 1
 41 25 l 1
44 25 m 1
 42 25 l 1
 42 27 l 1
 43 27 l 1
 43 26 l 1
 44 26 l 1
 44 25 l 1
46 25 m 1
 45 25 l 1
 45 26 l 1
 44 26 l 1
 44 27 l 1
 46 27 l 1
 46 25 l 1
49 25 m 1
 47 25 l 1
 47 27 l 1
 49 27 l 1
 49 25 l 1
55 25 m 1
 53 25 l 1
 53 27 l 1
 55 27 l 1
 55 25 l 1
58 25 m 1
 56 25 l 1
 56 27 l 1
 57 27 l 1
 57 26 l 1
 58 26 l 1
 58 25 l 1
60 25 m 1
 59 25 l 1
 59 26 l 1
 58 26 l 1
 58 27 l 1
 60 27 l 1
 60 25 l 1
63 25 m 1
 61 25 l 1
 61 27 l 1
 63 27 l 1
 63 25 l 1
41 29 m 1
 39 29 l 1
 39 31 l 1
 41 31 l 1
 41 29 l 1
41 33 m 1
 39 33 l 1
 39 35 l 1
 41 35 l 1
 41 33 l 1
43 33 m 1
 42 33 l 1
 42 35 l 1
 44 35 l 1
 44 34 l 1
 43 34 l 1
 43 33 l 1
46 33 m 1
 44 33 l 1
 44 34 l 1
 45 34 l 1
 45 35 l 1
 46 35 l 1
 46 33 l 1
55 29 m 1
 53 29 l 1
 53 31 l 1
 55 31 l 1
 55 29 l 1
49 33 m 1
 47 33 l 1
 47 35 l 1
 49 35 l 1
 49 33 l 1
55 33 m 1
 53 33 l 1
 53 35 l 1
 55 35 l 1
 55 33 l 1
41 41 m 1
 39 41 l 1
 39 43 l 1
 41 43 l 1
 41 41 l 1
44 41 m 1
 42 41 l 1
 42 43 l 1
 43 43 l 1
 43 42 l 1
 44 42 l 1
 44 41 l 1
46 41 m 1
 45 41 l 1
 45 42 l 1
 44 42 l 1
 44 43 l 1
 46 43 l 1
 46 41 l 1
49 37 m 1
 47 37 l 1
 47 39 l 1
 49 39 l 1
 49 37 l 1
49 41 m 1
 47 41 l 1
 47 43 l 1
 49 43 l 1
 49 41 l 1
55 41 m 1
 53 41 l 1
 53 43 l 1
 55 43 l 1
 55 41 l 1
57 33 m 1
 56 33 l 1
 56 35 l 1
 58 35 l 1
 58 34 l 1
 57 34 l 1
 57 33 l 1
60 33 m 1
 58 33 l 1
 58 34 l 1
 59 34 l 1
 59 35 l 1
 60 35 l 1
 60 33 l 1
63 33 m 1
 61 33 l 1
 61 35 l 1
 63 35 l 1
 63 33 l 1
63 37 m 1
 61 37 l 1
 61 39 l 1
 63 39 l 1
 63 37 l 1
58 41 m 1
 56 41 l 1
 56 43 l 1
 57 43 l 1
 57 42 l 1
 58 42 l 1
 58 41 l 1
60 41 m 1
 59 41 l 1
 59 42 l 1
 58 42 l 1
 58 43 l 1
 60 43 l 1
 60 41 l 1
63 41 m 1
 61 41 l 1
 61 43 l 1
 63 43 l 1
 63 41 l 1
65 65 m 1
 64 65 l 1
 64 66 l 1
 66 66 l 1
 66 65 l 1
 67 65 l 1
 67 64 l 1
 65 64 l 1
 65 65 l 1
67 66 m 1
 66 66 l 1
 66 67 l 1
 67 67 l 1
 67 66 l 1
EndSplineSet
Ligature2: "'liga' Standard Ligatures in Latin lookup 0-1" five five zero five two
LCarets2: 1 0
EndChar

StartChar: custom_5_5_0_5_3
Encoding: 16809 -1 16564
Width: 70
Flags: H
LayerCount: 2
Fore
SplineSet
2 69 m 1
 0 69 l 1
 0 70 l 1
 2 70 l 1
 2 69 l 1
17 25 m 1
 15 25 l 1
 15 27 l 1
 17 27 l 1
 17 25 l 1
23 25 m 1
 21 25 l 1
 21 27 l 1
 23 27 l 1
 23 25 l 1
26 25 m 1
 24 25 l 1
 24 27 l 1
 25 27 l 1
 25 26 l 1
 26 26 l 1
 26 25 l 1
28 25 m 1
 27 25 l 1
 27 26 l 1
 26 26 l 1
 26 27 l 1
 28 27 l 1
 28 25 l 1
31 25 m 1
 29 25 l 1
 29 27 l 1
 31 27 l 1
 31 25 l 1
17 29 m 1
 15 29 l 1
 15 31 l 1
 17 31 l 1
 17 29 l 1
17 33 m 1
 15 33 l 1
 15 35 l 1
 17 35 l 1
 17 33 l 1
23 33 m 1
 21 33 l 1
 21 35 l 1
 23 35 l 1
 23 33 l 1
17 37 m 1
 15 37 l 1
 15 39 l 1
 17 39 l 1
 17 37 l 1
23 37 m 1
 21 37 l 1
 21 39 l 1
 23 39 l 1
 23 37 l 1
17 41 m 1
 15 41 l 1
 15 43 l 1
 17 43 l 1
 17 41 l 1
23 41 m 1
 21 41 l 1
 21 43 l 1
 23 43 l 1
 23 41 l 1
31 29 m 1
 29 29 l 1
 29 31 l 1
 31 31 l 1
 31 29 l 1
25 33 m 1
 24 33 l 1
 24 35 l 1
 26 35 l 1
 26 34 l 1
 25 34 l 1
 25 33 l 1
28 33 m 1
 26 33 l 1
 26 34 l 1
 27 34 l 1
 27 35 l 1
 28 35 l 1
 28 33 l 1
31 33 m 1
 29 33 l 1
 29 35 l 1
 31 35 l 1
 31 33 l 1
36 31 m 1
 34 31 l 1
 34 33 l 1
 36 33 l 1
 36 31 l 1
26 41 m 1
 24 41 l 1
 24 43 l 1
 25 43 l 1
 25 42 l 1
 26 42 l 1
 26 41 l 1
28 41 m 1
 27 41 l 1
 27 42 l 1
 26 42 l 1
 26 43 l 1
 28 43 l 1
 28 41 l 1
31 41 m 1
 29 41 l 1
 29 43 l 1
 31 43 l 1
 31 41 l 1
36 35 m 1
 34 35 l 1
 34 37 l 1
 36 37 l 1
 36 35 l 1
41 25 m 1
 39 25 l 1
 39 27 l 1
 41 27 l 1
 41 25 l 1
44 25 m 1
 42 25 l 1
 42 27 l 1
 43 27 l 1
 43 26 l 1
 44 26 l 1
 44 25 l 1
46 25 m 1
 45 25 l 1
 45 26 l 1
 44 26 l 1
 44 27 l 1
 46 27 l 1
 46 25 l 1
49 25 m 1
 47 25 l 1
 47 27 l 1
 49 27 l 1
 49 25 l 1
55 25 m 1
 53 25 l 1
 53 27 l 1
 55 27 l 1
 55 25 l 1
58 25 m 1
 56 25 l 1
 56 27 l 1
 57 27 l 1
 57 26 l 1
 58 26 l 1
 58 25 l 1
60 25 m 1
 59 25 l 1
 59 26 l 1
 58 26 l 1
 58 27 l 1
 60 27 l 1
 60 25 l 1
63 25 m 1
 61 25 l 1
 61 27 l 1
 63 27 l 1
 63 25 l 1
41 29 m 1
 39 29 l 1
 39 31 l 1
 41 31 l 1
 41 29 l 1
41 33 m 1
 39 33 l 1
 39 35 l 1
 41 35 l 1
 41 33 l 1
43 33 m 1
 42 33 l 1
 42 35 l 1
 44 35 l 1
 44 34 l 1
 43 34 l 1
 43 33 l 1
46 33 m 1
 44 33 l 1
 44 34 l 1
 45 34 l 1
 45 35 l 1
 46 35 l 1
 46 33 l 1
55 29 m 1
 53 29 l 1
 53 31 l 1
 55 31 l 1
 55 29 l 1
49 33 m 1
 47 33 l 1
 47 35 l 1
 49 35 l 1
 49 33 l 1
55 33 m 1
 53 33 l 1
 53 35 l 1
 55 35 l 1
 55 33 l 1
41 41 m 1
 39 41 l 1
 39 43 l 1
 41 43 l 1
 41 41 l 1
44 41 m 1
 42 41 l 1
 42 43 l 1
 43 43 l 1
 43 42 l 1
 44 42 l 1
 44 41 l 1
46 41 m 1
 45 41 l 1
 45 42 l 1
 44 42 l 1
 44 43 l 1
 46 43 l 1
 46 41 l 1
49 37 m 1
 47 37 l 1
 47 39 l 1
 49 39 l 1
 49 37 l 1
49 41 m 1
 47 41 l 1
 47 43 l 1
 49 43 l 1
 49 41 l 1
55 41 m 1
 53 41 l 1
 53 43 l 1
 55 43 l 1
 55 41 l 1
57 33 m 1
 56 33 l 1
 56 35 l 1
 58 35 l 1
 58 34 l 1
 57 34 l 1
 57 33 l 1
60 33 m 1
 58 33 l 1
 58 34 l 1
 59 34 l 1
 59 35 l 1
 60 35 l 1
 60 33 l 1
63 33 m 1
 61 33 l 1
 61 35 l 1
 63 35 l 1
 63 33 l 1
63 37 m 1
 61 37 l 1
 61 39 l 1
 63 39 l 1
 63 37 l 1
58 41 m 1
 56 41 l 1
 56 43 l 1
 57 43 l 1
 57 42 l 1
 58 42 l 1
 58 41 l 1
60 41 m 1
 59 41 l 1
 59 42 l 1
 58 42 l 1
 58 43 l 1
 60 43 l 1
 60 41 l 1
63 41 m 1
 61 41 l 1
 61 43 l 1
 63 43 l 1
 63 41 l 1
67 64 m 1
 64 64 l 1
 64 66 l 1
 65 66 l 1
 65 65 l 1
 67 65 l 1
 67 64 l 1
66 66 m 1
 65 66 l 1
 65 67 l 1
 66 67 l 1
 66 66 l 1
EndSplineSet
Ligature2: "'liga' Standard Ligatures in Latin lookup 0-1" five five zero five three
LCarets2: 1 0
EndChar

StartChar: custom_5_5_0_5_4
Encoding: 16810 -1 16565
Width: 70
Flags: H
LayerCount: 2
Fore
SplineSet
3 69 m 1
 0 69 l 1
 0 70 l 1
 3 70 l 1
 3 69 l 1
17 25 m 1
 15 25 l 1
 15 27 l 1
 17 27 l 1
 17 25 l 1
23 25 m 1
 21 25 l 1
 21 27 l 1
 23 27 l 1
 23 25 l 1
26 25 m 1
 24 25 l 1
 24 27 l 1
 25 27 l 1
 25 26 l 1
 26 26 l 1
 26 25 l 1
28 25 m 1
 27 25 l 1
 27 26 l 1
 26 26 l 1
 26 27 l 1
 28 27 l 1
 28 25 l 1
31 25 m 1
 29 25 l 1
 29 27 l 1
 31 27 l 1
 31 25 l 1
17 29 m 1
 15 29 l 1
 15 31 l 1
 17 31 l 1
 17 29 l 1
17 33 m 1
 15 33 l 1
 15 35 l 1
 17 35 l 1
 17 33 l 1
23 33 m 1
 21 33 l 1
 21 35 l 1
 23 35 l 1
 23 33 l 1
17 37 m 1
 15 37 l 1
 15 39 l 1
 17 39 l 1
 17 37 l 1
23 37 m 1
 21 37 l 1
 21 39 l 1
 23 39 l 1
 23 37 l 1
17 41 m 1
 15 41 l 1
 15 43 l 1
 17 43 l 1
 17 41 l 1
23 41 m 1
 21 41 l 1
 21 43 l 1
 23 43 l 1
 23 41 l 1
31 29 m 1
 29 29 l 1
 29 31 l 1
 31 31 l 1
 31 29 l 1
25 33 m 1
 24 33 l 1
 24 35 l 1
 26 35 l 1
 26 34 l 1
 25 34 l 1
 25 33 l 1
28 33 m 1
 26 33 l 1
 26 34 l 1
 27 34 l 1
 27 35 l 1
 28 35 l 1
 28 33 l 1
31 33 m 1
 29 33 l 1
 29 35 l 1
 31 35 l 1
 31 33 l 1
36 31 m 1
 34 31 l 1
 34 33 l 1
 36 33 l 1
 36 31 l 1
26 41 m 1
 24 41 l 1
 24 43 l 1
 25 43 l 1
 25 42 l 1
 26 42 l 1
 26 41 l 1
28 41 m 1
 27 41 l 1
 27 42 l 1
 26 42 l 1
 26 43 l 1
 28 43 l 1
 28 41 l 1
31 41 m 1
 29 41 l 1
 29 43 l 1
 31 43 l 1
 31 41 l 1
36 35 m 1
 34 35 l 1
 34 37 l 1
 36 37 l 1
 36 35 l 1
41 25 m 1
 39 25 l 1
 39 27 l 1
 41 27 l 1
 41 25 l 1
44 25 m 1
 42 25 l 1
 42 27 l 1
 43 27 l 1
 43 26 l 1
 44 26 l 1
 44 25 l 1
46 25 m 1
 45 25 l 1
 45 26 l 1
 44 26 l 1
 44 27 l 1
 46 27 l 1
 46 25 l 1
49 25 m 1
 47 25 l 1
 47 27 l 1
 49 27 l 1
 49 25 l 1
55 25 m 1
 53 25 l 1
 53 27 l 1
 55 27 l 1
 55 25 l 1
58 25 m 1
 56 25 l 1
 56 27 l 1
 57 27 l 1
 57 26 l 1
 58 26 l 1
 58 25 l 1
60 25 m 1
 59 25 l 1
 59 26 l 1
 58 26 l 1
 58 27 l 1
 60 27 l 1
 60 25 l 1
63 25 m 1
 61 25 l 1
 61 27 l 1
 63 27 l 1
 63 25 l 1
41 29 m 1
 39 29 l 1
 39 31 l 1
 41 31 l 1
 41 29 l 1
41 33 m 1
 39 33 l 1
 39 35 l 1
 41 35 l 1
 41 33 l 1
43 33 m 1
 42 33 l 1
 42 35 l 1
 44 35 l 1
 44 34 l 1
 43 34 l 1
 43 33 l 1
46 33 m 1
 44 33 l 1
 44 34 l 1
 45 34 l 1
 45 35 l 1
 46 35 l 1
 46 33 l 1
55 29 m 1
 53 29 l 1
 53 31 l 1
 55 31 l 1
 55 29 l 1
49 33 m 1
 47 33 l 1
 47 35 l 1
 49 35 l 1
 49 33 l 1
55 33 m 1
 53 33 l 1
 53 35 l 1
 55 35 l 1
 55 33 l 1
41 41 m 1
 39 41 l 1
 39 43 l 1
 41 43 l 1
 41 41 l 1
44 41 m 1
 42 41 l 1
 42 43 l 1
 43 43 l 1
 43 42 l 1
 44 42 l 1
 44 41 l 1
46 41 m 1
 45 41 l 1
 45 42 l 1
 44 42 l 1
 44 43 l 1
 46 43 l 1
 46 41 l 1
49 37 m 1
 47 37 l 1
 47 39 l 1
 49 39 l 1
 49 37 l 1
49 41 m 1
 47 41 l 1
 47 43 l 1
 49 43 l 1
 49 41 l 1
55 41 m 1
 53 41 l 1
 53 43 l 1
 55 43 l 1
 55 41 l 1
57 33 m 1
 56 33 l 1
 56 35 l 1
 58 35 l 1
 58 34 l 1
 57 34 l 1
 57 33 l 1
60 33 m 1
 58 33 l 1
 58 34 l 1
 59 34 l 1
 59 35 l 1
 60 35 l 1
 60 33 l 1
63 33 m 1
 61 33 l 1
 61 35 l 1
 63 35 l 1
 63 33 l 1
63 37 m 1
 61 37 l 1
 61 39 l 1
 63 39 l 1
 63 37 l 1
58 41 m 1
 56 41 l 1
 56 43 l 1
 57 43 l 1
 57 42 l 1
 58 42 l 1
 58 41 l 1
60 41 m 1
 59 41 l 1
 59 42 l 1
 58 42 l 1
 58 43 l 1
 60 43 l 1
 60 41 l 1
63 41 m 1
 61 41 l 1
 61 43 l 1
 63 43 l 1
 63 41 l 1
66 63 m 1
 65 63 l 1
 65 64 l 1
 64 64 l 1
 64 66 l 1
 65 66 l 1
 65 65 l 1
 66 65 l 1
 66 63 l 1
67 65 m 1
 66 65 l 1
 66 66 l 1
 67 66 l 1
 67 65 l 1
EndSplineSet
Ligature2: "'liga' Standard Ligatures in Latin lookup 0-1" five five zero five four
LCarets2: 1 0
EndChar

StartChar: custom_5_5_0_5_5
Encoding: 16811 -1 16566
Width: 70
Flags: H
LayerCount: 2
Fore
SplineSet
2 68 m 1
 1 68 l 1
 1 70 l 1
 3 70 l 1
 3 69 l 1
 2 69 l 1
 2 68 l 1
17 25 m 1
 15 25 l 1
 15 27 l 1
 17 27 l 1
 17 25 l 1
23 25 m 1
 21 25 l 1
 21 27 l 1
 23 27 l 1
 23 25 l 1
26 25 m 1
 24 25 l 1
 24 27 l 1
 25 27 l 1
 25 26 l 1
 26 26 l 1
 26 25 l 1
28 25 m 1
 27 25 l 1
 27 26 l 1
 26 26 l 1
 26 27 l 1
 28 27 l 1
 28 25 l 1
31 25 m 1
 29 25 l 1
 29 27 l 1
 31 27 l 1
 31 25 l 1
17 29 m 1
 15 29 l 1
 15 31 l 1
 17 31 l 1
 17 29 l 1
17 33 m 1
 15 33 l 1
 15 35 l 1
 17 35 l 1
 17 33 l 1
23 33 m 1
 21 33 l 1
 21 35 l 1
 23 35 l 1
 23 33 l 1
17 37 m 1
 15 37 l 1
 15 39 l 1
 17 39 l 1
 17 37 l 1
23 37 m 1
 21 37 l 1
 21 39 l 1
 23 39 l 1
 23 37 l 1
17 41 m 1
 15 41 l 1
 15 43 l 1
 17 43 l 1
 17 41 l 1
23 41 m 1
 21 41 l 1
 21 43 l 1
 23 43 l 1
 23 41 l 1
31 29 m 1
 29 29 l 1
 29 31 l 1
 31 31 l 1
 31 29 l 1
25 33 m 1
 24 33 l 1
 24 35 l 1
 26 35 l 1
 26 34 l 1
 25 34 l 1
 25 33 l 1
28 33 m 1
 26 33 l 1
 26 34 l 1
 27 34 l 1
 27 35 l 1
 28 35 l 1
 28 33 l 1
31 33 m 1
 29 33 l 1
 29 35 l 1
 31 35 l 1
 31 33 l 1
36 31 m 1
 34 31 l 1
 34 33 l 1
 36 33 l 1
 36 31 l 1
26 41 m 1
 24 41 l 1
 24 43 l 1
 25 43 l 1
 25 42 l 1
 26 42 l 1
 26 41 l 1
28 41 m 1
 27 41 l 1
 27 42 l 1
 26 42 l 1
 26 43 l 1
 28 43 l 1
 28 41 l 1
31 41 m 1
 29 41 l 1
 29 43 l 1
 31 43 l 1
 31 41 l 1
36 35 m 1
 34 35 l 1
 34 37 l 1
 36 37 l 1
 36 35 l 1
41 25 m 1
 39 25 l 1
 39 27 l 1
 41 27 l 1
 41 25 l 1
44 25 m 1
 42 25 l 1
 42 27 l 1
 43 27 l 1
 43 26 l 1
 44 26 l 1
 44 25 l 1
46 25 m 1
 45 25 l 1
 45 26 l 1
 44 26 l 1
 44 27 l 1
 46 27 l 1
 46 25 l 1
49 25 m 1
 47 25 l 1
 47 27 l 1
 49 27 l 1
 49 25 l 1
55 25 m 1
 53 25 l 1
 53 27 l 1
 55 27 l 1
 55 25 l 1
58 25 m 1
 56 25 l 1
 56 27 l 1
 57 27 l 1
 57 26 l 1
 58 26 l 1
 58 25 l 1
60 25 m 1
 59 25 l 1
 59 26 l 1
 58 26 l 1
 58 27 l 1
 60 27 l 1
 60 25 l 1
63 25 m 1
 61 25 l 1
 61 27 l 1
 63 27 l 1
 63 25 l 1
41 29 m 1
 39 29 l 1
 39 31 l 1
 41 31 l 1
 41 29 l 1
41 33 m 1
 39 33 l 1
 39 35 l 1
 41 35 l 1
 41 33 l 1
43 33 m 1
 42 33 l 1
 42 35 l 1
 44 35 l 1
 44 34 l 1
 43 34 l 1
 43 33 l 1
46 33 m 1
 44 33 l 1
 44 34 l 1
 45 34 l 1
 45 35 l 1
 46 35 l 1
 46 33 l 1
55 29 m 1
 53 29 l 1
 53 31 l 1
 55 31 l 1
 55 29 l 1
49 33 m 1
 47 33 l 1
 47 35 l 1
 49 35 l 1
 49 33 l 1
55 33 m 1
 53 33 l 1
 53 35 l 1
 55 35 l 1
 55 33 l 1
41 41 m 1
 39 41 l 1
 39 43 l 1
 41 43 l 1
 41 41 l 1
44 41 m 1
 42 41 l 1
 42 43 l 1
 43 43 l 1
 43 42 l 1
 44 42 l 1
 44 41 l 1
46 41 m 1
 45 41 l 1
 45 42 l 1
 44 42 l 1
 44 43 l 1
 46 43 l 1
 46 41 l 1
49 37 m 1
 47 37 l 1
 47 39 l 1
 49 39 l 1
 49 37 l 1
49 41 m 1
 47 41 l 1
 47 43 l 1
 49 43 l 1
 49 41 l 1
55 41 m 1
 53 41 l 1
 53 43 l 1
 55 43 l 1
 55 41 l 1
57 33 m 1
 56 33 l 1
 56 35 l 1
 58 35 l 1
 58 34 l 1
 57 34 l 1
 57 33 l 1
60 33 m 1
 58 33 l 1
 58 34 l 1
 59 34 l 1
 59 35 l 1
 60 35 l 1
 60 33 l 1
63 33 m 1
 61 33 l 1
 61 35 l 1
 63 35 l 1
 63 33 l 1
63 37 m 1
 61 37 l 1
 61 39 l 1
 63 39 l 1
 63 37 l 1
58 41 m 1
 56 41 l 1
 56 43 l 1
 57 43 l 1
 57 42 l 1
 58 42 l 1
 58 41 l 1
60 41 m 1
 59 41 l 1
 59 42 l 1
 58 42 l 1
 58 43 l 1
 60 43 l 1
 60 41 l 1
63 41 m 1
 61 41 l 1
 61 43 l 1
 63 43 l 1
 63 41 l 1
66 63 m 1
 64 63 l 1
 64 66 l 1
 65 66 l 1
 65 64 l 1
 66 64 l 1
 66 63 l 1
67 64 m 1
 66 64 l 1
 66 65 l 1
 67 65 l 1
 67 64 l 1
62 69 m 1
 61 69 l 1
 61 70 l 1
 62 70 l 1
 62 69 l 1
EndSplineSet
Ligature2: "'liga' Standard Ligatures in Latin lookup 0-1" five five zero five five
LCarets2: 1 0
EndChar

StartChar: custom_5_5_0_5_6
Encoding: 16812 -1 16567
Width: 70
Flags: H
LayerCount: 2
Fore
SplineSet
1 69 m 1
 0 69 l 1
 0 70 l 1
 1 70 l 1
 1 69 l 1
3 68 m 1
 1 68 l 1
 1 69 l 1
 2 69 l 1
 2 70 l 1
 3 70 l 1
 3 68 l 1
17 25 m 1
 15 25 l 1
 15 27 l 1
 17 27 l 1
 17 25 l 1
23 25 m 1
 21 25 l 1
 21 27 l 1
 23 27 l 1
 23 25 l 1
26 25 m 1
 24 25 l 1
 24 27 l 1
 25 27 l 1
 25 26 l 1
 26 26 l 1
 26 25 l 1
28 25 m 1
 27 25 l 1
 27 26 l 1
 26 26 l 1
 26 27 l 1
 28 27 l 1
 28 25 l 1
31 25 m 1
 29 25 l 1
 29 27 l 1
 31 27 l 1
 31 25 l 1
17 29 m 1
 15 29 l 1
 15 31 l 1
 17 31 l 1
 17 29 l 1
17 33 m 1
 15 33 l 1
 15 35 l 1
 17 35 l 1
 17 33 l 1
23 33 m 1
 21 33 l 1
 21 35 l 1
 23 35 l 1
 23 33 l 1
17 37 m 1
 15 37 l 1
 15 39 l 1
 17 39 l 1
 17 37 l 1
23 37 m 1
 21 37 l 1
 21 39 l 1
 23 39 l 1
 23 37 l 1
17 41 m 1
 15 41 l 1
 15 43 l 1
 17 43 l 1
 17 41 l 1
23 41 m 1
 21 41 l 1
 21 43 l 1
 23 43 l 1
 23 41 l 1
31 29 m 1
 29 29 l 1
 29 31 l 1
 31 31 l 1
 31 29 l 1
25 33 m 1
 24 33 l 1
 24 35 l 1
 26 35 l 1
 26 34 l 1
 25 34 l 1
 25 33 l 1
28 33 m 1
 26 33 l 1
 26 34 l 1
 27 34 l 1
 27 35 l 1
 28 35 l 1
 28 33 l 1
31 33 m 1
 29 33 l 1
 29 35 l 1
 31 35 l 1
 31 33 l 1
36 31 m 1
 34 31 l 1
 34 33 l 1
 36 33 l 1
 36 31 l 1
26 41 m 1
 24 41 l 1
 24 43 l 1
 25 43 l 1
 25 42 l 1
 26 42 l 1
 26 41 l 1
28 41 m 1
 27 41 l 1
 27 42 l 1
 26 42 l 1
 26 43 l 1
 28 43 l 1
 28 41 l 1
31 41 m 1
 29 41 l 1
 29 43 l 1
 31 43 l 1
 31 41 l 1
36 35 m 1
 34 35 l 1
 34 37 l 1
 36 37 l 1
 36 35 l 1
41 25 m 1
 39 25 l 1
 39 27 l 1
 41 27 l 1
 41 25 l 1
44 25 m 1
 42 25 l 1
 42 27 l 1
 43 27 l 1
 43 26 l 1
 44 26 l 1
 44 25 l 1
46 25 m 1
 45 25 l 1
 45 26 l 1
 44 26 l 1
 44 27 l 1
 46 27 l 1
 46 25 l 1
49 25 m 1
 47 25 l 1
 47 27 l 1
 49 27 l 1
 49 25 l 1
55 25 m 1
 53 25 l 1
 53 27 l 1
 55 27 l 1
 55 25 l 1
58 25 m 1
 56 25 l 1
 56 27 l 1
 57 27 l 1
 57 26 l 1
 58 26 l 1
 58 25 l 1
60 25 m 1
 59 25 l 1
 59 26 l 1
 58 26 l 1
 58 27 l 1
 60 27 l 1
 60 25 l 1
63 25 m 1
 61 25 l 1
 61 27 l 1
 63 27 l 1
 63 25 l 1
41 29 m 1
 39 29 l 1
 39 31 l 1
 41 31 l 1
 41 29 l 1
41 33 m 1
 39 33 l 1
 39 35 l 1
 41 35 l 1
 41 33 l 1
43 33 m 1
 42 33 l 1
 42 35 l 1
 44 35 l 1
 44 34 l 1
 43 34 l 1
 43 33 l 1
46 33 m 1
 44 33 l 1
 44 34 l 1
 45 34 l 1
 45 35 l 1
 46 35 l 1
 46 33 l 1
55 29 m 1
 53 29 l 1
 53 31 l 1
 55 31 l 1
 55 29 l 1
49 33 m 1
 47 33 l 1
 47 35 l 1
 49 35 l 1
 49 33 l 1
55 33 m 1
 53 33 l 1
 53 35 l 1
 55 35 l 1
 55 33 l 1
41 41 m 1
 39 41 l 1
 39 43 l 1
 41 43 l 1
 41 41 l 1
44 41 m 1
 42 41 l 1
 42 43 l 1
 43 43 l 1
 43 42 l 1
 44 42 l 1
 44 41 l 1
46 41 m 1
 45 41 l 1
 45 42 l 1
 44 42 l 1
 44 43 l 1
 46 43 l 1
 46 41 l 1
49 37 m 1
 47 37 l 1
 47 39 l 1
 49 39 l 1
 49 37 l 1
49 41 m 1
 47 41 l 1
 47 43 l 1
 49 43 l 1
 49 41 l 1
55 41 m 1
 53 41 l 1
 53 43 l 1
 55 43 l 1
 55 41 l 1
57 33 m 1
 56 33 l 1
 56 35 l 1
 58 35 l 1
 58 34 l 1
 57 34 l 1
 57 33 l 1
60 33 m 1
 58 33 l 1
 58 34 l 1
 59 34 l 1
 59 35 l 1
 60 35 l 1
 60 33 l 1
63 33 m 1
 61 33 l 1
 61 35 l 1
 63 35 l 1
 63 33 l 1
63 37 m 1
 61 37 l 1
 61 39 l 1
 63 39 l 1
 63 37 l 1
58 41 m 1
 56 41 l 1
 56 43 l 1
 57 43 l 1
 57 42 l 1
 58 42 l 1
 58 41 l 1
60 41 m 1
 59 41 l 1
 59 42 l 1
 58 42 l 1
 58 43 l 1
 60 43 l 1
 60 41 l 1
63 41 m 1
 61 41 l 1
 61 43 l 1
 63 43 l 1
 63 41 l 1
66 63 m 1
 64 63 l 1
 64 64 l 1
 63 64 l 1
 63 65 l 1
 65 65 l 1
 65 64 l 1
 66 64 l 1
 66 63 l 1
66 65 m 1
 65 65 l 1
 65 66 l 1
 66 66 l 1
 66 65 l 1
62 69 m 1
 60 69 l 1
 60 70 l 1
 62 70 l 1
 62 69 l 1
EndSplineSet
Ligature2: "'liga' Standard Ligatures in Latin lookup 0-1" five five zero five six
LCarets2: 1 0
EndChar

StartChar: custom_5_5_0_5_7
Encoding: 16813 -1 16568
Width: 70
Flags: H
LayerCount: 2
Fore
SplineSet
3 68 m 1
 1 68 l 1
 1 69 l 1
 2 69 l 1
 2 70 l 1
 4 70 l 1
 4 69 l 1
 3 69 l 1
 3 68 l 1
17 25 m 1
 15 25 l 1
 15 27 l 1
 17 27 l 1
 17 25 l 1
23 25 m 1
 21 25 l 1
 21 27 l 1
 23 27 l 1
 23 25 l 1
26 25 m 1
 24 25 l 1
 24 27 l 1
 25 27 l 1
 25 26 l 1
 26 26 l 1
 26 25 l 1
28 25 m 1
 27 25 l 1
 27 26 l 1
 26 26 l 1
 26 27 l 1
 28 27 l 1
 28 25 l 1
31 25 m 1
 29 25 l 1
 29 27 l 1
 31 27 l 1
 31 25 l 1
17 29 m 1
 15 29 l 1
 15 31 l 1
 17 31 l 1
 17 29 l 1
17 33 m 1
 15 33 l 1
 15 35 l 1
 17 35 l 1
 17 33 l 1
23 33 m 1
 21 33 l 1
 21 35 l 1
 23 35 l 1
 23 33 l 1
17 37 m 1
 15 37 l 1
 15 39 l 1
 17 39 l 1
 17 37 l 1
23 37 m 1
 21 37 l 1
 21 39 l 1
 23 39 l 1
 23 37 l 1
17 41 m 1
 15 41 l 1
 15 43 l 1
 17 43 l 1
 17 41 l 1
23 41 m 1
 21 41 l 1
 21 43 l 1
 23 43 l 1
 23 41 l 1
31 29 m 1
 29 29 l 1
 29 31 l 1
 31 31 l 1
 31 29 l 1
25 33 m 1
 24 33 l 1
 24 35 l 1
 26 35 l 1
 26 34 l 1
 25 34 l 1
 25 33 l 1
28 33 m 1
 26 33 l 1
 26 34 l 1
 27 34 l 1
 27 35 l 1
 28 35 l 1
 28 33 l 1
31 33 m 1
 29 33 l 1
 29 35 l 1
 31 35 l 1
 31 33 l 1
36 31 m 1
 34 31 l 1
 34 33 l 1
 36 33 l 1
 36 31 l 1
26 41 m 1
 24 41 l 1
 24 43 l 1
 25 43 l 1
 25 42 l 1
 26 42 l 1
 26 41 l 1
28 41 m 1
 27 41 l 1
 27 42 l 1
 26 42 l 1
 26 43 l 1
 28 43 l 1
 28 41 l 1
31 41 m 1
 29 41 l 1
 29 43 l 1
 31 43 l 1
 31 41 l 1
36 35 m 1
 34 35 l 1
 34 37 l 1
 36 37 l 1
 36 35 l 1
41 25 m 1
 39 25 l 1
 39 27 l 1
 41 27 l 1
 41 25 l 1
44 25 m 1
 42 25 l 1
 42 27 l 1
 43 27 l 1
 43 26 l 1
 44 26 l 1
 44 25 l 1
46 25 m 1
 45 25 l 1
 45 26 l 1
 44 26 l 1
 44 27 l 1
 46 27 l 1
 46 25 l 1
49 25 m 1
 47 25 l 1
 47 27 l 1
 49 27 l 1
 49 25 l 1
55 25 m 1
 53 25 l 1
 53 27 l 1
 55 27 l 1
 55 25 l 1
58 25 m 1
 56 25 l 1
 56 27 l 1
 57 27 l 1
 57 26 l 1
 58 26 l 1
 58 25 l 1
60 25 m 1
 59 25 l 1
 59 26 l 1
 58 26 l 1
 58 27 l 1
 60 27 l 1
 60 25 l 1
63 25 m 1
 61 25 l 1
 61 27 l 1
 63 27 l 1
 63 25 l 1
41 29 m 1
 39 29 l 1
 39 31 l 1
 41 31 l 1
 41 29 l 1
41 33 m 1
 39 33 l 1
 39 35 l 1
 41 35 l 1
 41 33 l 1
43 33 m 1
 42 33 l 1
 42 35 l 1
 44 35 l 1
 44 34 l 1
 43 34 l 1
 43 33 l 1
46 33 m 1
 44 33 l 1
 44 34 l 1
 45 34 l 1
 45 35 l 1
 46 35 l 1
 46 33 l 1
55 29 m 1
 53 29 l 1
 53 31 l 1
 55 31 l 1
 55 29 l 1
49 33 m 1
 47 33 l 1
 47 35 l 1
 49 35 l 1
 49 33 l 1
55 33 m 1
 53 33 l 1
 53 35 l 1
 55 35 l 1
 55 33 l 1
41 41 m 1
 39 41 l 1
 39 43 l 1
 41 43 l 1
 41 41 l 1
44 41 m 1
 42 41 l 1
 42 43 l 1
 43 43 l 1
 43 42 l 1
 44 42 l 1
 44 41 l 1
46 41 m 1
 45 41 l 1
 45 42 l 1
 44 42 l 1
 44 43 l 1
 46 43 l 1
 46 41 l 1
49 37 m 1
 47 37 l 1
 47 39 l 1
 49 39 l 1
 49 37 l 1
49 41 m 1
 47 41 l 1
 47 43 l 1
 49 43 l 1
 49 41 l 1
55 41 m 1
 53 41 l 1
 53 43 l 1
 55 43 l 1
 55 41 l 1
57 33 m 1
 56 33 l 1
 56 35 l 1
 58 35 l 1
 58 34 l 1
 57 34 l 1
 57 33 l 1
60 33 m 1
 58 33 l 1
 58 34 l 1
 59 34 l 1
 59 35 l 1
 60 35 l 1
 60 33 l 1
63 33 m 1
 61 33 l 1
 61 35 l 1
 63 35 l 1
 63 33 l 1
63 37 m 1
 61 37 l 1
 61 39 l 1
 63 39 l 1
 63 37 l 1
58 41 m 1
 56 41 l 1
 56 43 l 1
 57 43 l 1
 57 42 l 1
 58 42 l 1
 58 41 l 1
60 41 m 1
 59 41 l 1
 59 42 l 1
 58 42 l 1
 58 43 l 1
 60 43 l 1
 60 41 l 1
63 41 m 1
 61 41 l 1
 61 43 l 1
 63 43 l 1
 63 41 l 1
66 63 m 1
 63 63 l 1
 63 65 l 1
 64 65 l 1
 64 64 l 1
 66 64 l 1
 66 63 l 1
65 65 m 1
 64 65 l 1
 64 66 l 1
 65 66 l 1
 65 65 l 1
62 69 m 1
 60 69 l 1
 60 70 l 1
 62 70 l 1
 62 69 l 1
EndSplineSet
Ligature2: "'liga' Standard Ligatures in Latin lookup 0-1" five five zero five seven
LCarets2: 1 0
EndChar

StartChar: custom_5_5_0_5_8
Encoding: 16814 -1 16569
Width: 70
Flags: H
LayerCount: 2
Fore
SplineSet
4 68 m 1
 1 68 l 1
 1 69 l 1
 3 69 l 1
 3 70 l 1
 4 70 l 1
 4 68 l 1
17 25 m 1
 15 25 l 1
 15 27 l 1
 17 27 l 1
 17 25 l 1
23 25 m 1
 21 25 l 1
 21 27 l 1
 23 27 l 1
 23 25 l 1
26 25 m 1
 24 25 l 1
 24 27 l 1
 25 27 l 1
 25 26 l 1
 26 26 l 1
 26 25 l 1
28 25 m 1
 27 25 l 1
 27 26 l 1
 26 26 l 1
 26 27 l 1
 28 27 l 1
 28 25 l 1
31 25 m 1
 29 25 l 1
 29 27 l 1
 31 27 l 1
 31 25 l 1
17 29 m 1
 15 29 l 1
 15 31 l 1
 17 31 l 1
 17 29 l 1
17 33 m 1
 15 33 l 1
 15 35 l 1
 17 35 l 1
 17 33 l 1
23 33 m 1
 21 33 l 1
 21 35 l 1
 23 35 l 1
 23 33 l 1
17 37 m 1
 15 37 l 1
 15 39 l 1
 17 39 l 1
 17 37 l 1
23 37 m 1
 21 37 l 1
 21 39 l 1
 23 39 l 1
 23 37 l 1
17 41 m 1
 15 41 l 1
 15 43 l 1
 17 43 l 1
 17 41 l 1
23 41 m 1
 21 41 l 1
 21 43 l 1
 23 43 l 1
 23 41 l 1
31 29 m 1
 29 29 l 1
 29 31 l 1
 31 31 l 1
 31 29 l 1
25 33 m 1
 24 33 l 1
 24 35 l 1
 26 35 l 1
 26 34 l 1
 25 34 l 1
 25 33 l 1
28 33 m 1
 26 33 l 1
 26 34 l 1
 27 34 l 1
 27 35 l 1
 28 35 l 1
 28 33 l 1
31 33 m 1
 29 33 l 1
 29 35 l 1
 31 35 l 1
 31 33 l 1
36 31 m 1
 34 31 l 1
 34 33 l 1
 36 33 l 1
 36 31 l 1
26 41 m 1
 24 41 l 1
 24 43 l 1
 25 43 l 1
 25 42 l 1
 26 42 l 1
 26 41 l 1
28 41 m 1
 27 41 l 1
 27 42 l 1
 26 42 l 1
 26 43 l 1
 28 43 l 1
 28 41 l 1
31 41 m 1
 29 41 l 1
 29 43 l 1
 31 43 l 1
 31 41 l 1
36 35 m 1
 34 35 l 1
 34 37 l 1
 36 37 l 1
 36 35 l 1
41 25 m 1
 39 25 l 1
 39 27 l 1
 41 27 l 1
 41 25 l 1
44 25 m 1
 42 25 l 1
 42 27 l 1
 43 27 l 1
 43 26 l 1
 44 26 l 1
 44 25 l 1
46 25 m 1
 45 25 l 1
 45 26 l 1
 44 26 l 1
 44 27 l 1
 46 27 l 1
 46 25 l 1
49 25 m 1
 47 25 l 1
 47 27 l 1
 49 27 l 1
 49 25 l 1
55 25 m 1
 53 25 l 1
 53 27 l 1
 55 27 l 1
 55 25 l 1
58 25 m 1
 56 25 l 1
 56 27 l 1
 57 27 l 1
 57 26 l 1
 58 26 l 1
 58 25 l 1
60 25 m 1
 59 25 l 1
 59 26 l 1
 58 26 l 1
 58 27 l 1
 60 27 l 1
 60 25 l 1
63 25 m 1
 61 25 l 1
 61 27 l 1
 63 27 l 1
 63 25 l 1
41 29 m 1
 39 29 l 1
 39 31 l 1
 41 31 l 1
 41 29 l 1
41 33 m 1
 39 33 l 1
 39 35 l 1
 41 35 l 1
 41 33 l 1
43 33 m 1
 42 33 l 1
 42 35 l 1
 44 35 l 1
 44 34 l 1
 43 34 l 1
 43 33 l 1
46 33 m 1
 44 33 l 1
 44 34 l 1
 45 34 l 1
 45 35 l 1
 46 35 l 1
 46 33 l 1
55 29 m 1
 53 29 l 1
 53 31 l 1
 55 31 l 1
 55 29 l 1
49 33 m 1
 47 33 l 1
 47 35 l 1
 49 35 l 1
 49 33 l 1
55 33 m 1
 53 33 l 1
 53 35 l 1
 55 35 l 1
 55 33 l 1
41 41 m 1
 39 41 l 1
 39 43 l 1
 41 43 l 1
 41 41 l 1
44 41 m 1
 42 41 l 1
 42 43 l 1
 43 43 l 1
 43 42 l 1
 44 42 l 1
 44 41 l 1
46 41 m 1
 45 41 l 1
 45 42 l 1
 44 42 l 1
 44 43 l 1
 46 43 l 1
 46 41 l 1
49 37 m 1
 47 37 l 1
 47 39 l 1
 49 39 l 1
 49 37 l 1
49 41 m 1
 47 41 l 1
 47 43 l 1
 49 43 l 1
 49 41 l 1
55 41 m 1
 53 41 l 1
 53 43 l 1
 55 43 l 1
 55 41 l 1
57 33 m 1
 56 33 l 1
 56 35 l 1
 58 35 l 1
 58 34 l 1
 57 34 l 1
 57 33 l 1
60 33 m 1
 58 33 l 1
 58 34 l 1
 59 34 l 1
 59 35 l 1
 60 35 l 1
 60 33 l 1
63 33 m 1
 61 33 l 1
 61 35 l 1
 63 35 l 1
 63 33 l 1
63 37 m 1
 61 37 l 1
 61 39 l 1
 63 39 l 1
 63 37 l 1
58 41 m 1
 56 41 l 1
 56 43 l 1
 57 43 l 1
 57 42 l 1
 58 42 l 1
 58 41 l 1
60 41 m 1
 59 41 l 1
 59 42 l 1
 58 42 l 1
 58 43 l 1
 60 43 l 1
 60 41 l 1
63 41 m 1
 61 41 l 1
 61 43 l 1
 63 43 l 1
 63 41 l 1
65 62 m 1
 64 62 l 1
 64 63 l 1
 63 63 l 1
 63 65 l 1
 64 65 l 1
 64 64 l 1
 65 64 l 1
 65 62 l 1
66 64 m 1
 65 64 l 1
 65 65 l 1
 66 65 l 1
 66 64 l 1
62 69 m 1
 59 69 l 1
 59 70 l 1
 62 70 l 1
 62 69 l 1
EndSplineSet
Ligature2: "'liga' Standard Ligatures in Latin lookup 0-1" five five zero five eight
LCarets2: 1 0
EndChar

